{"glyphs":{"0":{"ha":818,"x_min":53,"x_max":754,"o":"m 564 11 q 510 6 551 8 q 422 1 469 3 q 333 0 375 0 q 278 3 292 0 q 176 43 210 14 q 158 58 169 49 q 136 74 147 67 q 103 101 117 88 q 82 130 90 114 q 68 167 74 146 q 60 217 63 188 q 72 393 53 283 q 131 633 90 503 q 163 799 160 725 q 144 921 167 874 q 196 1011 107 1001 q 220 1014 206 1013 q 246 1018 235 1015 q 276 1020 263 1021 q 317 1017 289 1019 q 360 1014 340 1014 q 406 1015 379 1014 q 450 1017 429 1017 q 493 1014 471 1017 q 540 1012 513 1013 q 594 1013 567 1011 q 667 1012 639 1014 q 713 1003 696 1010 q 735 985 729 997 q 742 954 742 974 q 738 929 742 938 q 714 906 733 921 q 688 876 692 889 q 693 835 685 864 q 699 810 696 822 q 705 776 701 797 q 714 720 708 754 q 728 631 719 686 q 745 497 739 564 q 753 370 751 429 q 751 264 754 311 q 740 188 749 217 q 674 75 722 124 q 564 11 625 26 m 693 956 q 693 950 694 951 q 689 943 689 949 q 695 944 689 938 q 701 956 701 951 q 698 961 701 958 q 692 961 694 964 q 693 956 689 958 m 256 192 q 261 188 258 188 q 261 193 264 189 q 256 196 258 196 q 256 192 254 196 m 243 779 q 246 772 239 771 q 249 779 249 775 q 243 779 247 783 m 183 446 q 181 443 181 446 q 183 440 181 440 q 188 443 188 440 q 183 446 188 446 m 182 431 q 176 429 188 425 q 174 433 172 432 q 172 436 175 436 q 169 433 168 436 q 176 428 171 431 q 182 421 183 422 q 185 415 179 418 q 188 418 192 410 l 188 418 q 190 426 186 422 q 194 434 196 429 q 186 436 192 439 q 182 431 182 435 m 181 278 l 181 271 q 178 269 181 268 q 172 264 175 272 q 172 257 171 257 q 175 254 175 260 q 179 250 175 250 q 186 254 183 250 q 192 266 190 258 q 190 274 193 274 q 188 279 188 274 q 184 283 188 283 q 181 278 181 283 m 172 965 q 169 958 169 963 q 172 957 169 954 q 175 964 175 960 q 172 965 175 965 m 169 449 q 167 444 167 449 q 169 442 167 439 q 172 446 172 442 q 169 449 172 449 m 163 392 q 163 388 157 392 q 167 382 168 386 l 167 376 q 171 379 171 371 q 172 393 172 382 q 175 406 172 400 q 174 408 178 408 q 168 399 168 408 q 163 392 171 394 m 163 365 q 164 372 160 371 q 165 373 165 372 q 163 374 165 374 q 157 368 157 374 q 161 361 160 361 q 163 365 163 361 m 157 203 q 164 207 157 200 q 163 208 167 213 q 157 203 157 203 m 190 213 l 192 214 l 192 217 q 186 226 194 224 q 181 226 181 229 q 176 222 181 222 q 174 224 172 219 q 171 226 176 226 q 164 221 167 226 q 158 218 161 215 q 153 217 153 221 q 156 214 150 214 q 160 213 158 214 q 164 213 161 213 q 168 207 168 213 q 164 199 168 201 q 164 196 158 196 q 171 201 171 196 l 171 203 q 176 207 174 210 q 183 210 181 204 q 190 213 189 215 m 194 285 l 199 285 l 197 286 q 194 289 197 289 q 190 288 190 293 q 194 285 190 285 m 201 229 q 206 233 206 232 q 200 232 203 239 q 201 229 197 229 m 204 507 q 208 508 208 507 q 206 510 208 510 q 201 510 203 511 q 204 507 199 507 m 211 513 q 213 517 213 513 q 208 521 211 521 q 207 517 206 521 q 211 513 210 513 m 232 300 q 235 306 235 303 q 232 308 235 311 q 229 303 229 308 q 232 300 229 297 m 226 610 q 238 628 232 614 q 240 642 240 640 q 233 640 240 643 q 228 635 228 639 q 226 632 231 632 q 224 628 224 632 q 224 624 226 624 q 217 619 222 625 q 213 614 211 614 q 211 608 214 614 q 213 600 208 601 q 211 597 217 594 q 207 590 207 597 q 206 586 210 582 q 203 582 200 589 q 203 575 206 575 q 199 572 199 575 q 204 571 199 568 q 208 571 208 575 q 200 565 208 571 q 194 560 192 563 q 199 560 197 557 q 203 563 199 563 q 211 581 214 563 q 215 588 211 585 q 224 589 219 592 q 222 596 228 585 q 226 610 219 603 m 240 392 q 242 389 238 389 q 250 394 244 389 q 256 403 256 400 q 249 406 256 406 q 239 403 242 406 q 238 401 238 401 q 240 401 239 400 q 244 401 244 404 q 240 397 244 397 q 240 396 238 397 q 240 392 247 394 m 246 211 q 247 210 244 208 q 250 208 250 210 q 253 207 250 204 q 256 214 256 207 q 254 215 256 217 q 250 213 251 211 q 246 211 246 217 m 249 183 q 253 183 251 181 q 256 188 256 185 q 251 190 256 190 q 249 183 242 190 m 263 110 q 269 114 271 110 q 263 117 268 117 q 256 115 261 115 q 253 113 250 115 q 263 110 256 110 m 365 46 q 372 49 369 46 q 368 50 372 50 q 365 46 356 46 m 513 161 q 513 169 508 169 q 510 172 515 171 q 504 160 497 172 q 512 153 508 153 q 513 161 515 154 m 514 178 q 513 181 514 181 q 508 178 508 181 q 510 175 510 175 q 514 178 511 175 m 686 639 q 683 635 683 639 q 685 632 683 632 q 688 635 688 632 q 686 639 690 639 m 679 615 q 681 610 678 614 q 688 608 683 607 q 693 614 693 610 q 688 617 693 617 q 679 615 682 618 m 681 200 q 678 196 678 200 q 682 197 678 189 q 681 200 682 201 m 668 739 q 665 732 664 735 q 669 721 669 728 q 674 714 669 713 q 678 724 678 715 q 668 739 678 749 m 646 490 q 643 485 642 490 q 646 469 646 476 q 654 458 650 458 q 654 461 656 458 q 656 471 650 465 q 657 483 658 479 q 660 486 656 489 q 658 490 663 485 q 651 493 651 494 q 646 490 649 490 m 635 465 q 632 475 638 475 q 628 472 628 475 q 625 468 629 471 q 626 464 621 468 q 626 461 632 461 q 624 457 624 461 q 628 453 624 450 q 635 465 632 457 m 613 797 q 612 793 611 794 q 614 794 613 792 q 621 792 615 797 q 630 787 626 786 q 632 794 633 788 q 633 801 629 801 q 632 803 635 801 q 631 808 629 807 q 625 813 631 811 q 618 807 621 813 q 614 801 617 801 q 613 801 614 803 q 613 797 613 800 m 599 408 q 601 401 597 401 q 607 399 607 401 q 613 392 608 392 q 611 394 617 392 q 614 397 607 397 q 628 418 624 397 q 626 424 629 424 q 621 418 624 424 q 610 414 617 411 q 599 408 603 414 m 581 933 q 569 935 576 936 q 563 931 563 933 q 569 929 563 926 q 581 931 579 932 q 581 933 583 931 m 579 863 q 574 867 578 867 q 569 869 569 867 q 568 872 572 872 q 568 858 564 872 q 575 857 568 854 q 579 863 581 860 m 554 804 q 551 800 551 804 q 556 796 551 796 q 560 804 560 796 q 557 813 560 813 q 556 808 554 813 q 554 804 556 804 m 596 68 q 564 55 576 61 q 551 47 551 49 q 593 63 551 43 q 619 76 618 74 q 596 68 619 79 m 482 807 q 481 801 479 807 q 485 794 482 794 q 486 792 489 794 q 485 790 485 790 q 489 790 486 789 q 494 796 494 793 q 497 801 494 801 q 500 806 500 801 q 492 808 500 811 l 485 808 q 482 807 483 807 m 457 844 q 457 839 454 842 q 460 834 460 833 q 460 840 461 835 l 460 840 q 457 844 460 844 m 440 924 q 435 918 435 922 q 444 917 438 915 q 451 921 451 918 q 440 924 451 932 m 324 810 q 325 808 322 807 q 329 806 329 808 q 328 796 333 794 q 328 801 325 799 q 326 803 328 804 q 326 795 322 800 q 335 789 329 790 q 347 794 342 789 q 350 806 351 801 q 346 807 349 810 q 339 807 344 801 q 324 810 329 815 m 347 722 q 346 728 349 728 q 344 724 346 726 q 343 719 343 722 q 342 715 342 717 q 343 715 342 714 q 347 722 344 715 m 339 697 q 338 700 339 701 q 335 696 335 697 q 339 697 335 689 m 283 721 q 283 718 279 717 q 289 715 289 719 q 296 714 289 711 q 299 713 303 717 q 299 710 290 704 q 306 718 303 710 q 299 728 306 726 l 293 733 q 290 736 296 736 q 288 731 286 736 q 283 721 288 724 m 286 378 q 295 283 282 325 q 333 214 308 240 q 393 181 358 188 q 465 192 428 174 q 529 290 515 215 q 524 518 543 365 q 509 611 518 568 q 490 686 500 654 q 467 738 479 718 q 444 763 456 758 q 310 524 364 785 q 301 478 306 499 q 294 453 296 457 q 292 444 293 450 q 290 432 290 438 q 290 411 290 426 q 286 378 289 396 m 329 67 q 335 69 335 67 q 329 71 335 74 q 326 69 328 69 l 325 68 q 329 67 325 67 m 335 165 q 337 168 338 165 q 332 174 336 171 q 329 179 326 174 q 329 185 332 183 q 324 185 326 188 q 318 183 324 181 q 315 179 314 183 q 316 174 315 176 q 317 169 317 171 q 321 169 317 165 q 328 169 325 175 q 335 165 332 165 z "},"1":{"ha":532,"x_min":44,"x_max":485,"o":"m 185 554 q 187 611 186 581 q 189 660 188 642 q 175 765 192 738 q 114 785 158 793 q 63 786 81 778 q 45 810 46 794 q 60 847 44 826 q 110 885 76 867 q 131 897 121 890 q 146 907 140 904 q 178 929 158 917 q 194 940 186 933 q 208 951 203 947 q 243 974 222 967 q 300 988 264 982 q 433 976 397 1000 q 426 901 468 951 q 397 821 407 879 q 383 674 386 763 q 382 599 383 644 q 378 518 381 554 q 372 401 374 447 q 373 321 371 356 q 380 257 375 286 q 394 192 385 228 q 406 153 401 168 q 415 129 410 139 q 428 112 421 119 q 449 96 436 104 q 478 60 472 79 q 478 27 485 42 q 451 5 471 13 q 401 3 431 -3 q 349 4 394 4 q 244 4 303 4 q 154 4 185 4 q 110 6 124 4 q 94 13 96 8 q 89 25 92 17 q 91 40 88 31 q 100 58 94 49 q 113 74 106 67 q 125 82 119 81 q 145 103 133 83 q 160 138 157 122 q 164 149 163 146 q 169 183 167 154 q 172 256 171 211 q 175 324 174 281 q 179 404 176 368 q 183 484 182 440 q 185 554 185 528 m 403 75 q 400 61 400 78 q 403 46 400 43 q 407 61 407 49 q 403 75 407 75 m 414 954 q 415 951 413 949 q 418 956 418 954 q 418 957 418 956 q 414 954 417 958 m 410 938 q 407 935 407 938 l 407 932 q 411 935 408 932 q 410 938 414 938 m 121 824 q 121 829 122 828 q 113 826 118 829 q 113 825 107 824 q 118 822 118 825 q 121 824 118 821 m 272 96 q 274 96 271 99 q 285 97 279 92 q 288 107 292 101 q 286 115 283 110 q 288 119 290 119 q 289 124 285 119 q 288 132 292 126 q 278 138 285 138 q 269 135 271 139 q 264 135 268 131 q 263 133 263 138 q 265 128 263 128 q 264 125 269 128 q 263 117 260 122 q 263 114 268 111 q 258 113 257 117 q 265 106 260 110 q 269 103 269 103 q 267 96 267 103 q 267 88 267 89 q 269 86 267 86 q 269 89 272 86 l 269 89 q 271 92 267 92 q 272 96 276 92 m 292 90 q 294 90 294 89 q 292 92 294 90 q 282 93 286 96 q 275 92 278 89 l 275 88 q 282 88 278 83 q 292 90 288 90 m 293 108 q 294 114 294 108 q 292 113 292 119 q 292 108 292 110 q 293 108 293 107 m 306 417 q 309 422 308 417 q 310 451 310 428 l 310 451 q 306 487 308 474 q 301 488 304 500 q 300 476 300 481 q 297 469 300 472 q 297 465 296 465 q 303 454 301 465 q 301 436 304 443 q 301 425 297 429 q 301 419 303 421 q 306 417 301 417 m 344 678 q 340 678 342 681 q 342 672 339 675 q 346 672 344 668 q 344 678 346 678 m 333 489 l 333 510 q 332 500 332 515 q 333 489 332 483 m 331 776 q 329 772 329 775 q 333 774 333 767 q 331 776 333 779 m 297 939 q 297 935 294 935 q 303 938 300 935 q 307 939 306 940 q 314 939 310 936 q 318 947 318 942 q 317 953 318 953 q 306 947 314 953 q 297 939 299 942 m 286 633 q 283 631 283 633 q 288 628 283 628 q 290 631 293 628 q 286 633 288 633 m 278 536 q 275 535 274 539 q 290 535 278 529 q 296 543 296 540 q 297 546 293 546 q 300 551 300 546 q 292 556 300 556 q 285 553 282 556 q 282 546 285 551 q 281 539 276 543 q 278 536 283 535 m 247 275 q 248 243 244 260 q 258 231 251 226 q 260 238 261 236 q 263 238 258 239 q 269 238 268 235 q 268 239 274 242 q 264 242 264 235 q 260 255 261 249 q 261 260 260 261 q 265 267 265 256 q 265 274 268 276 q 263 274 264 274 q 260 275 261 275 q 258 276 260 275 q 256 274 253 278 q 251 272 257 268 q 247 275 247 276 m 257 169 q 254 176 260 172 q 246 178 249 181 q 243 172 240 178 q 249 172 244 168 l 251 175 q 252 169 250 171 q 257 169 254 167 m 240 246 q 239 243 239 246 q 243 240 240 240 l 244 240 l 244 243 q 240 246 244 246 m 240 29 q 233 29 238 26 q 231 26 228 35 q 228 22 233 17 q 222 24 225 25 q 222 19 219 22 q 235 17 224 17 q 253 19 246 17 q 261 25 261 22 q 257 26 261 29 q 254 31 253 25 q 253 35 254 35 q 250 32 250 35 q 247 31 250 28 q 240 29 243 31 m 218 600 q 213 582 214 614 q 210 553 211 572 q 208 515 210 535 q 206 480 206 490 q 208 468 206 469 q 216 469 211 465 q 218 475 221 472 q 221 479 217 476 q 225 493 225 483 q 222 503 225 503 q 219 508 219 500 q 221 518 218 515 q 218 522 224 522 q 217 526 213 522 q 217 533 221 531 q 217 539 214 536 q 215 557 221 543 q 217 561 214 561 q 219 569 219 561 q 222 578 219 575 q 224 585 225 581 q 226 588 222 590 q 232 589 232 585 q 226 592 232 592 q 218 600 221 592 m 204 806 q 203 803 201 804 q 208 804 204 803 q 211 807 217 807 q 204 806 207 808 m 203 361 q 199 349 201 361 q 201 336 199 336 q 203 332 206 336 q 208 335 200 329 q 215 344 215 339 q 210 351 213 351 q 206 356 206 351 q 203 361 206 360 m 194 814 q 193 808 189 810 q 199 810 196 806 q 200 817 203 814 q 199 817 199 817 q 194 814 197 817 m 186 849 q 183 847 183 851 q 186 844 183 844 q 190 846 190 844 l 189 847 q 186 849 188 849 m 183 754 q 188 747 186 746 q 188 754 190 747 q 185 764 185 763 q 183 767 185 767 q 181 764 181 767 l 182 761 q 183 758 182 758 q 183 754 183 757 z "},"2":{"ha":844,"x_min":56,"x_max":790,"o":"m 678 885 q 690 870 682 882 q 703 845 697 858 q 715 819 710 832 q 718 803 719 807 q 717 799 717 800 q 719 800 718 799 q 728 785 725 804 q 731 739 731 767 q 728 682 731 711 q 719 633 725 653 q 668 536 706 589 q 582 439 631 483 q 524 388 547 408 q 484 353 501 368 q 453 328 467 339 q 424 304 439 317 q 385 272 400 286 q 361 247 369 258 q 349 225 353 236 q 346 200 346 214 q 396 150 346 161 q 561 154 446 139 q 615 165 593 158 q 651 183 636 171 q 677 213 667 194 q 697 258 688 231 q 724 297 707 283 q 756 303 742 310 q 773 278 769 296 q 778 211 776 261 q 781 140 779 171 q 788 71 783 110 q 779 36 790 47 q 731 14 768 25 q 713 8 719 10 q 699 6 706 7 q 685 5 693 4 q 663 6 676 6 q 622 7 647 7 q 575 4 596 7 q 539 3 564 4 q 481 2 514 3 q 415 1 449 1 q 352 0 381 0 q 305 1 324 0 q 286 1 286 1 l 285 1 q 268 3 278 1 l 229 3 q 124 27 163 6 q 76 90 85 49 q 77 215 61 156 q 133 303 93 275 q 148 314 140 307 q 161 325 156 321 q 175 338 165 329 q 194 354 185 347 q 243 394 214 369 q 303 445 272 418 q 360 497 333 472 q 404 539 388 522 q 471 838 583 721 q 401 866 450 860 q 283 863 351 872 q 217 826 243 856 q 174 738 190 797 q 147 691 163 697 q 108 710 132 685 q 92 729 99 721 q 83 749 86 738 q 79 778 81 760 q 76 826 78 796 q 65 910 75 889 q 56 937 56 926 q 63 958 56 947 q 76 981 71 974 q 88 993 82 989 q 104 998 94 997 q 131 1000 114 999 q 157 1001 150 1001 q 168 997 164 1000 q 203 993 174 993 q 303 999 233 993 q 386 1001 371 1003 q 408 999 394 1000 q 433 1000 422 999 q 472 1000 451 1001 q 514 995 493 999 q 552 988 535 992 q 579 979 569 983 q 610 962 594 972 q 626 949 626 951 q 629 947 626 947 q 641 940 632 950 q 661 910 650 929 q 672 893 668 900 q 678 885 676 886 m 189 922 q 192 924 192 922 q 193 924 193 924 q 188 924 190 926 q 185 923 185 924 q 189 922 186 922 m 228 939 q 238 940 235 938 q 233 943 239 943 q 226 944 226 940 q 219 943 225 949 q 217 943 214 939 q 213 960 225 954 q 207 958 210 961 q 207 951 204 956 q 203 943 207 947 q 201 933 192 935 q 210 931 208 931 q 211 935 211 932 q 214 936 211 936 q 219 936 217 933 q 228 939 219 939 m 333 894 q 329 899 333 900 q 325 892 318 896 l 331 889 l 333 894 m 424 992 q 433 992 431 992 q 432 993 435 993 q 417 993 425 996 q 415 992 414 993 q 424 992 417 992 m 281 408 q 272 399 274 404 q 274 393 269 393 q 283 403 279 393 q 286 410 286 410 q 281 408 286 411 m 231 332 q 223 333 225 335 q 224 329 221 332 q 242 339 233 324 q 247 352 247 350 q 243 354 247 354 q 235 346 240 354 q 232 335 229 338 q 231 332 235 332 m 226 263 q 228 267 231 263 q 224 269 228 269 q 222 267 219 269 q 226 263 225 263 m 196 292 q 194 288 194 290 q 199 289 199 282 q 196 292 199 292 m 186 189 q 185 190 186 190 q 185 186 185 189 q 186 183 185 182 q 186 189 189 183 m 169 164 q 174 160 169 161 q 179 163 178 160 q 179 181 182 183 q 176 172 176 178 q 174 167 176 164 q 169 164 169 167 m 175 94 q 182 90 182 85 l 181 92 q 176 94 178 94 q 175 94 171 99 m 188 79 q 193 75 193 72 l 193 75 l 192 76 q 189 81 192 78 q 188 79 183 83 m 201 192 q 206 194 206 192 q 201 197 206 197 q 196 201 196 197 q 192 206 194 206 q 194 197 189 203 q 201 192 199 192 m 229 228 q 235 236 238 228 q 223 234 232 239 q 214 226 214 229 q 225 229 214 221 q 229 231 229 233 q 229 228 226 228 m 246 271 q 250 274 249 275 q 253 279 253 274 q 247 288 253 288 q 243 285 240 288 q 243 282 244 283 q 239 281 242 281 q 233 271 233 278 q 236 269 233 265 q 242 269 238 275 q 246 271 244 265 m 261 238 q 260 242 261 242 q 257 239 257 242 q 254 238 257 235 q 251 236 251 239 q 255 233 251 233 q 261 238 258 233 m 271 151 q 272 149 268 149 q 275 151 275 149 l 275 154 q 274 154 274 154 q 271 151 271 154 m 286 35 q 283 39 292 35 l 283 39 q 273 43 276 43 q 276 39 269 43 q 286 35 281 35 m 304 126 q 303 132 306 128 q 300 131 299 135 q 304 126 303 125 m 724 96 q 733 90 718 85 q 736 94 738 93 q 738 97 736 97 q 742 101 742 97 q 734 103 742 106 q 724 96 726 101 m 636 36 q 642 32 632 32 q 649 36 651 32 l 649 36 q 643 40 647 40 q 636 36 639 40 m 619 40 l 618 39 q 617 36 618 38 q 619 32 617 32 q 622 36 622 32 q 621 39 621 39 l 619 40 m 592 118 q 582 114 583 115 q 586 113 581 113 q 590 114 588 113 q 596 117 593 115 q 592 118 603 122 m 436 32 q 438 29 435 29 q 440 32 440 29 q 439 35 440 35 q 436 32 436 35 m 356 35 q 353 35 353 40 q 371 29 353 29 q 387 29 385 28 q 386 35 389 31 l 386 35 q 381 38 382 40 q 376 38 378 35 q 369 40 374 40 q 371 38 365 40 q 367 36 375 35 q 361 35 357 39 q 360 32 361 32 q 356 35 356 32 m 350 385 q 349 389 353 389 q 342 385 342 386 q 344 381 340 381 q 350 385 347 381 m 363 404 q 367 407 364 404 q 364 408 368 411 q 359 406 360 407 q 363 404 358 404 m 376 307 l 383 314 q 374 307 381 314 q 372 304 372 306 q 369 301 371 303 q 368 300 368 301 q 376 307 372 300 m 469 510 q 468 513 469 513 q 464 510 464 513 q 465 507 465 507 q 469 510 467 507 m 500 615 q 508 615 504 613 q 508 619 511 617 q 501 619 506 622 q 500 615 497 618 m 568 885 q 571 882 565 881 q 576 886 576 885 l 575 886 q 572 890 575 888 q 569 892 569 892 q 568 885 569 888 m 496 892 q 497 892 497 890 q 496 896 496 892 q 494 896 497 899 q 489 893 492 894 q 483 892 486 892 q 476 886 476 892 q 479 881 476 881 q 481 885 483 881 q 486 886 479 890 q 492 888 492 882 q 496 892 492 892 m 515 815 q 519 818 515 821 q 522 817 521 817 q 521 818 522 817 q 513 822 518 821 q 507 821 507 824 l 507 819 q 508 817 507 818 q 508 815 508 817 q 513 811 511 811 q 515 815 515 811 m 522 747 q 521 753 525 750 q 518 750 518 753 q 519 745 518 746 q 522 747 521 744 m 526 846 q 532 851 532 849 q 529 857 532 857 q 525 854 525 860 q 522 851 525 849 q 519 849 519 851 q 526 846 519 846 m 542 799 q 543 801 543 800 q 539 804 543 804 q 538 801 538 804 q 542 799 540 799 m 549 931 q 560 938 560 931 q 556 942 560 942 q 536 939 551 942 q 533 933 529 936 q 549 931 538 931 m 585 686 q 588 689 588 683 q 575 692 588 699 q 572 688 569 688 q 571 683 579 688 q 571 678 564 678 q 574 676 575 678 q 565 679 569 675 q 561 674 561 682 q 564 669 561 667 q 568 672 565 672 q 576 673 571 669 q 582 682 582 676 q 585 686 582 689 z "},"3":{"ha":775,"x_min":60,"x_max":731,"o":"m 564 532 q 551 519 551 526 q 564 507 551 513 q 607 476 585 496 q 649 431 629 456 q 684 379 669 406 q 704 329 699 353 q 713 222 719 274 q 684 127 707 169 q 622 54 661 85 q 531 8 583 24 q 489 3 521 6 q 421 1 457 1 q 353 1 385 0 q 314 3 322 1 q 299 5 310 4 q 279 7 289 6 q 190 17 226 11 q 128 33 153 24 q 90 57 104 43 q 69 90 76 71 q 65 128 67 99 q 64 190 64 158 q 66 250 64 222 q 72 282 68 278 q 101 303 85 297 q 132 304 117 308 q 159 287 147 300 q 172 254 171 274 q 180 223 175 232 q 201 203 185 214 q 279 172 238 179 q 378 176 321 165 q 435 197 413 182 q 467 231 458 211 q 471 272 476 250 q 442 311 465 293 q 417 330 428 322 q 390 346 406 338 q 349 365 374 354 q 282 392 324 375 q 249 404 265 399 q 226 413 233 410 q 155 442 188 424 q 115 474 122 460 q 117 521 100 503 q 176 540 135 539 q 242 549 208 540 q 305 570 275 557 q 358 601 335 583 q 393 636 381 618 q 410 665 404 653 q 421 685 417 676 q 426 703 425 694 q 429 722 428 711 q 402 803 435 771 q 314 840 369 836 q 219 824 256 844 q 149 750 182 804 q 107 699 124 710 q 74 704 90 689 q 67 712 69 708 q 65 724 65 715 q 65 751 64 733 q 69 800 67 768 q 72 835 71 815 q 72 876 72 856 q 70 914 71 896 q 67 942 69 932 q 86 993 60 982 q 128 996 90 994 q 221 998 165 997 q 341 999 276 999 q 463 998 406 999 q 563 996 521 997 q 615 993 606 994 q 708 957 686 982 q 686 914 731 932 q 668 903 672 908 q 660 876 664 897 q 657 859 658 867 q 654 842 656 851 q 652 819 653 832 q 649 783 651 806 q 643 709 646 738 q 636 661 640 681 q 626 627 632 642 q 611 593 621 613 q 588 553 600 569 q 564 532 575 536 m 650 947 q 643 942 643 947 q 651 938 646 936 q 657 944 657 939 q 650 947 657 947 m 136 917 q 138 915 133 915 q 142 915 140 914 q 142 917 143 915 l 136 917 m 113 763 q 117 771 117 769 q 113 774 117 772 q 103 760 103 775 q 113 763 103 740 m 117 924 q 132 938 124 913 q 119 944 138 951 q 117 924 106 940 m 156 867 q 154 869 158 869 q 151 867 151 869 q 153 864 151 864 l 154 864 q 155 865 154 865 q 156 867 156 865 m 179 875 q 181 881 183 879 q 176 879 176 885 q 168 878 174 876 q 160 874 160 881 q 167 871 160 871 q 179 875 175 871 m 161 882 q 175 888 165 882 q 183 896 185 893 q 178 893 181 899 q 175 892 175 888 q 168 889 175 893 q 160 888 160 883 q 151 893 160 890 q 143 899 143 896 q 142 903 146 903 q 142 906 139 903 q 139 906 143 910 q 132 904 133 903 q 130 903 129 907 q 133 892 131 899 q 143 885 138 885 q 149 881 149 886 q 151 875 149 875 q 153 882 156 875 q 154 888 150 888 q 157 885 157 888 q 161 882 157 882 m 314 900 q 328 908 326 906 q 322 914 329 910 q 303 917 306 921 q 293 915 301 915 q 273 913 282 918 q 264 901 264 908 q 267 896 263 892 q 272 896 271 900 q 283 896 272 893 q 293 896 293 899 q 314 900 293 890 m 354 914 q 353 917 356 917 q 350 914 350 917 q 351 911 350 911 l 354 914 m 394 839 q 389 847 394 842 q 381 850 383 853 q 375 851 379 849 q 371 852 371 854 q 375 847 371 850 q 388 838 382 840 q 394 839 394 835 m 360 554 q 356 551 356 550 l 357 551 q 360 550 360 550 q 365 553 365 550 q 360 554 365 557 m 304 424 q 315 422 311 421 q 317 425 319 422 q 307 431 314 431 q 299 436 301 431 q 289 442 294 442 q 281 446 283 439 q 274 449 278 450 q 263 447 271 446 q 249 450 256 447 l 251 447 q 262 441 254 444 q 279 435 269 438 q 295 428 288 432 q 304 424 303 425 m 331 418 q 329 421 333 421 q 326 418 326 421 l 326 415 q 331 418 328 415 m 344 408 q 347 410 347 410 q 344 414 347 411 q 340 413 340 414 q 344 408 340 408 m 383 479 q 382 486 386 485 q 372 482 378 490 q 361 475 368 475 q 356 472 357 475 q 357 464 354 468 q 368 460 360 460 q 379 464 376 461 q 382 472 382 467 q 383 479 378 476 m 439 585 q 442 590 442 588 q 435 592 440 592 q 433 590 431 592 q 435 586 439 590 q 439 585 435 585 m 446 779 q 450 782 450 779 q 447 785 453 785 q 443 782 443 785 q 446 779 443 779 m 110 253 q 113 257 113 253 q 110 263 113 263 q 106 258 106 265 q 110 253 106 253 m 124 254 q 136 256 136 242 q 125 261 136 269 q 121 260 122 258 q 121 265 119 261 q 118 268 121 268 q 115 264 114 268 q 124 254 117 260 m 144 201 q 144 208 149 201 q 139 222 142 214 q 135 225 138 232 q 136 210 132 219 q 144 201 140 201 m 149 193 q 152 187 149 190 q 157 185 156 183 l 156 186 q 153 190 156 188 q 149 193 149 194 m 174 161 q 168 176 175 169 q 162 182 163 182 q 160 178 161 182 q 161 171 157 171 q 163 164 165 171 q 168 153 163 153 q 174 161 171 153 m 257 111 q 254 108 254 111 q 256 106 254 106 l 258 108 q 257 111 261 111 m 244 113 q 244 118 249 114 q 232 113 232 125 q 244 113 232 101 m 256 51 q 274 53 276 42 q 265 59 272 57 q 251 58 258 61 q 256 51 246 57 m 281 47 q 283 50 283 47 q 281 56 283 53 q 278 53 278 58 q 281 47 278 47 m 285 53 q 292 48 288 49 q 296 51 296 47 q 294 54 294 54 q 289 56 290 54 q 285 53 282 58 m 403 43 l 403 51 q 396 53 400 54 q 392 50 392 53 q 389 49 392 49 q 385 49 388 51 q 388 42 383 46 q 397 39 392 39 q 403 43 401 39 m 443 104 q 449 106 449 103 q 446 111 449 111 q 435 108 442 111 q 428 101 428 104 q 432 101 428 97 q 443 104 435 104 m 564 875 q 567 878 572 875 l 560 878 q 564 875 554 875 m 501 567 q 503 572 503 567 q 500 569 500 578 q 501 566 500 567 q 501 567 501 565 m 504 864 q 507 865 510 864 q 504 869 504 868 q 501 874 506 871 q 496 872 499 875 q 496 867 493 869 q 504 864 497 864 m 508 879 q 511 874 506 874 q 517 867 515 869 q 533 871 521 851 q 536 879 539 882 q 533 881 533 879 q 522 883 533 883 q 508 879 510 882 m 546 857 q 537 851 542 857 q 533 842 532 846 q 536 844 533 836 q 544 854 540 851 q 546 857 550 857 m 522 761 q 542 757 536 763 l 547 751 q 547 756 547 753 q 546 764 546 757 q 543 776 546 776 q 536 778 539 776 q 519 775 519 782 q 517 769 519 767 q 511 765 514 769 q 512 762 510 763 q 522 761 514 761 m 533 754 q 536 760 536 756 q 532 756 535 760 q 533 754 531 751 m 668 242 q 674 238 671 232 q 678 256 678 243 q 675 270 678 265 q 669 272 672 275 q 667 259 668 271 q 668 242 665 247 m 668 311 q 666 311 667 313 q 668 307 665 310 q 669 299 668 304 q 669 292 669 294 q 672 286 669 286 q 674 297 675 286 q 668 311 671 308 m 614 161 q 610 160 613 163 q 614 156 610 156 q 620 156 617 156 q 626 154 624 156 q 633 153 629 154 q 638 153 636 153 q 642 149 642 153 q 647 144 642 142 q 656 156 651 147 l 656 156 q 658 171 660 167 q 650 169 657 175 q 647 165 644 165 q 651 165 650 165 q 650 164 651 164 q 639 165 650 163 q 629 164 629 167 q 626 165 629 163 q 619 164 625 169 q 614 161 617 158 m 575 426 q 561 422 565 426 q 564 415 557 418 q 565 413 567 413 q 565 409 563 413 q 569 406 567 406 q 571 410 574 406 q 572 411 567 414 q 581 413 575 408 q 588 422 588 417 q 575 426 588 426 m 557 238 q 554 238 556 238 q 550 239 553 239 q 546 239 547 240 q 546 231 544 238 q 543 219 547 219 q 539 213 539 219 q 533 199 539 207 q 535 192 526 193 q 551 196 544 190 l 551 196 q 557 204 557 201 q 561 210 557 210 q 561 214 565 210 q 563 217 561 217 q 563 231 567 217 q 557 238 560 238 m 549 860 q 553 864 551 860 q 550 867 556 867 q 546 864 546 867 q 549 860 546 860 m 549 875 q 547 872 544 875 l 549 871 q 550 869 549 869 q 551 872 551 869 q 549 875 551 875 m 540 951 q 554 950 550 951 q 563 951 560 949 q 564 957 567 954 q 555 960 563 960 q 539 961 547 961 q 524 960 531 961 q 515 957 517 960 q 519 950 513 950 q 528 954 528 950 q 532 954 531 958 q 540 951 535 951 z "},"4":{"ha":806,"x_min":40,"x_max":751,"o":"m 119 617 q 153 664 131 632 q 196 724 175 696 q 272 827 244 789 q 313 887 300 865 q 328 921 326 908 q 331 947 331 933 q 336 981 331 968 q 365 999 342 993 q 434 1008 389 1006 q 558 1010 479 1010 q 635 1009 607 1010 q 677 1007 663 1008 q 697 1002 692 1006 q 706 993 701 999 q 710 968 714 978 q 688 940 707 958 l 671 925 l 671 836 q 672 732 671 788 q 676 621 674 676 q 682 515 679 565 q 689 425 685 464 q 693 359 692 400 q 694 247 694 318 q 695 163 694 193 q 699 116 696 132 q 706 94 701 100 q 721 85 711 89 q 744 67 738 78 q 749 44 751 56 q 735 25 746 33 q 704 14 724 17 q 688 11 697 13 q 672 7 678 10 q 659 3 668 6 q 641 1 650 1 q 624 0 632 0 q 615 1 617 0 q 595 3 614 3 q 549 4 576 4 q 501 7 522 6 q 475 10 479 8 q 453 15 467 13 q 419 44 424 22 q 439 85 415 65 q 449 93 444 89 q 456 100 453 97 q 458 124 457 103 q 461 176 460 146 q 463 238 463 206 q 464 294 464 269 l 464 340 l 408 342 q 345 344 385 343 q 274 344 306 344 q 165 348 206 346 q 101 354 124 350 q 67 367 78 358 q 50 388 57 375 q 42 422 43 400 q 44 468 40 444 q 57 516 49 492 q 78 557 65 540 q 97 584 85 567 q 119 617 108 601 m 458 51 q 461 54 461 51 q 460 58 461 58 l 458 57 q 457 54 458 56 q 458 51 454 51 m 700 54 q 696 51 696 54 q 703 49 696 49 q 707 51 710 49 q 700 54 704 54 m 492 876 q 496 879 499 876 q 488 879 490 882 q 492 876 485 876 m 524 846 q 522 850 524 849 q 519 847 519 853 q 524 846 519 840 m 594 96 q 596 99 599 93 q 593 107 593 104 q 581 111 592 115 q 572 111 575 110 q 564 115 572 115 q 551 121 557 115 q 546 119 546 124 q 549 115 546 115 l 550 115 q 551 114 551 115 q 558 106 553 110 q 567 104 564 103 q 568 103 569 106 q 570 94 565 97 q 582 96 575 92 q 594 96 592 100 m 578 626 q 579 618 582 621 q 572 621 574 618 q 568 621 569 624 q 563 613 565 618 q 563 607 557 608 q 571 608 574 606 q 574 611 571 611 q 579 614 579 611 q 582 617 579 617 q 585 617 585 615 q 583 621 579 617 q 579 626 586 624 q 578 626 575 631 m 576 164 q 564 163 564 174 q 568 161 564 160 q 572 160 572 164 l 574 160 q 578 158 575 158 q 576 164 582 158 m 585 504 l 586 504 q 589 503 589 503 q 594 506 594 503 q 589 507 594 510 q 586 506 588 506 l 585 504 m 601 133 q 607 130 604 129 q 608 135 610 131 q 596 142 608 140 q 586 141 588 142 q 589 138 585 140 q 597 135 596 133 q 601 133 600 135 m 611 69 l 613 71 l 613 74 q 610 79 613 79 q 608 74 606 79 q 611 69 608 69 m 610 224 q 618 220 613 219 q 624 225 624 221 q 621 226 624 231 q 618 228 618 222 q 622 235 618 235 q 621 238 626 235 q 619 246 617 242 q 620 249 621 249 q 618 249 619 250 q 615 250 615 246 q 613 251 615 254 q 611 254 610 251 q 607 258 611 258 q 603 253 601 258 q 606 247 603 247 q 613 242 607 247 q 611 236 614 235 q 608 233 608 238 q 610 224 607 228 m 618 626 q 621 627 621 626 q 619 628 621 628 q 624 635 619 631 q 626 640 628 638 q 618 640 625 643 q 615 626 611 638 l 618 626 m 654 221 q 650 209 651 218 q 650 197 649 200 q 656 211 654 193 q 654 221 658 225 m 639 965 q 638 958 638 969 l 638 950 q 639 958 639 953 q 639 965 639 963 m 636 321 q 633 317 633 318 q 638 318 633 310 q 638 322 639 321 q 636 321 638 322 m 632 101 q 628 103 632 107 q 625 99 626 100 q 624 97 624 99 l 628 97 q 632 101 632 97 m 626 286 q 631 290 631 286 q 626 296 631 296 q 624 290 624 296 q 626 286 624 286 m 626 707 q 624 712 625 710 q 622 713 622 714 q 625 706 621 711 q 629 699 628 699 q 626 707 631 700 m 614 699 q 614 693 610 694 q 617 689 617 693 q 618 687 614 686 q 626 692 622 688 q 626 696 633 696 q 619 699 622 696 q 614 699 619 704 m 610 588 q 603 588 607 590 q 601 583 599 586 q 597 582 606 579 q 592 582 592 585 q 588 574 592 572 q 575 568 571 574 q 575 561 579 565 q 577 548 572 557 q 588 539 582 539 q 597 544 589 539 l 597 544 q 600 551 604 551 q 600 554 596 551 q 600 557 606 557 q 597 560 597 557 q 601 563 597 563 q 604 568 607 563 q 607 572 604 572 q 614 575 611 572 q 611 578 617 581 q 607 581 607 576 q 610 585 607 585 q 610 588 613 585 m 600 922 q 597 925 600 925 q 594 925 594 928 q 597 921 594 921 q 600 922 600 922 m 596 971 q 585 966 590 969 q 581 960 579 963 q 588 958 583 957 q 596 965 593 960 q 596 971 601 972 m 561 900 q 560 897 557 900 q 564 896 560 892 q 567 894 567 899 q 574 899 567 892 q 586 904 583 906 q 590 907 592 903 q 592 914 588 913 l 590 914 q 581 915 583 914 q 576 915 576 919 q 572 914 576 913 q 565 912 569 917 q 563 904 561 907 q 561 900 565 900 m 553 274 q 551 266 549 269 q 558 265 553 263 q 563 272 563 268 q 553 274 558 281 m 550 193 q 551 190 546 190 q 564 193 557 190 q 558 200 565 193 q 554 204 556 203 q 556 204 553 206 q 564 210 560 203 q 567 218 567 217 q 561 218 567 219 q 558 213 554 217 q 557 210 561 208 q 551 208 553 213 q 551 200 549 204 q 550 193 556 196 m 543 135 q 543 129 540 132 q 551 133 558 121 q 543 135 549 138 m 533 876 q 532 871 529 874 q 536 874 536 863 q 533 876 536 879 m 531 850 q 535 846 529 844 q 538 849 540 846 q 535 853 535 849 q 535 856 538 856 q 531 850 531 856 m 515 951 q 514 949 503 951 q 525 951 529 942 l 525 951 q 519 957 519 957 q 521 954 519 956 q 515 951 521 951 m 496 914 l 493 914 q 493 913 493 913 q 500 911 494 910 q 513 915 506 913 q 508 917 517 918 q 496 914 497 914 m 486 958 q 486 954 482 957 q 491 954 489 951 q 490 960 493 957 l 489 960 q 486 958 488 960 m 181 638 q 182 632 178 632 q 185 638 185 632 q 183 642 185 642 l 182 640 q 181 638 182 639 m 188 561 q 179 560 181 560 q 181 557 178 560 q 190 558 185 551 q 188 561 196 564 m 92 479 q 93 492 93 482 q 90 501 93 503 q 89 494 89 500 q 89 490 93 490 q 85 481 86 490 q 86 468 83 472 q 92 471 92 461 l 92 479 m 129 532 q 135 533 132 529 q 135 542 138 536 q 125 544 133 547 q 116 539 118 542 q 118 536 114 536 q 122 535 121 536 q 124 535 122 535 q 129 532 126 535 m 156 582 q 157 585 161 582 q 149 588 153 588 q 147 585 144 588 q 156 582 150 581 m 225 615 q 226 621 226 617 q 224 619 224 626 q 224 615 224 617 q 225 615 225 614 m 357 397 q 354 413 363 404 q 340 414 346 421 l 335 411 q 329 407 332 414 q 328 399 326 401 q 333 401 329 397 q 342 402 336 404 q 347 397 347 400 q 351 394 347 394 q 357 397 356 394 m 364 400 l 365 401 q 367 404 367 403 q 364 407 369 407 q 361 404 358 407 q 364 400 361 400 m 394 426 q 388 428 399 431 q 388 425 386 428 q 390 422 389 422 q 394 426 393 422 m 397 439 q 406 440 399 436 q 414 447 414 444 q 404 446 414 449 q 397 439 394 442 m 444 443 q 450 443 444 442 q 458 454 458 447 q 454 461 458 461 q 445 454 450 461 q 443 446 440 447 q 444 443 447 446 m 465 390 q 465 401 467 400 q 456 396 464 401 q 449 385 449 390 q 457 379 449 379 q 465 390 464 379 m 442 932 q 440 924 439 925 q 446 929 442 922 l 446 929 q 453 932 451 932 q 457 933 454 931 q 456 938 458 935 q 454 943 453 940 q 453 946 457 946 q 451 949 449 946 q 450 951 451 951 q 446 946 446 951 q 442 932 446 940 m 413 874 q 413 869 408 874 q 415 871 415 861 q 413 874 415 876 m 399 863 q 399 858 394 857 q 404 857 404 860 q 407 858 406 856 l 407 867 l 406 867 l 404 865 q 399 863 404 865 m 385 807 q 377 803 381 807 q 376 797 374 800 q 379 797 379 794 q 383 799 381 801 l 383 799 q 393 804 388 799 q 396 814 401 813 q 389 811 389 818 q 385 807 389 807 m 369 772 q 359 775 363 776 q 361 768 356 774 q 367 762 365 763 q 367 765 369 761 q 369 767 365 768 q 374 767 375 764 q 369 772 374 769 m 346 794 q 347 792 343 792 q 350 794 350 792 q 349 797 350 797 l 346 794 m 344 668 q 333 653 339 657 q 316 628 324 643 q 303 598 308 614 q 297 568 299 582 q 300 544 296 554 q 337 508 313 515 q 421 510 361 501 q 459 519 450 514 q 468 535 468 524 q 471 543 468 540 q 471 571 475 543 q 468 608 469 582 q 465 658 467 633 q 439 767 463 746 q 385 728 415 788 q 376 713 382 722 q 364 696 371 704 q 352 679 357 688 q 344 668 347 671 m 335 849 q 329 839 329 843 q 335 843 329 836 q 342 853 342 850 q 335 849 342 856 m 325 758 q 328 754 324 758 q 335 756 336 747 q 338 760 335 760 q 340 763 340 760 q 335 767 340 767 q 329 763 329 767 q 325 758 329 758 m 313 819 q 314 815 311 815 q 317 819 317 815 q 315 822 317 822 l 313 819 m 307 810 q 307 807 304 807 q 314 810 310 807 q 314 813 318 813 q 307 810 307 813 m 304 694 q 303 693 300 699 q 301 689 307 689 q 301 686 299 688 q 307 689 304 686 q 304 694 307 693 m 297 797 q 296 790 294 792 q 299 792 297 788 q 301 799 301 796 l 301 799 q 297 797 301 801 m 276 715 q 269 708 269 711 l 271 710 q 274 710 272 710 q 276 711 275 711 q 283 717 283 714 q 276 715 283 719 m 267 699 q 265 696 263 699 q 272 693 271 693 q 272 696 272 693 q 267 699 272 699 m 254 536 q 253 533 250 536 q 256 531 253 531 q 257 533 257 531 q 254 536 257 536 m 254 444 q 253 432 247 438 q 265 431 258 426 q 265 435 269 433 q 261 440 261 438 q 261 446 264 444 q 254 444 258 447 m 239 631 q 231 624 231 625 l 232 624 q 240 631 236 624 q 239 631 244 635 m 219 676 q 217 672 214 679 q 228 672 221 660 q 226 682 232 678 q 222 686 222 686 q 222 681 221 686 q 219 676 224 675 m 215 663 q 211 660 211 663 q 213 657 213 657 q 217 660 214 657 q 215 663 217 663 m 217 613 q 211 608 211 610 q 215 606 211 606 q 219 611 218 607 q 220 613 221 613 q 217 613 219 614 m 197 396 q 194 401 203 393 q 183 410 189 410 q 179 413 179 410 q 175 413 179 417 q 175 406 171 408 q 178 397 179 401 q 179 397 175 394 q 189 397 185 400 q 192 394 190 394 q 193 394 193 393 q 197 396 196 397 z "},"5":{"ha":878,"x_min":54,"x_max":819,"o":"m 194 11 q 114 52 139 29 q 79 119 89 75 q 78 199 71 158 q 102 272 85 239 q 145 328 119 306 q 200 353 171 350 q 236 349 219 356 q 263 331 253 342 q 274 308 272 321 q 265 282 276 294 q 248 244 250 265 q 256 203 246 224 q 285 167 265 183 q 333 143 306 151 q 442 131 390 126 q 531 156 493 135 q 592 213 569 176 q 615 297 615 250 q 540 440 615 392 q 307 490 464 488 q 292 489 303 490 q 267 485 281 488 q 242 481 254 483 q 226 476 231 478 q 190 454 213 472 q 120 453 142 414 q 114 588 99 492 q 119 625 117 606 q 122 670 121 644 q 124 729 124 696 q 125 807 125 763 q 110 881 125 846 q 64 942 94 915 q 59 965 54 950 q 79 983 64 981 q 102 989 90 986 q 117 992 114 992 q 126 992 118 992 q 144 993 133 992 q 186 994 154 994 q 254 992 218 993 q 335 991 303 990 q 403 994 367 992 q 645 990 568 1006 q 739 928 722 975 q 744 921 742 921 q 751 916 747 924 q 759 897 756 908 q 765 873 763 886 q 765 850 767 860 q 757 789 760 811 q 751 756 754 767 q 743 741 747 744 q 732 735 739 738 q 701 738 715 728 q 688 768 688 749 q 676 792 688 781 q 648 814 665 804 q 610 829 631 824 q 568 835 589 835 q 545 835 561 835 q 514 838 529 836 q 478 838 493 839 q 448 833 463 838 q 417 822 433 829 q 378 803 400 815 q 371 796 371 799 q 361 778 371 790 q 353 759 357 771 q 346 736 349 747 q 343 717 343 725 q 347 708 343 708 q 350 704 349 707 q 357 693 356 700 q 391 661 369 669 q 460 651 413 653 q 547 635 497 650 q 642 601 597 621 q 719 559 688 581 q 750 522 750 538 q 754 515 750 521 q 764 500 758 508 q 786 467 778 482 q 800 436 794 453 q 809 398 806 419 q 814 344 813 376 q 816 303 815 325 q 818 272 817 282 q 817 235 819 257 q 809 192 814 213 q 798 153 804 171 q 785 128 792 135 q 778 119 782 125 q 771 108 774 114 q 728 56 750 76 q 672 25 707 36 q 581 10 636 14 q 442 4 526 6 q 351 2 397 3 q 283 0 306 1 l 228 0 q 217 4 226 1 q 194 11 207 7 m 693 844 q 696 847 696 844 q 693 851 696 851 q 690 849 690 854 q 693 844 690 844 m 732 806 q 722 817 732 817 q 719 812 719 817 q 722 804 719 807 q 728 802 725 801 q 732 806 732 803 m 722 840 q 720 853 722 850 q 717 847 718 856 q 719 835 717 835 q 722 840 725 835 m 719 753 q 717 760 719 758 q 714 758 714 763 q 717 751 714 751 q 719 753 719 751 m 697 903 q 684 901 686 906 q 692 892 682 897 q 702 888 700 888 q 707 890 704 888 q 708 892 708 892 q 706 892 707 893 q 703 894 700 886 q 697 903 704 901 m 683 965 q 681 961 681 965 q 683 958 681 958 q 688 961 688 958 q 683 965 688 965 m 640 896 q 644 889 636 885 q 654 890 651 893 q 657 893 657 890 q 650 899 657 899 q 640 896 643 900 m 383 915 q 375 907 375 911 q 387 908 378 904 q 397 917 396 913 q 383 915 400 924 m 171 517 q 175 519 175 517 q 171 522 172 522 q 167 519 169 522 q 171 517 167 517 m 233 786 q 240 781 236 782 q 244 783 244 781 q 240 791 244 788 q 232 792 235 794 q 233 786 231 790 m 247 811 q 250 813 250 811 q 250 813 250 813 q 247 815 250 815 q 244 814 244 818 q 247 811 244 811 m 250 965 q 253 969 254 968 q 247 969 251 971 q 242 964 242 967 q 250 964 242 960 l 250 965 m 290 732 q 293 739 293 735 q 289 745 293 744 q 282 742 285 746 q 283 734 279 739 q 290 732 288 729 m 307 639 q 307 643 310 642 q 307 644 307 643 q 303 644 304 647 q 304 639 301 642 q 307 639 306 636 m 315 564 q 317 568 317 564 q 314 571 317 571 q 313 568 310 571 q 314 565 314 565 l 315 564 m 499 564 q 500 568 500 564 q 497 571 500 571 q 496 568 493 571 q 497 565 497 565 l 499 564 m 728 267 q 719 257 722 267 q 724 254 719 254 q 731 257 728 254 q 732 263 733 260 q 728 267 731 267 m 669 294 q 669 283 667 288 q 678 282 678 275 q 669 294 678 306 m 540 74 q 533 79 538 76 q 528 79 528 82 q 538 68 528 68 q 540 74 542 68 m 449 38 q 451 42 454 39 q 442 40 444 44 q 449 38 442 36 m 447 101 q 438 98 444 101 q 431 92 431 94 q 443 92 431 88 q 449 97 447 93 q 447 101 451 101 m 419 88 q 419 83 414 86 q 426 83 422 81 q 426 89 429 86 l 425 89 q 419 88 422 89 m 410 79 q 411 78 407 78 q 415 79 417 78 q 410 79 413 82 m 394 40 q 399 39 392 39 q 401 40 404 39 l 394 40 m 376 38 q 374 35 374 38 q 376 32 374 32 q 381 35 381 32 q 376 38 381 38 m 247 165 q 242 169 246 169 q 244 163 242 168 q 250 160 249 158 q 247 165 253 163 m 244 78 q 237 80 239 81 q 240 75 235 79 q 247 72 246 72 q 244 78 249 74 m 215 89 q 215 83 211 89 q 222 81 218 76 q 222 86 225 83 q 215 89 219 89 z "},"6":{"ha":799,"x_min":63,"x_max":738,"o":"m 729 63 q 736 34 738 46 q 719 16 735 22 q 675 6 704 10 q 599 3 646 3 q 565 3 586 3 q 517 2 543 3 q 463 1 492 1 q 407 0 435 0 q 305 0 342 0 q 261 1 268 0 q 249 5 254 4 q 240 7 243 6 q 229 11 238 7 q 211 22 221 15 q 188 37 201 29 q 163 50 174 44 q 81 207 81 92 q 78 229 81 214 q 74 260 76 244 q 71 282 72 272 q 69 302 69 292 q 69 326 68 313 q 69 361 69 340 q 72 439 71 393 q 72 530 72 485 q 71 610 72 575 q 68 658 69 646 q 69 750 63 704 q 92 838 75 796 q 137 916 110 879 q 199 979 164 953 q 346 1000 224 999 q 592 988 511 1001 q 692 939 672 974 q 703 913 697 929 q 714 881 710 897 q 721 850 718 864 q 722 831 724 836 q 720 816 721 828 q 718 789 719 804 q 714 747 717 764 q 707 721 711 731 q 696 706 703 711 q 678 696 689 700 q 634 699 654 686 q 617 736 614 713 q 601 781 619 753 q 556 828 582 808 q 513 846 539 840 q 456 851 486 851 q 392 845 425 851 q 331 826 360 839 q 289 792 306 815 q 266 742 272 769 q 264 688 260 715 q 286 642 268 661 q 310 622 299 629 q 335 610 321 614 q 372 603 350 606 q 426 601 393 601 q 566 578 514 600 q 650 506 618 556 q 692 437 678 463 q 713 390 707 411 q 718 344 719 368 q 713 282 717 321 q 709 156 704 218 q 729 63 714 93 m 718 42 q 715 39 715 44 q 719 38 715 32 q 718 42 719 42 m 651 400 q 654 396 651 382 q 654 407 658 403 q 651 400 651 415 m 701 68 q 697 64 697 68 q 703 58 697 58 q 707 64 708 58 q 701 68 703 68 m 672 132 q 669 128 669 132 q 672 126 669 124 q 675 132 675 129 q 672 132 675 135 m 663 389 q 657 389 660 392 q 654 383 654 386 q 656 382 654 382 q 658 385 657 382 q 661 388 661 388 q 663 389 663 388 m 644 436 q 644 422 636 425 q 649 417 649 421 q 646 415 649 413 q 644 410 644 417 q 649 411 647 403 q 654 415 651 418 q 657 418 657 413 q 653 422 657 422 q 649 425 649 421 q 644 436 650 440 m 671 871 q 671 875 675 871 q 665 881 668 881 q 667 875 661 881 l 671 871 m 665 892 q 663 889 661 896 q 667 883 664 885 q 669 886 669 882 q 665 892 669 890 m 654 714 q 644 718 647 718 q 647 713 640 718 q 652 710 650 711 q 657 708 654 708 q 659 710 660 708 q 654 713 658 711 l 654 714 m 550 897 q 549 890 547 894 q 557 886 551 886 q 554 889 560 886 q 551 896 550 894 q 552 898 553 897 q 550 897 551 899 m 500 904 q 499 900 500 901 l 500 900 q 504 899 504 900 q 507 897 504 894 q 506 903 510 899 q 500 907 503 907 q 500 904 497 907 m 465 908 q 463 906 463 911 q 467 904 463 899 q 465 908 467 907 m 381 932 q 379 928 375 932 q 383 929 383 922 q 381 932 383 935 m 357 918 q 356 912 354 915 q 363 907 357 908 l 368 904 q 367 907 368 906 q 369 910 367 910 q 369 913 375 910 q 363 914 365 917 q 360 917 360 914 q 357 918 360 921 m 344 904 q 340 901 343 904 q 339 900 339 901 q 344 904 339 893 m 332 910 q 332 907 326 910 q 338 907 339 904 q 332 910 335 910 m 310 957 q 308 953 304 953 q 313 956 313 953 q 310 957 314 957 m 296 869 q 293 868 293 872 q 296 865 293 865 q 300 867 300 865 l 299 868 q 296 869 297 869 m 290 886 q 288 883 288 886 q 289 881 288 881 l 290 882 q 292 883 292 883 q 290 886 294 886 m 165 885 q 164 874 154 874 q 172 883 169 874 q 165 885 179 900 m 156 454 q 157 458 161 454 q 151 456 156 460 q 153 447 147 447 q 154 450 154 447 q 156 454 153 451 m 160 432 q 154 429 157 432 q 156 428 151 426 q 160 432 161 431 m 150 406 q 147 404 146 408 q 151 400 150 400 q 150 406 154 403 m 110 593 q 107 586 107 590 q 110 582 107 582 q 113 589 113 582 l 113 589 q 110 593 113 596 m 110 565 q 107 560 107 565 q 110 557 107 554 q 113 563 113 560 q 110 565 113 568 m 108 519 q 107 522 111 522 q 104 519 104 522 q 106 517 104 517 l 108 519 m 111 549 q 106 542 104 549 q 115 535 108 536 l 115 536 q 113 540 115 538 q 113 547 110 544 q 111 549 113 549 m 118 600 q 119 597 115 597 q 121 594 121 597 q 122 592 118 592 q 124 597 126 592 q 118 600 124 611 m 128 103 l 126 106 q 124 113 126 107 l 124 113 q 121 111 111 133 q 128 103 126 101 m 160 269 q 165 275 167 269 q 156 281 163 281 q 137 278 143 282 q 135 268 131 275 q 138 258 144 254 q 135 253 135 261 q 139 242 136 244 q 142 242 143 239 q 144 246 140 246 q 149 249 149 246 q 153 258 147 251 q 163 264 158 264 q 161 267 164 264 q 160 269 156 269 m 153 631 q 164 633 158 628 q 169 644 169 638 q 163 650 169 651 q 150 639 156 649 q 153 631 146 635 m 165 832 q 176 832 176 828 q 174 838 176 835 q 171 839 171 842 q 164 836 171 833 q 158 837 157 839 q 165 832 158 835 m 188 832 q 186 833 190 838 q 182 835 182 833 q 181 838 182 839 q 180 833 179 836 q 183 829 181 829 q 188 832 185 829 m 200 783 q 203 785 203 783 q 200 788 203 786 q 195 789 197 790 q 196 785 193 788 q 200 783 197 781 m 217 847 q 218 850 218 847 q 215 853 218 853 q 214 850 211 853 l 217 847 m 231 753 q 233 757 233 756 q 231 760 233 760 q 228 756 228 760 q 231 753 228 750 m 250 210 q 247 218 253 210 q 240 226 242 228 q 243 217 239 225 q 250 210 247 210 m 258 874 q 251 877 256 878 q 244 871 247 876 q 244 867 243 865 q 249 865 249 869 q 254 865 249 864 q 258 874 260 871 m 576 463 q 563 465 572 467 q 547 456 554 463 q 538 449 539 450 q 538 447 533 447 q 543 444 543 447 q 540 443 543 440 q 535 440 536 446 q 539 429 535 433 q 549 426 549 417 q 554 425 549 431 q 562 424 558 422 q 574 435 565 426 q 582 444 579 440 q 583 446 585 447 q 581 449 581 444 q 583 452 582 451 q 585 451 585 453 q 587 451 586 450 q 586 456 588 453 q 582 460 585 463 q 576 463 579 460 m 564 196 q 572 192 568 192 q 572 196 575 192 q 572 198 572 197 q 571 200 571 199 q 571 201 571 200 q 565 201 571 204 q 564 196 563 200 m 549 349 q 551 338 554 346 q 551 326 549 329 q 554 329 557 318 q 556 338 554 336 q 550 351 558 350 q 549 349 544 356 m 546 394 q 544 405 546 406 q 543 393 543 404 q 540 385 543 385 q 539 382 539 386 q 542 381 539 379 q 546 394 546 385 m 474 517 q 479 515 469 513 q 479 519 485 518 q 481 522 474 522 q 488 526 486 522 q 488 531 488 531 l 482 533 q 478 532 476 535 q 476 524 481 528 q 476 519 475 519 q 474 517 479 519 m 357 515 q 354 514 354 515 q 357 510 354 510 q 360 511 360 511 q 357 515 360 513 m 296 529 q 293 526 290 532 q 299 522 294 522 q 301 525 304 522 q 296 529 301 529 m 267 113 q 272 117 279 106 q 267 118 268 122 q 267 113 264 115 m 285 122 q 288 125 288 122 q 286 128 288 128 l 285 126 q 283 125 283 126 q 285 122 281 122 m 282 517 q 289 511 282 511 q 292 515 292 511 q 286 519 290 518 q 282 517 282 519 m 292 56 q 300 53 294 53 q 304 57 306 53 q 299 62 301 61 q 296 58 296 63 q 293 57 296 57 q 292 56 290 58 m 314 128 q 315 136 317 136 q 311 138 311 132 q 304 142 307 142 q 301 140 300 142 q 306 139 303 136 q 308 138 308 142 q 311 129 308 135 q 308 126 313 124 q 307 125 306 128 q 306 117 308 124 q 303 113 303 114 q 307 115 304 113 q 310 117 310 115 q 311 117 311 117 l 314 128 m 421 133 q 415 120 415 131 q 419 113 414 110 q 426 115 425 115 l 426 115 q 433 120 429 115 q 435 125 438 125 q 435 131 431 125 q 432 133 439 135 q 426 133 426 131 q 421 133 426 139 m 438 67 q 435 65 435 67 q 438 63 435 63 l 440 63 q 438 67 440 64 m 443 46 q 441 56 446 53 q 432 53 436 58 q 426 50 426 47 q 422 51 426 54 q 419 44 419 49 q 430 40 419 40 q 443 46 440 40 m 472 74 q 471 75 474 76 q 468 78 468 75 q 465 76 468 82 q 464 68 461 72 q 467 65 467 64 q 465 69 468 65 q 467 72 465 74 q 472 74 472 72 m 418 203 q 472 247 451 219 q 500 303 493 275 q 498 357 507 332 q 463 393 489 382 q 303 329 357 438 q 294 274 289 303 q 319 226 300 246 q 365 198 338 206 q 418 203 392 190 m 514 76 q 518 74 517 74 q 517 78 519 75 q 514 82 517 82 q 514 76 514 82 m 526 468 q 532 468 525 465 q 542 472 539 472 q 545 478 544 472 q 543 483 546 483 q 543 488 542 483 q 538 486 546 494 q 533 478 531 479 q 535 472 538 475 q 529 476 532 472 q 525 483 529 483 q 525 476 522 483 q 526 468 528 469 m 576 132 q 583 134 579 129 q 585 142 588 139 q 574 144 581 144 q 568 142 568 144 q 564 139 568 139 q 561 135 560 139 q 557 132 563 131 q 554 131 553 135 q 550 128 554 128 q 551 125 546 128 q 549 121 557 122 q 543 117 539 121 q 539 113 543 113 q 535 110 535 113 q 538 107 535 107 q 539 103 539 107 q 543 100 535 96 q 549 101 547 101 q 547 99 550 100 q 551 99 546 94 q 558 104 558 101 q 558 115 557 110 q 561 118 558 119 q 563 122 563 117 q 571 128 561 129 q 574 131 574 128 q 576 132 574 135 m 582 385 q 586 383 582 379 q 592 385 592 386 q 596 388 593 385 q 593 394 596 393 q 589 393 590 397 q 583 390 589 390 q 582 385 579 390 m 588 306 q 594 299 592 299 q 597 298 596 299 q 599 297 597 297 q 600 297 599 297 l 599 300 q 603 306 599 304 q 604 314 610 308 q 597 315 601 317 q 592 311 592 314 q 589 310 592 307 q 587 310 588 311 q 588 306 586 308 z "},"7":{"ha":833,"x_min":43,"x_max":779,"o":"m 760 929 q 713 808 779 883 q 702 794 708 804 q 690 775 696 785 q 678 756 685 767 q 668 739 672 746 q 653 713 664 733 q 631 667 643 692 q 607 619 618 643 q 592 585 596 596 q 583 565 589 578 q 574 542 578 553 q 553 486 565 525 q 515 367 540 447 q 504 319 510 347 q 493 263 499 292 q 488 244 492 257 q 481 218 485 232 q 472 131 467 174 q 500 67 478 88 q 517 28 519 47 q 490 8 514 8 q 479 8 486 8 q 465 6 472 7 q 441 3 458 3 q 385 6 424 3 q 301 6 319 10 q 280 3 293 4 q 253 1 267 3 q 228 0 239 0 q 218 1 218 0 q 203 4 217 1 q 176 15 188 7 q 161 35 165 24 q 160 59 157 47 q 175 81 163 71 q 193 95 186 89 q 206 108 200 101 q 217 126 211 115 q 231 153 222 136 q 299 308 279 246 q 313 347 304 324 q 331 389 322 369 q 348 430 339 407 q 361 468 357 453 q 373 508 365 483 q 388 554 381 533 q 417 645 407 613 q 430 695 426 678 q 431 721 433 713 q 424 739 429 729 q 388 772 413 760 q 317 789 363 783 q 201 777 239 797 q 156 701 164 757 q 138 663 151 674 q 109 656 125 651 q 79 678 93 660 q 61 726 65 696 q 59 757 60 733 q 57 808 58 781 q 54 859 56 836 q 51 889 53 882 q 49 941 43 922 q 92 969 56 960 q 207 979 129 978 q 419 978 285 981 q 474 977 447 978 q 525 976 501 976 q 567 977 549 976 q 594 978 585 978 q 667 980 639 981 q 714 974 696 979 q 742 958 732 969 q 760 929 751 947 m 101 839 q 110 837 104 833 q 114 847 115 840 q 106 861 114 850 q 97 859 99 868 q 101 839 94 850 m 240 906 q 240 901 236 904 q 249 904 254 897 q 240 906 243 907 m 132 894 q 132 900 138 899 q 131 901 128 900 q 128 906 135 906 q 121 896 118 910 q 132 894 122 888 m 139 832 q 151 832 142 829 q 161 838 161 835 q 149 847 161 840 q 139 851 138 853 q 140 840 143 847 q 139 832 138 833 m 168 808 q 168 813 171 813 q 158 814 163 813 q 153 813 153 814 q 153 810 154 810 q 150 801 150 810 q 157 797 150 794 q 163 806 164 803 l 163 806 q 162 808 161 807 q 164 807 163 808 q 168 808 167 807 m 168 818 q 172 819 171 818 q 172 819 174 819 q 167 819 169 822 q 165 819 164 819 q 168 818 165 818 m 182 863 q 188 871 188 864 q 178 876 188 886 q 173 865 171 869 q 182 863 175 860 m 200 908 q 196 917 207 917 q 185 911 174 919 q 188 900 188 906 q 193 896 188 894 q 196 899 196 896 q 200 908 194 900 m 256 849 q 257 856 261 854 q 236 856 251 858 q 221 850 221 853 q 234 842 221 842 q 256 849 247 842 m 289 915 l 289 921 q 276 924 292 935 q 278 917 267 919 q 282 916 281 917 q 286 915 283 915 q 289 915 288 915 m 404 860 q 407 865 410 863 q 400 864 406 867 q 393 861 397 857 q 383 857 383 861 q 388 856 383 851 q 394 851 392 858 q 397 851 397 843 q 404 860 399 854 m 414 849 q 417 851 417 849 q 414 854 417 854 q 411 851 411 854 q 414 849 411 849 m 297 67 q 300 69 303 67 q 296 72 300 72 q 293 69 293 72 q 297 67 293 67 m 303 183 q 307 181 303 178 l 310 186 q 317 197 310 188 q 318 210 325 206 q 315 208 311 213 q 313 204 318 204 q 303 183 303 207 m 326 156 q 314 157 333 176 q 310 142 299 142 q 315 138 311 142 q 317 140 315 136 q 321 147 317 147 q 326 156 321 147 m 347 294 q 356 310 356 301 q 351 319 356 319 q 342 307 346 318 q 338 299 339 303 q 336 292 338 294 q 338 288 333 288 q 347 294 342 289 m 389 324 q 393 324 389 322 q 396 328 396 324 q 393 329 396 332 q 389 324 389 328 m 401 267 q 404 265 401 261 q 407 275 407 268 q 404 275 406 276 q 401 267 401 272 m 394 285 q 401 283 396 283 q 407 285 407 283 q 401 291 407 289 q 394 290 396 293 q 394 285 393 286 m 417 367 q 417 375 419 371 q 408 379 414 379 q 400 366 404 379 q 399 349 396 353 q 407 347 403 346 q 411 353 411 347 q 414 358 411 358 q 415 360 417 358 q 417 367 415 364 m 486 901 q 477 901 478 901 q 481 893 476 900 q 486 888 483 888 q 492 896 489 889 q 486 901 496 901 m 486 719 q 489 728 490 726 q 488 731 485 728 q 488 738 488 731 q 483 735 485 740 q 481 721 481 729 q 481 716 479 717 q 486 719 483 715 m 494 810 q 499 815 500 810 q 490 822 497 821 q 483 817 483 822 q 485 807 483 811 q 488 806 486 803 q 494 810 492 810 m 510 865 q 528 867 526 858 q 524 872 528 872 q 519 875 519 872 q 513 876 519 879 q 510 865 493 872 m 532 599 q 539 599 535 594 q 543 610 543 603 q 540 617 543 617 q 538 608 536 617 q 533 604 538 607 q 532 599 531 601 m 567 654 q 565 657 572 660 q 561 653 561 653 q 567 654 561 647 m 658 919 q 651 913 642 924 q 663 913 656 906 q 658 919 668 918 m 657 851 q 656 857 657 856 q 651 857 653 860 q 653 851 650 854 q 657 851 656 847 m 608 792 q 613 794 613 792 q 611 797 611 797 q 608 794 608 797 q 608 792 607 792 m 615 739 q 618 744 618 739 q 615 749 618 749 q 613 743 613 749 q 615 739 613 736 m 615 906 q 622 911 624 906 q 611 915 619 922 q 607 908 606 911 q 615 906 608 906 m 642 811 q 647 810 643 808 q 651 815 651 813 q 647 823 651 818 q 642 825 642 828 q 640 817 642 819 q 642 811 640 813 m 649 833 q 654 832 653 831 q 651 836 656 833 q 647 838 650 838 q 646 838 647 838 q 649 833 644 836 m 663 833 q 663 842 669 838 q 653 843 656 844 q 656 838 650 842 q 658 832 661 835 q 663 833 654 828 m 683 889 q 686 892 688 886 q 683 896 683 896 q 675 893 682 896 q 669 886 669 890 q 670 884 669 883 q 671 888 671 885 q 676 888 672 892 q 678 886 678 883 q 683 889 678 889 m 728 889 q 725 890 729 893 q 724 885 718 885 q 728 889 726 885 z "},"8":{"ha":867,"x_min":32,"x_max":836,"o":"m 807 18 q 654 8 797 8 q 550 8 606 8 q 445 6 494 7 q 360 3 396 4 q 315 0 324 1 q 305 0 311 0 q 293 1 299 0 q 144 96 189 22 q 130 125 133 115 q 124 156 126 135 q 121 181 122 167 q 117 207 119 196 q 113 288 108 247 q 131 366 117 329 q 169 432 146 403 q 224 478 193 461 q 235 487 235 485 q 226 492 235 489 q 154 558 178 511 q 126 689 131 606 q 124 731 125 714 q 123 760 124 747 q 121 786 122 774 q 117 815 119 799 q 113 843 114 833 q 108 859 111 853 q 101 871 106 865 q 88 885 96 876 q 61 975 32 946 q 224 985 71 985 q 325 985 282 985 q 400 988 368 986 q 456 991 432 989 q 500 996 479 993 q 531 1001 519 999 q 550 1003 542 1003 q 565 1002 558 1003 q 582 999 572 1001 q 704 933 669 983 q 733 782 739 882 q 731 738 732 767 q 731 685 731 710 q 726 626 731 651 q 712 580 722 600 q 685 544 701 560 q 644 515 668 529 q 633 506 633 508 q 642 501 632 504 q 714 434 690 482 q 740 303 738 386 q 743 262 742 278 q 745 233 744 246 q 748 207 746 219 q 751 178 750 194 q 756 150 754 160 q 760 134 757 140 q 767 122 763 128 q 781 108 772 117 q 807 18 836 47 m 135 293 q 135 300 139 297 q 134 301 135 303 q 133 296 133 299 q 134 292 133 293 q 135 293 135 290 m 719 76 q 715 72 714 74 q 721 69 715 69 q 726 74 726 69 q 727 79 728 79 q 719 76 726 79 m 708 101 q 703 100 707 104 q 700 97 703 97 q 699 96 700 96 q 694 93 697 97 q 699 89 693 89 q 704 93 704 89 q 708 97 704 97 q 708 101 713 97 m 690 131 q 686 129 690 128 q 683 124 683 132 q 681 114 683 117 q 681 106 678 114 q 683 103 681 100 q 688 107 683 107 l 688 107 q 696 113 690 107 q 700 119 701 118 q 701 122 697 122 q 701 128 706 122 q 694 134 699 133 q 690 131 690 135 m 674 246 q 672 244 672 249 q 674 240 672 239 q 674 246 675 242 m 676 190 q 672 181 674 189 q 674 169 671 172 q 682 172 678 165 q 686 190 686 179 q 685 203 686 201 q 682 203 685 206 q 679 196 679 200 q 676 190 681 193 m 669 58 q 665 57 665 58 q 672 53 664 56 q 681 54 681 53 l 679 57 q 676 64 679 58 q 672 64 672 69 q 669 58 674 56 m 639 339 q 633 334 633 338 q 636 328 632 331 q 639 318 639 325 q 642 313 639 313 q 642 324 644 315 q 644 333 639 332 q 646 335 647 333 q 643 339 639 335 q 643 340 644 340 q 639 339 642 340 m 654 700 q 654 701 657 700 l 654 701 q 653 706 650 703 q 653 711 657 707 q 650 700 646 717 l 654 700 m 650 793 q 650 789 646 793 q 650 783 653 785 q 654 781 644 781 q 662 782 661 781 q 661 789 663 783 l 661 789 q 656 803 658 800 q 654 800 654 807 q 650 793 654 793 m 650 618 q 646 621 654 621 q 636 618 636 621 q 629 617 636 617 q 624 615 624 619 q 621 614 624 611 q 618 613 618 617 q 614 610 618 610 q 611 608 613 610 q 607 606 610 607 q 614 601 600 599 q 638 610 628 603 q 639 617 642 611 q 642 617 639 618 q 650 618 647 617 m 613 649 l 615 646 q 619 649 617 646 q 615 651 619 651 q 613 649 613 651 m 628 671 q 632 667 624 667 q 638 669 640 667 q 634 671 635 669 q 632 672 633 672 q 631 674 632 674 q 628 671 629 674 m 635 742 q 636 739 631 742 q 640 739 642 735 q 635 742 638 742 m 615 732 q 607 731 613 736 q 608 724 601 728 q 619 726 615 722 q 626 729 626 733 q 619 722 626 725 q 617 717 614 721 q 617 710 619 713 q 611 710 615 707 q 610 710 608 711 q 608 704 611 707 q 607 700 603 704 q 613 700 611 696 q 618 704 615 704 q 616 696 621 701 q 608 693 611 690 q 607 689 607 693 q 613 686 610 686 q 615 690 617 689 q 617 693 615 693 q 626 699 619 693 q 632 708 632 706 q 636 710 632 714 q 636 711 639 708 q 632 723 633 717 q 633 729 631 729 q 634 731 638 729 q 625 735 631 733 q 618 732 618 738 q 615 732 618 726 m 603 839 q 600 835 600 839 q 603 833 600 831 q 606 839 606 836 q 603 839 606 842 m 588 832 q 581 825 581 829 q 589 821 582 821 q 596 824 596 821 q 588 832 596 836 m 589 336 q 588 342 590 336 q 585 346 588 343 q 583 347 585 346 q 585 342 579 347 q 586 340 586 340 q 588 338 586 339 q 589 336 588 338 m 560 789 q 556 791 556 792 q 560 782 556 790 q 565 772 563 778 q 569 763 567 765 q 572 757 572 757 q 574 754 572 756 q 571 769 576 757 q 560 789 565 785 m 565 446 q 567 467 571 461 q 556 464 564 472 q 554 458 550 458 q 557 449 557 458 q 560 438 557 439 q 565 446 563 438 m 482 938 q 478 931 479 938 q 479 922 476 925 q 487 919 485 919 q 492 925 489 919 q 492 932 494 932 q 497 938 489 932 l 501 942 q 493 946 497 942 q 486 944 488 950 q 482 938 483 938 m 446 939 q 446 932 443 936 q 450 935 451 926 q 446 939 449 939 m 440 919 q 438 915 438 919 q 440 911 438 911 q 443 917 443 914 q 440 919 443 919 m 353 903 q 358 897 353 896 q 365 903 365 900 q 369 910 365 908 q 372 917 375 915 q 374 919 369 919 q 371 922 379 919 q 358 914 357 929 q 357 908 358 907 q 353 903 354 908 m 519 797 q 442 826 483 822 q 367 818 400 831 q 315 780 333 806 q 307 718 297 754 q 311 704 310 714 q 315 686 313 694 q 334 642 319 661 q 368 611 349 622 q 412 597 388 600 q 460 603 436 594 q 522 640 497 615 q 555 694 546 665 q 556 751 564 722 q 519 797 547 779 m 503 443 q 494 446 500 446 q 490 443 488 446 q 497 440 490 440 q 503 443 503 440 m 488 553 q 492 553 489 549 q 497 557 494 557 l 497 557 q 501 558 499 556 q 501 562 504 561 q 493 560 499 563 q 488 553 488 557 m 478 553 q 476 556 481 556 q 474 553 474 556 q 475 549 474 549 l 476 550 q 478 553 478 551 m 394 440 q 393 444 394 444 l 392 443 q 390 440 392 442 q 392 438 388 438 q 394 440 394 438 m 367 435 q 367 432 364 432 q 378 435 371 432 q 381 440 382 438 q 375 439 378 443 q 371 436 375 432 q 367 435 367 440 m 369 553 q 368 549 363 553 q 376 546 372 546 q 378 549 381 546 q 369 553 378 553 m 271 932 q 275 924 267 932 q 286 921 281 918 q 290 922 288 926 q 292 925 292 919 q 293 931 293 928 q 294 935 293 933 q 290 939 294 939 q 285 936 285 939 q 281 932 285 935 l 271 932 m 281 772 q 272 755 275 765 q 271 744 268 744 l 279 761 q 287 780 286 776 q 281 772 288 783 m 285 646 q 283 651 286 646 q 281 656 283 653 q 279 657 281 656 q 281 651 278 657 q 282 649 282 650 q 283 647 282 649 q 285 646 283 647 m 269 574 q 271 571 269 571 q 275 574 275 571 q 274 576 274 576 q 269 574 272 576 m 261 896 q 263 892 260 892 q 265 896 265 892 q 264 899 265 899 l 261 896 m 236 803 q 232 794 232 796 q 235 789 232 792 q 243 789 249 783 q 247 797 243 792 q 247 808 261 808 q 242 811 242 808 q 236 803 242 817 m 222 728 q 224 721 222 721 q 226 728 226 721 q 225 736 226 736 l 222 728 m 222 708 q 224 706 219 706 q 226 708 226 706 q 225 711 226 711 q 222 708 222 711 m 224 700 q 221 701 221 706 q 226 694 221 692 q 224 700 226 699 m 146 915 q 151 922 151 918 q 147 925 151 925 q 142 919 142 925 q 146 915 139 911 m 158 892 q 165 893 160 888 q 168 896 168 896 q 169 897 168 897 q 174 900 171 896 q 169 904 176 904 q 163 900 163 904 q 160 896 163 896 q 158 892 158 896 m 178 863 q 182 864 178 864 q 184 863 183 863 q 183 864 185 863 q 185 875 182 865 q 188 888 190 883 q 185 890 185 896 q 181 886 185 886 q 171 881 176 886 q 168 874 165 875 q 167 871 171 871 q 167 865 163 871 q 174 859 169 860 q 178 863 178 858 m 194 746 q 196 751 196 747 q 193 750 193 757 q 194 746 193 747 q 194 746 194 744 m 192 803 q 196 813 194 804 q 194 824 197 821 q 185 821 190 828 q 181 803 181 814 q 186 790 181 785 q 189 797 189 793 q 192 803 188 800 m 200 935 q 196 940 206 939 q 189 933 182 940 q 200 935 193 929 m 225 589 q 225 599 228 597 q 217 601 219 606 q 218 588 214 596 q 222 583 221 583 q 225 589 222 583 m 229 654 q 233 660 236 654 q 231 674 231 665 q 226 681 228 681 q 226 669 224 678 q 224 660 228 661 q 222 658 221 660 q 225 654 225 658 q 225 653 224 653 q 229 654 226 653 m 233 769 q 235 774 233 772 q 235 775 235 774 q 236 781 239 775 q 231 788 233 788 q 228 783 224 788 q 226 774 228 776 q 225 765 222 769 q 231 764 228 763 q 233 769 233 765 m 214 293 q 214 290 211 293 q 215 288 218 288 q 214 283 210 288 q 219 285 222 274 q 214 293 217 292 m 217 208 q 221 208 221 204 q 213 213 221 213 q 206 210 206 213 q 211 193 206 208 q 214 193 213 188 q 218 200 214 200 q 217 206 222 200 q 217 208 211 211 m 218 375 q 215 372 215 372 q 222 372 215 372 q 232 375 232 372 q 239 376 232 376 q 244 378 244 374 q 247 379 244 382 q 250 381 250 376 q 254 383 250 383 q 262 388 260 383 q 260 393 264 392 q 240 389 253 396 q 229 378 228 382 q 226 376 229 374 q 218 375 221 376 m 257 344 q 254 347 257 347 q 249 344 251 347 q 251 342 246 342 q 257 344 257 342 m 238 319 q 243 324 242 324 l 243 324 q 235 326 246 326 q 229 326 231 326 q 231 325 228 325 q 235 319 235 324 q 238 319 235 317 m 232 340 q 239 344 232 335 q 241 347 242 347 q 238 344 240 347 q 233 342 236 344 q 232 340 233 342 m 228 254 q 232 251 229 251 q 235 253 235 250 l 233 254 q 231 256 232 256 q 227 256 228 257 q 228 254 226 256 m 250 261 q 253 261 250 267 q 260 263 256 256 q 260 269 267 267 q 247 267 254 271 q 242 264 242 260 q 247 271 242 268 q 251 276 254 272 q 251 283 249 281 q 257 282 253 285 q 258 283 260 282 q 260 289 257 286 q 260 293 264 289 q 254 293 257 297 q 253 289 254 290 q 250 289 251 288 q 252 297 247 290 q 260 300 257 303 q 261 304 261 300 q 256 307 261 310 q 251 303 251 306 q 250 300 253 300 q 242 293 246 300 q 235 285 235 289 q 232 283 235 281 q 231 281 229 285 q 236 270 235 276 q 235 264 238 264 q 233 261 231 264 q 243 258 236 258 q 250 261 250 258 m 257 32 q 261 32 263 28 q 256 35 258 35 q 257 32 251 35 m 265 154 q 268 158 268 154 q 265 160 268 163 q 263 154 263 157 q 265 154 263 151 m 271 553 q 274 563 275 558 q 267 565 272 568 q 264 560 261 563 q 260 553 264 556 q 261 544 254 550 q 268 544 269 538 q 271 553 265 547 m 274 161 q 281 161 275 157 q 286 168 286 165 q 279 172 286 172 q 274 161 272 171 m 292 850 q 290 853 292 853 q 286 850 286 853 q 288 847 288 847 q 292 850 289 847 m 292 908 q 296 901 289 904 q 299 894 303 899 q 297 892 293 892 q 307 897 301 893 q 311 900 310 899 q 311 901 313 901 q 310 906 306 901 q 310 913 314 910 q 299 914 299 918 q 299 906 300 908 q 296 907 299 904 q 292 908 294 911 m 306 208 q 312 201 311 200 q 307 211 313 201 q 299 231 301 222 q 293 239 297 239 q 296 226 292 236 q 306 208 300 215 m 314 529 q 314 535 318 535 q 311 544 311 535 q 308 555 311 554 q 303 547 306 556 q 301 526 297 532 q 314 529 306 519 m 388 57 q 386 72 396 68 q 375 64 378 75 q 369 54 375 60 q 366 51 367 51 q 367 51 365 50 q 374 49 372 51 q 380 46 376 46 q 383 50 383 46 q 388 57 383 56 m 418 58 q 424 56 419 50 q 421 61 424 58 q 418 58 417 64 m 428 74 q 431 78 431 74 q 428 82 431 82 q 425 76 425 79 q 428 74 425 74 m 511 83 q 514 90 514 83 q 511 100 514 97 q 509 101 510 101 q 510 99 508 100 q 508 94 513 94 q 503 90 503 94 q 499 83 503 86 q 496 76 494 79 q 493 74 499 74 q 503 68 490 74 l 504 68 q 507 69 506 69 q 510 76 513 72 q 511 83 510 83 m 481 182 q 541 225 522 193 q 556 292 560 257 q 527 358 551 328 q 458 396 503 388 q 412 392 435 400 q 371 366 389 383 q 342 325 353 349 q 331 275 331 301 q 347 217 331 246 q 383 181 364 188 q 401 178 388 179 q 431 178 415 178 q 460 179 446 178 q 481 182 475 181 m 572 86 q 576 85 572 83 q 574 90 579 88 q 571 97 569 96 q 569 101 574 101 q 558 96 564 100 q 557 92 554 92 q 558 88 561 92 q 557 81 556 85 q 565 77 560 78 q 568 79 569 76 q 569 86 567 81 q 572 86 572 89 m 590 61 q 598 63 597 61 q 592 71 599 64 q 582 72 583 78 q 578 71 581 68 q 575 69 575 76 q 574 58 575 60 q 578 54 572 54 q 583 57 583 54 q 590 61 583 58 m 596 239 q 597 249 599 249 q 594 244 597 249 q 589 233 592 239 q 584 220 586 226 q 582 213 582 214 q 588 221 582 210 q 596 239 594 232 m 608 100 q 607 103 614 106 q 603 97 603 101 q 608 100 603 93 m 607 440 q 606 450 618 443 q 600 450 599 454 q 597 440 603 446 q 596 429 593 433 q 596 422 600 422 q 593 419 593 422 q 597 419 593 415 q 600 426 603 425 q 603 429 600 429 q 604 433 607 429 q 607 440 601 438 m 632 190 q 636 199 636 197 q 633 204 636 201 q 625 204 619 210 q 621 196 625 203 q 621 185 607 185 q 626 182 626 185 q 632 190 626 176 m 642 211 l 642 222 q 639 229 644 229 q 635 224 635 229 q 632 218 635 218 q 632 213 629 218 q 638 206 633 206 q 642 211 642 206 m 646 265 q 644 272 646 272 q 642 265 642 272 q 643 257 642 257 l 646 265 m 646 285 q 644 288 649 288 q 642 285 642 288 q 643 282 642 282 l 646 285 m 647 292 q 644 297 650 294 l 644 297 q 642 297 642 300 q 647 292 642 289 m 643 394 q 650 392 646 392 q 654 396 654 393 q 650 406 654 403 q 643 404 646 410 q 643 394 639 397 z "},"9":{"ha":843,"x_min":57,"x_max":793,"o":"m 710 361 q 694 145 725 226 q 583 26 664 64 q 547 11 563 17 q 511 3 532 6 q 460 0 490 0 q 381 1 431 0 q 185 19 247 6 q 104 63 122 33 q 82 124 90 88 q 76 185 74 161 q 78 205 78 193 q 79 225 79 217 q 89 261 79 247 q 114 275 99 275 q 124 279 119 275 q 138 283 129 285 q 153 276 146 282 q 167 260 161 269 q 172 242 172 251 q 185 219 172 232 q 215 197 197 207 q 255 181 233 188 q 294 174 276 174 q 386 188 343 174 q 460 223 429 201 q 505 271 492 244 q 506 322 518 297 q 396 390 475 385 q 367 392 381 390 q 351 396 354 393 q 337 399 347 397 q 315 401 326 400 q 290 407 304 404 q 268 413 276 410 q 247 420 260 415 q 224 429 235 425 q 146 482 181 444 q 90 569 111 519 q 63 677 68 619 q 71 788 57 735 q 89 826 75 804 q 122 869 103 847 q 163 913 140 892 q 210 950 186 933 q 260 968 225 961 q 344 979 296 975 q 448 983 392 983 q 563 978 504 982 q 612 974 594 975 q 639 976 629 974 q 663 978 649 978 q 694 978 678 979 q 723 975 710 976 q 744 971 736 974 q 788 926 783 957 q 765 832 793 896 q 742 766 750 794 q 731 703 733 738 q 726 667 728 686 q 721 640 724 649 q 710 569 714 608 q 708 501 707 529 q 709 468 710 486 q 707 440 708 450 q 706 411 704 426 q 710 361 707 396 m 704 275 q 701 279 701 283 q 703 271 701 276 q 707 267 706 265 q 704 275 707 272 m 646 597 q 649 599 651 590 l 649 599 q 646 601 646 604 q 646 597 642 601 m 644 744 q 632 726 632 731 q 641 722 632 722 q 658 724 650 721 q 664 727 664 726 q 661 735 664 728 q 660 743 653 749 q 661 747 663 742 q 663 753 660 754 q 664 754 667 749 q 657 761 661 758 q 655 762 656 763 q 656 760 654 761 q 651 757 656 757 q 649 753 647 757 q 644 744 649 749 m 640 546 q 642 543 638 543 q 644 546 644 543 q 643 549 643 549 q 640 546 640 549 m 638 569 q 643 574 642 569 q 640 574 646 576 q 635 571 636 572 q 638 569 635 569 m 642 372 q 631 368 636 375 q 628 356 625 361 q 643 358 629 347 q 642 372 654 369 m 621 172 q 622 165 621 168 q 626 164 625 161 q 633 165 629 167 q 639 165 639 163 q 631 171 639 168 q 621 172 622 174 m 139 621 q 142 626 142 621 q 140 631 142 631 l 139 629 q 138 626 139 628 q 139 621 138 621 m 142 635 q 143 640 144 638 q 139 640 142 643 q 138 636 133 640 q 142 635 140 633 m 157 742 q 166 738 157 736 q 179 746 175 739 q 178 754 185 754 q 171 756 174 754 q 162 752 167 757 q 157 742 157 747 m 194 486 q 192 490 196 486 q 183 497 189 493 q 174 506 181 503 q 169 508 171 507 q 172 503 168 507 q 179 496 175 500 q 188 489 183 492 q 194 486 193 486 m 193 679 q 193 685 199 679 q 186 683 182 696 q 193 679 186 679 m 199 685 q 200 690 201 685 q 190 701 194 704 q 189 696 186 699 q 193 696 192 694 q 194 694 199 699 q 199 685 192 685 m 226 817 q 225 817 231 821 q 219 817 219 813 q 218 819 219 819 q 218 815 217 818 q 221 811 219 811 q 226 817 221 811 m 258 889 q 260 893 264 889 q 258 900 257 896 q 251 907 261 904 q 249 908 250 908 q 246 910 247 908 q 244 911 246 910 q 247 911 244 914 q 250 911 251 908 q 243 918 249 914 q 239 922 240 921 q 240 919 238 922 q 238 901 243 917 q 228 882 233 885 q 228 881 225 881 q 231 875 231 881 q 226 872 228 872 q 224 869 224 875 q 229 865 224 865 q 235 868 235 865 l 235 868 q 240 869 235 872 q 243 871 243 869 q 246 874 240 874 q 246 876 251 875 q 247 881 240 879 q 254 885 254 881 q 258 889 254 889 m 128 128 q 125 126 124 133 q 131 122 128 124 q 133 122 133 119 q 128 128 133 125 m 126 117 q 130 110 126 114 q 135 107 133 107 l 135 108 q 133 113 135 111 q 129 118 132 117 q 126 117 126 119 m 190 183 q 201 179 200 178 q 192 188 201 181 q 180 197 182 196 q 181 193 178 197 q 190 183 181 189 m 247 106 q 247 111 251 107 q 240 115 243 115 q 242 113 236 115 q 246 106 246 111 q 247 106 244 104 m 297 97 q 297 101 293 101 q 296 101 299 103 q 292 104 292 101 q 289 106 292 107 q 290 99 286 103 q 297 95 293 96 q 297 97 300 94 m 331 94 q 333 96 333 86 q 331 99 333 101 q 331 94 326 99 m 417 71 q 417 75 419 74 q 414 72 414 78 q 417 71 414 63 m 439 85 q 440 90 443 85 q 433 96 440 93 q 429 94 428 96 q 428 92 432 92 q 426 89 424 92 q 432 88 429 85 q 436 86 436 88 q 439 85 436 82 m 456 100 q 454 101 461 108 l 449 96 q 456 100 449 90 m 460 94 q 464 91 461 92 q 467 93 467 90 l 465 94 q 463 96 464 96 q 459 97 460 97 q 460 94 458 96 m 501 131 q 503 133 503 131 q 500 138 503 138 q 499 133 497 138 l 501 131 m 506 115 q 508 119 508 115 q 507 122 508 122 l 504 119 q 506 115 503 115 m 610 169 q 611 168 608 167 q 614 167 614 171 q 617 165 614 163 q 615 171 618 167 q 610 169 611 172 m 596 219 q 597 215 593 218 q 602 214 600 213 q 601 218 604 215 q 596 219 599 222 m 482 875 q 482 867 479 864 q 486 864 485 867 q 492 860 486 860 q 494 863 497 860 q 490 864 494 864 q 488 865 488 861 q 486 872 488 869 q 488 875 485 879 q 489 876 493 872 q 492 885 489 882 q 490 888 494 889 l 485 885 l 483 882 q 482 875 483 878 m 382 882 q 375 889 382 893 q 373 888 374 888 q 371 886 372 888 q 369 886 371 886 q 364 882 369 888 q 361 876 356 876 q 361 872 365 876 q 364 869 357 868 q 371 868 371 872 q 376 868 371 864 q 382 882 381 872 m 364 961 q 354 957 357 961 q 356 947 351 953 q 365 950 360 944 q 371 953 371 958 q 374 951 371 949 q 374 958 378 956 q 364 961 371 961 m 324 928 q 325 926 322 925 q 329 925 329 931 q 332 926 329 921 q 332 935 336 933 q 331 933 329 938 q 329 929 332 928 q 324 928 328 932 m 281 926 q 279 925 278 929 q 283 921 282 919 q 283 922 283 922 q 281 926 283 924 m 299 457 q 304 456 304 451 q 300 460 304 458 q 299 457 294 463 m 318 478 q 317 486 326 490 q 317 482 314 485 q 315 481 319 481 q 308 472 311 481 q 304 467 306 465 q 301 466 301 469 q 304 460 301 463 q 314 463 307 457 q 318 471 321 468 q 318 478 315 474 m 371 456 q 369 463 374 461 q 361 460 365 465 q 360 449 358 457 q 365 442 361 440 q 368 446 368 444 q 371 456 368 450 m 442 486 q 443 489 443 488 q 439 492 443 492 q 439 489 436 492 q 442 486 439 486 m 496 474 q 501 472 499 471 q 503 476 503 474 q 499 479 503 479 q 496 474 490 479 m 506 488 q 512 483 507 483 q 514 486 517 483 q 508 490 514 490 q 506 488 503 493 m 443 586 q 490 619 472 594 q 514 674 508 643 q 511 740 519 706 q 479 801 503 774 q 451 813 472 810 q 406 815 431 817 q 356 808 381 814 q 319 793 332 803 q 292 756 303 781 q 279 703 282 732 q 281 647 276 675 q 300 601 286 619 q 322 588 307 593 q 358 580 338 582 q 401 579 379 578 q 443 586 424 581 m 507 944 q 519 947 514 944 q 529 950 525 950 q 528 951 531 949 q 524 957 526 954 q 513 963 519 961 q 501 965 507 965 q 490 963 494 965 q 489 957 486 961 q 493 943 493 949 q 497 940 494 940 q 500 943 500 940 q 507 944 500 944 m 522 525 q 526 526 526 519 q 524 529 526 532 q 522 525 522 528 m 531 883 q 528 892 532 888 q 522 895 522 897 q 524 886 521 893 q 531 883 526 879 m 551 131 q 551 136 556 138 q 549 136 549 133 q 542 136 549 140 q 538 129 538 133 q 544 125 539 125 q 551 131 549 125 m 550 785 q 557 778 557 768 q 551 788 557 779 q 550 785 544 796 m 565 242 q 568 246 568 242 q 565 250 568 250 q 563 244 563 247 q 565 242 563 242 m 581 149 q 583 150 583 149 q 585 150 585 150 q 581 153 585 153 q 578 151 578 156 q 581 149 578 149 z "},"":{"ha":732,"x_min":69,"x_max":663,"o":"m 663 972 l 663 0 l 69 0 l 69 972 l 663 972 m 365 515 l 624 944 l 108 944 l 365 515 m 99 903 l 99 68 l 349 486 l 99 903 m 110 29 l 624 29 l 367 457 l 110 29 m 635 65 l 635 906 l 383 486 l 635 65 z "},"\u0000":{"ha":0,"x_min":0,"x_max":0,"o":""},"\r":{"ha":0,"x_min":0,"x_max":0,"o":""}," ":{"ha":471,"x_min":0,"x_max":0,"o":""},"\n":{"ha":0,"x_min":0,"x_max":0,"o":""},"!":{"ha":397,"x_min":56,"x_max":358,"o":"m 106 106 q 149 153 118 139 q 210 162 179 167 q 265 136 242 157 q 289 79 289 115 q 276 33 289 54 q 244 0 264 13 q 200 -17 225 -12 q 149 -12 175 -21 q 103 31 115 -1 q 106 106 90 64 m 193 122 q 196 121 190 121 q 199 122 200 121 q 197 122 197 122 q 193 122 196 125 m 200 54 q 203 60 203 54 q 197 65 203 67 q 188 67 193 64 q 186 74 183 71 q 182 82 189 76 q 179 86 179 85 q 181 86 179 88 q 183 90 183 85 q 185 102 181 96 q 193 107 189 108 q 196 108 196 106 q 197 111 193 111 q 194 115 201 111 q 183 113 189 118 q 183 107 179 108 q 181 106 185 106 q 176 100 176 106 q 175 94 179 94 q 171 89 171 93 q 169 72 169 81 q 169 64 168 64 q 176 63 172 67 q 176 56 179 58 q 179 54 175 54 q 186 54 186 58 q 194 56 188 51 q 199 58 199 58 q 200 54 197 54 m 319 964 q 325 900 358 933 q 305 876 313 888 q 292 846 297 864 q 285 803 288 828 q 283 740 283 778 q 281 674 282 711 q 276 613 279 636 q 272 403 265 471 q 275 359 274 386 q 276 310 276 332 q 278 268 276 288 q 282 242 279 249 q 260 197 289 211 q 179 192 231 183 l 179 193 q 163 194 172 193 q 147 197 154 196 q 115 215 121 200 q 117 282 110 231 q 124 347 121 318 q 127 404 126 376 q 127 460 128 432 q 124 521 126 488 q 122 547 122 531 q 119 585 121 564 q 117 628 118 606 q 115 671 117 650 q 112 790 114 746 q 106 857 110 833 q 97 890 103 881 q 81 906 90 900 q 56 943 56 919 q 73 972 56 967 q 143 971 90 978 q 197 971 175 967 q 230 974 211 974 q 267 972 249 974 q 301 969 286 971 q 319 964 315 967 m 215 903 q 213 904 213 908 q 216 895 213 900 q 222 890 219 890 q 224 893 224 890 q 221 896 224 896 q 215 903 219 896 m 186 875 q 188 872 183 872 q 195 873 193 874 q 194 869 197 872 q 196 861 189 867 q 206 860 206 854 q 201 864 206 864 q 199 869 196 867 q 194 875 201 872 q 186 875 189 879 m 196 413 q 194 408 196 408 q 193 406 190 408 q 197 406 194 403 q 200 413 200 408 q 197 415 200 415 q 196 413 193 415 m 158 917 q 157 907 154 913 q 160 904 160 899 q 165 908 163 908 l 165 908 q 169 911 169 908 q 172 913 169 915 q 175 918 175 913 q 168 922 175 928 q 161 919 161 918 q 158 917 161 922 m 168 851 q 167 853 169 854 q 164 854 164 850 q 161 856 164 858 q 161 851 157 854 q 168 851 167 847 m 163 826 q 161 832 163 831 q 158 829 158 835 q 163 826 158 821 m 146 828 q 148 815 146 818 q 153 818 150 811 q 154 824 154 821 q 154 829 154 826 q 149 833 151 833 q 146 828 146 833 m 154 726 l 154 736 q 153 732 153 739 q 154 726 153 725 m 156 744 q 157 750 158 750 q 156 751 157 751 q 154 747 154 750 q 152 743 151 744 q 156 744 153 742 m 160 568 q 164 565 161 565 q 167 567 167 564 l 165 568 q 163 569 164 569 q 159 570 160 571 q 160 568 158 569 m 167 646 q 171 651 163 650 q 178 660 178 653 q 172 665 178 667 q 167 668 167 665 q 164 671 167 671 q 163 667 161 671 q 160 658 164 663 q 159 649 156 656 q 168 643 163 643 q 167 646 172 643 m 189 272 q 196 276 193 276 q 202 283 199 275 q 204 293 206 290 q 198 295 203 296 q 189 289 193 294 q 186 289 185 285 q 181 293 189 293 q 172 289 172 293 q 178 288 172 285 q 182 286 182 290 q 176 275 182 282 q 177 267 172 268 q 189 272 182 265 m 214 235 q 206 239 218 247 q 196 238 197 235 q 194 238 194 240 q 202 229 193 231 q 214 235 211 228 m 206 743 q 212 742 206 739 q 222 753 218 746 q 225 759 225 758 q 219 757 225 760 q 214 751 211 754 q 211 747 214 750 q 206 743 206 747 m 228 469 q 233 482 233 469 q 228 486 233 497 q 224 476 221 479 q 225 471 228 474 q 228 469 224 469 m 236 836 q 239 839 239 836 q 236 842 239 842 q 233 839 233 842 q 236 836 233 836 z "},"\"":{"ha":485,"x_min":43,"x_max":444,"o":"m 131 969 q 138 965 138 967 q 129 967 138 960 q 131 969 124 971 m 429 940 q 436 872 444 910 q 405 804 428 835 q 351 757 382 774 q 290 753 319 740 q 275 774 274 760 q 293 793 276 789 q 308 801 301 796 q 319 811 315 806 q 324 822 324 817 q 318 828 324 826 q 267 853 282 835 q 256 907 253 872 q 279 969 258 946 q 328 997 300 992 q 383 988 356 1001 q 429 940 411 975 m 294 893 q 294 899 297 896 q 290 902 292 903 q 289 896 288 901 q 294 893 292 890 m 301 874 q 306 879 306 878 l 306 879 q 303 883 306 883 q 301 890 299 883 q 301 894 304 897 q 298 888 299 892 q 300 881 297 883 q 300 878 303 878 q 296 875 296 878 q 301 874 296 871 m 346 889 q 350 892 350 885 q 347 894 350 894 q 346 889 346 893 m 354 899 q 358 904 358 899 q 357 911 357 907 q 351 913 356 915 q 349 906 347 911 q 354 899 349 899 m 375 883 q 378 886 378 883 l 378 889 q 376 890 376 890 q 374 886 374 890 q 375 883 371 883 m 385 872 q 390 869 388 869 q 393 871 393 868 q 387 875 393 874 q 379 874 381 876 q 381 872 378 872 q 385 872 385 876 m 390 946 q 393 951 393 949 q 390 956 393 956 q 388 950 388 956 q 390 946 388 943 m 403 940 q 408 944 408 940 q 403 944 408 947 q 399 939 399 940 l 400 939 q 403 940 401 940 m 161 983 q 203 969 185 983 q 230 932 221 954 q 238 882 239 910 q 224 828 236 854 q 201 797 215 811 q 171 772 188 782 q 138 756 154 761 q 111 756 122 751 q 100 758 111 756 q 78 781 78 764 q 101 800 79 797 q 119 808 110 803 q 128 818 128 814 q 115 824 128 821 q 76 844 93 831 q 51 874 60 857 q 44 911 43 892 q 57 949 46 931 q 78 972 65 961 q 105 988 92 982 q 130 994 118 993 q 150 988 142 994 q 161 983 157 983 m 108 960 q 104 957 104 964 q 108 953 104 953 q 113 956 113 953 q 108 960 113 960 m 69 893 q 69 900 72 896 q 68 897 68 901 q 69 893 68 893 m 76 961 q 74 960 74 961 q 76 956 74 956 q 79 957 79 957 q 76 961 79 958 m 79 860 q 85 857 85 857 q 86 861 86 857 q 82 865 86 865 q 75 869 79 865 q 74 872 75 872 q 74 868 74 871 q 79 860 74 863 m 90 965 q 97 971 97 969 q 94 975 97 975 q 93 974 90 979 q 89 969 93 969 q 83 965 86 969 q 90 965 82 963 m 104 899 q 107 907 107 904 q 105 910 107 913 q 101 901 103 907 q 104 899 101 896 m 110 885 q 113 885 111 881 q 114 896 114 890 q 111 901 114 904 q 110 885 107 900 m 167 946 q 165 951 169 947 q 158 954 161 957 q 147 958 154 951 q 142 967 140 964 q 147 969 143 969 q 149 968 149 968 q 149 969 150 968 q 138 972 146 972 q 122 978 131 972 q 119 980 119 981 q 122 976 119 979 q 121 972 128 968 q 115 971 115 975 q 119 968 115 968 q 129 963 124 968 q 139 958 133 956 q 143 956 143 958 q 146 954 143 951 q 149 953 149 957 q 157 950 149 950 q 164 947 164 950 q 167 946 164 943 m 185 935 q 186 943 183 940 q 192 947 192 946 q 185 946 192 953 q 179 943 182 946 q 176 942 178 943 q 179 935 175 942 q 185 929 183 929 l 185 935 m 201 922 l 203 921 q 206 918 206 921 q 208 914 208 913 q 208 925 208 915 q 204 938 206 936 q 204 935 201 940 q 200 928 206 929 q 193 936 193 926 q 190 938 194 938 q 189 933 188 938 q 194 924 190 928 q 201 922 199 919 m 206 893 q 211 888 210 888 q 208 896 213 889 q 206 893 203 900 z "},"#":{"ha":767,"x_min":49,"x_max":718,"o":"m 461 479 q 364 421 404 479 q 338 369 343 390 q 340 339 332 347 q 365 338 347 331 q 406 374 382 346 q 434 406 424 394 q 452 423 444 417 q 467 431 460 429 q 482 432 474 432 q 513 418 503 432 q 524 383 524 404 q 513 336 524 361 q 481 290 501 311 q 387 228 433 244 q 306 228 340 211 q 259 266 278 240 q 233 323 240 292 q 229 390 225 354 q 251 456 233 425 q 358 582 299 539 q 475 615 418 625 q 519 589 506 611 q 530 542 532 567 q 510 499 528 518 q 461 479 493 479 m 488 583 q 483 587 483 589 q 485 579 482 585 q 490 576 490 574 q 488 583 490 581 m 467 542 q 467 535 460 535 q 475 542 475 535 q 474 549 475 549 q 467 542 474 549 m 506 386 q 503 368 503 378 q 506 365 503 351 q 508 383 508 374 q 508 391 508 390 q 506 386 508 392 m 468 407 q 471 406 467 403 q 479 403 476 406 q 484 399 482 399 q 483 406 486 400 q 476 410 482 410 q 468 407 471 411 m 310 376 q 310 368 307 368 q 315 378 313 368 q 319 388 319 388 q 314 389 319 389 q 311 388 310 389 q 310 376 313 386 m 281 439 q 278 438 278 442 q 281 435 278 435 q 283 436 283 435 l 281 439 m 271 400 q 270 407 271 407 q 267 403 269 407 q 263 393 263 397 q 265 390 263 389 q 271 400 268 390 m 278 340 q 281 344 281 340 q 278 346 281 349 q 274 340 274 344 q 278 340 274 339 m 289 307 q 288 311 290 311 q 282 307 285 311 q 283 303 279 299 q 289 307 285 303 m 288 356 q 293 368 296 364 q 283 367 288 383 q 288 356 275 344 m 304 301 q 307 300 304 299 q 313 306 310 301 q 314 313 317 310 q 308 309 311 314 q 304 301 304 304 m 314 274 q 320 275 318 271 q 319 282 322 279 q 317 281 317 285 q 314 279 317 276 q 308 278 311 282 q 306 272 304 275 q 311 269 308 269 q 311 272 314 269 q 314 274 311 274 m 342 240 q 328 238 328 240 q 332 238 329 238 q 340 236 333 236 q 349 238 347 236 q 353 238 351 238 q 342 240 356 240 m 429 543 q 425 531 417 531 q 433 539 425 531 q 438 544 435 542 q 440 546 439 544 q 449 552 443 546 q 454 561 454 558 q 450 563 454 564 q 444 560 446 563 q 438 556 443 556 q 435 551 435 556 q 429 543 438 549 m 394 518 q 380 509 389 518 q 371 493 371 500 q 374 486 371 486 q 376 489 376 486 q 382 492 376 492 q 388 500 388 494 q 391 511 388 507 q 394 510 394 515 q 399 508 394 508 q 404 514 404 511 q 406 519 404 519 q 404 519 407 521 q 399 519 401 519 q 394 518 397 518 m 351 478 q 354 485 353 482 q 356 492 356 489 q 353 493 356 499 q 349 479 350 488 q 351 478 347 472 m 360 515 q 361 513 357 513 q 365 515 365 513 q 363 521 367 518 q 358 526 358 525 q 356 531 358 531 q 353 525 353 531 q 357 518 353 518 q 360 515 361 518 m 701 553 q 710 422 718 488 q 678 298 703 357 q 612 190 653 239 q 520 106 571 140 q 410 58 469 72 q 290 54 351 43 q 178 101 226 65 q 101 188 131 138 q 60 301 71 239 q 58 429 49 364 q 97 557 67 494 q 181 672 128 619 q 333 766 251 742 q 488 774 414 790 q 621 701 563 757 q 701 553 679 644 m 144 244 q 144 236 140 236 q 147 243 147 236 q 144 244 147 249 m 86 426 q 91 422 89 419 q 93 432 93 424 q 92 440 93 439 q 89 438 92 440 q 86 426 85 431 m 94 356 q 96 351 94 350 q 96 353 96 353 q 96 357 99 356 q 94 356 94 360 m 99 342 q 100 344 100 343 q 96 347 100 347 q 96 344 93 347 q 99 342 96 342 m 119 257 q 124 258 124 251 q 121 261 124 264 q 119 257 115 261 m 125 511 q 129 518 132 518 q 121 512 126 518 q 115 501 115 506 q 118 499 115 499 q 119 503 121 501 q 125 511 117 506 m 139 371 q 138 368 135 371 l 140 365 q 142 368 142 365 q 139 371 142 371 m 142 203 q 148 206 144 200 q 149 215 151 213 l 147 214 q 143 211 146 214 q 142 203 136 206 m 594 658 q 585 656 588 661 q 589 646 582 650 q 594 644 600 640 q 596 649 593 649 q 599 653 600 649 q 594 658 599 657 m 535 696 q 536 693 532 693 q 539 696 539 693 q 538 699 539 699 l 536 699 q 535 696 536 697 m 517 747 q 510 750 514 750 q 506 747 506 750 q 511 743 506 746 q 517 747 521 742 m 414 717 q 411 711 411 715 q 416 712 414 708 q 418 718 418 715 q 414 717 418 721 m 383 758 q 378 754 378 758 q 381 751 375 749 q 388 756 388 751 q 383 758 390 761 m 261 689 q 260 688 260 690 q 265 685 260 683 q 271 690 269 686 q 268 692 274 697 q 261 689 265 689 m 256 683 q 253 682 253 683 q 256 678 253 678 q 258 679 258 678 q 260 679 260 679 q 256 683 260 682 m 232 582 q 231 579 228 582 q 234 576 233 576 q 239 583 235 576 q 247 598 246 592 q 242 597 247 604 q 235 586 235 590 q 232 582 235 582 m 213 626 q 214 624 210 624 q 217 626 217 624 q 215 631 217 631 l 214 629 q 213 626 214 628 m 201 565 q 188 550 188 558 q 197 551 188 539 q 203 563 201 557 q 201 565 204 568 m 156 179 q 161 176 157 176 q 165 178 165 175 q 161 185 165 181 q 156 185 158 188 q 156 179 153 182 m 178 196 q 189 192 188 192 q 189 194 190 192 q 182 197 186 197 q 178 200 178 197 q 172 203 176 203 q 178 196 167 200 m 233 156 q 236 159 236 158 q 233 165 236 160 l 233 165 q 222 178 229 172 q 211 181 214 183 q 221 168 211 178 q 229 157 232 157 q 233 156 229 156 m 294 111 q 301 119 301 115 q 299 122 301 124 q 293 114 296 119 q 294 111 289 106 m 346 72 q 356 70 347 69 q 364 74 364 71 q 355 78 364 76 q 344 76 346 79 q 346 72 344 74 m 451 146 q 447 147 453 150 q 439 138 440 143 q 443 138 435 132 q 451 146 450 142 m 563 243 q 565 239 563 239 q 572 243 568 239 q 569 249 576 249 q 563 243 563 249 m 576 189 q 581 201 581 197 q 576 197 581 204 q 572 192 572 192 q 569 189 572 197 q 571 179 565 179 l 572 182 q 576 189 574 183 m 603 307 q 603 311 610 315 q 592 301 593 307 q 597 296 590 296 q 599 299 599 296 q 599 301 597 299 q 603 307 600 304 m 381 147 q 478 198 433 160 q 556 288 524 236 q 603 399 588 339 q 610 517 618 458 q 553 643 599 600 q 447 689 507 686 q 324 653 388 692 q 213 535 260 615 q 163 383 168 460 q 182 247 157 306 q 258 159 207 189 q 381 147 310 129 m 611 667 q 614 669 614 667 q 611 672 614 672 q 608 669 608 672 q 611 667 608 667 m 625 624 q 624 626 625 626 q 618 624 621 626 q 619 621 618 621 q 625 624 622 621 m 639 568 q 642 565 639 563 q 644 572 644 568 q 642 575 644 575 q 639 568 639 572 m 644 407 q 647 410 647 407 q 644 417 647 415 q 642 414 642 419 q 644 407 642 407 m 644 460 q 649 453 644 453 q 650 458 653 457 l 650 467 q 647 469 649 472 q 644 460 644 465 m 653 378 q 657 379 657 378 l 656 381 q 653 382 654 382 q 650 381 650 385 q 653 378 650 378 m 656 501 q 658 507 658 507 q 660 510 658 508 q 653 510 660 513 q 644 504 647 507 q 647 497 642 499 q 656 501 653 496 m 665 408 q 671 413 671 408 q 665 415 671 418 q 660 411 661 414 q 665 408 660 408 m 675 485 q 678 488 678 482 q 665 486 678 497 q 663 474 653 474 q 665 476 665 474 q 668 478 665 481 q 671 481 671 478 q 675 485 671 485 m 686 425 q 685 428 690 428 q 678 425 678 428 q 686 425 678 421 m 686 439 q 689 443 689 442 q 686 446 689 446 q 683 442 683 446 q 686 439 683 436 z "},"$":{"ha":647,"x_min":49,"x_max":599,"o":"m 372 706 q 414 624 411 644 q 405 590 417 601 q 376 588 393 578 q 353 612 365 593 q 329 656 340 631 q 297 709 306 706 q 286 671 289 713 q 281 624 283 636 q 272 604 279 611 q 245 596 261 590 q 226 621 229 601 q 221 639 226 631 q 215 676 215 647 q 216 738 214 706 q 224 797 218 769 q 235 832 229 825 q 260 840 240 838 q 303 841 279 842 q 349 837 326 840 q 381 828 371 833 q 406 784 406 813 q 382 732 406 756 q 372 706 365 717 m 249 628 q 253 633 253 628 q 249 638 251 639 q 244 633 246 638 q 249 628 244 628 m 243 647 q 251 643 246 642 q 254 650 256 644 q 250 660 254 658 q 250 664 246 664 q 250 670 253 664 q 244 676 247 676 q 241 665 242 676 q 243 647 240 653 m 272 803 q 271 806 278 806 q 265 803 265 806 q 258 800 265 800 q 254 796 253 800 q 253 789 256 792 q 253 785 249 789 q 267 793 263 778 q 272 803 269 800 m 283 724 q 286 729 286 724 q 285 733 286 733 l 283 732 q 282 729 283 731 q 283 724 279 724 m 290 747 q 308 747 294 744 q 328 753 321 749 q 339 780 346 767 q 304 796 332 793 q 289 774 289 796 q 290 747 288 751 m 342 706 q 342 709 343 708 q 340 708 342 710 q 336 711 336 708 q 319 713 338 717 q 325 706 318 713 q 333 703 333 700 q 338 704 336 706 q 342 706 340 704 m 364 674 q 368 667 365 668 q 371 669 371 665 q 369 672 371 671 q 367 676 368 674 q 364 674 363 679 m 385 604 q 389 608 389 604 q 382 613 389 613 q 381 611 376 613 q 383 607 385 608 q 385 604 383 604 m 328 986 q 462 954 406 986 q 551 872 518 922 q 591 760 583 821 q 580 642 599 700 q 515 539 561 585 q 394 472 469 493 q 282 463 339 456 q 147 516 199 474 q 72 617 94 558 q 54 740 49 675 q 92 860 60 806 q 185 950 125 914 q 328 986 244 986 m 457 929 q 457 924 454 929 q 461 917 457 917 q 463 914 465 917 q 471 911 460 911 q 479 915 482 911 l 479 915 q 468 924 476 918 q 457 929 460 929 m 439 892 q 433 890 433 892 q 440 889 433 886 q 444 885 446 889 q 454 878 442 878 q 457 882 457 878 q 453 889 457 885 q 454 892 450 893 q 458 893 458 888 q 453 893 461 896 q 445 892 449 893 q 439 892 442 892 m 425 944 q 422 940 422 944 q 425 938 422 938 q 428 940 428 938 q 425 944 428 944 m 369 956 q 365 949 365 951 q 368 949 364 946 q 371 947 371 951 q 375 944 371 944 q 379 950 379 944 q 383 957 378 956 q 382 958 389 957 q 369 956 374 960 m 332 914 q 328 917 332 917 q 325 914 325 917 q 328 911 325 911 q 332 914 332 911 m 313 963 q 311 957 311 961 q 318 953 314 954 q 322 956 322 953 l 322 956 q 325 958 322 958 q 328 961 328 958 q 322 965 329 964 q 313 963 315 965 m 204 865 q 192 860 201 868 q 183 849 183 853 q 185 847 183 846 q 194 854 188 847 q 204 865 204 864 m 175 843 q 172 839 172 840 q 175 836 172 836 q 178 840 178 836 q 175 843 178 846 m 156 819 q 153 810 158 815 q 144 807 147 804 q 146 804 142 808 q 147 793 150 799 q 144 791 144 792 q 147 792 144 790 q 153 799 149 793 q 163 813 157 806 q 171 832 174 832 q 167 829 167 832 q 164 826 167 824 q 160 824 160 826 q 157 822 160 819 q 155 823 156 824 q 156 819 154 822 m 144 888 l 139 882 q 144 886 139 875 q 144 888 149 890 m 136 878 q 131 875 133 878 q 133 872 131 872 q 139 875 139 872 q 136 878 139 878 m 107 753 q 106 749 99 749 q 110 751 110 749 q 110 753 111 753 q 107 753 110 754 m 88 788 q 86 793 89 793 q 81 785 83 793 q 76 764 76 765 q 81 771 76 763 q 84 781 82 776 q 88 788 86 785 m 96 731 q 103 734 97 728 q 108 743 108 740 q 101 740 108 744 q 96 731 93 735 m 103 724 q 104 721 99 724 q 112 718 111 718 q 110 721 113 718 q 103 724 110 724 m 110 657 q 116 659 115 654 q 113 667 117 664 q 111 669 110 669 q 117 669 114 667 q 115 674 117 674 q 113 676 113 674 q 111 681 114 678 q 110 679 108 682 q 107 676 113 676 q 101 672 103 676 q 101 660 100 667 q 104 649 101 654 q 111 643 107 644 l 111 644 q 113 647 113 646 q 113 651 115 651 q 107 654 110 649 q 110 657 104 660 m 118 583 q 121 586 121 583 q 119 589 119 589 q 117 586 117 589 q 118 583 114 583 m 121 857 q 124 864 124 863 q 121 863 124 868 q 118 856 118 857 q 121 857 118 851 m 125 721 q 129 722 129 715 q 126 725 129 728 q 125 721 125 725 m 151 551 q 153 554 156 551 q 147 557 150 560 q 147 553 144 554 q 151 551 149 551 m 156 600 q 153 611 164 593 q 146 624 147 622 q 138 621 144 625 q 134 617 135 618 q 135 618 133 617 q 138 615 138 618 q 132 611 136 611 q 129 608 129 614 q 132 604 129 606 q 146 603 135 603 q 156 600 153 603 m 172 564 q 175 564 175 561 q 169 567 175 567 q 165 563 164 567 q 168 561 167 560 q 172 564 169 564 m 232 508 q 235 511 235 508 q 232 514 235 514 q 229 511 229 514 q 232 508 229 508 m 389 493 q 392 494 392 493 l 389 497 q 386 496 386 499 q 389 493 386 493 m 396 499 q 403 497 397 496 q 410 500 410 497 q 401 501 410 501 q 396 499 393 501 m 349 549 q 419 586 389 560 q 467 648 450 613 q 487 723 485 683 q 472 799 489 763 q 421 862 453 840 q 353 888 389 883 q 280 879 317 892 q 215 841 243 867 q 169 777 186 815 q 154 692 151 739 q 160 660 156 678 q 172 628 165 643 q 184 602 178 613 q 196 592 190 592 q 202 588 199 592 q 211 581 206 585 q 272 547 232 557 q 349 549 313 538 m 515 792 q 519 797 521 790 q 522 807 518 804 q 529 807 526 810 q 531 813 532 807 q 522 817 529 819 q 517 811 517 815 q 514 802 519 808 q 506 799 508 796 q 501 794 503 800 q 501 782 500 789 q 508 774 503 774 q 513 778 515 774 q 511 783 513 783 l 511 785 q 510 789 511 788 q 515 792 510 793 m 525 757 q 529 754 528 754 q 531 757 531 756 q 526 761 531 761 q 525 757 525 761 m 529 721 q 535 726 539 717 q 529 728 533 732 q 529 721 526 725 m 535 778 q 536 782 531 782 q 536 785 542 785 q 529 779 532 785 q 525 768 528 776 q 526 763 522 763 q 533 769 531 764 l 533 769 q 535 778 536 776 z "},"%":{"ha":667,"x_min":54,"x_max":625,"o":"m 525 421 q 610 264 625 342 q 555 173 599 207 q 444 136 511 139 q 415 125 426 135 q 399 101 403 115 q 397 68 394 86 q 413 32 400 50 q 408 -18 432 -1 q 382 -22 404 -21 q 333 -24 360 -24 q 283 -22 307 -24 q 251 -18 260 -21 q 228 1 231 -11 q 242 29 225 14 q 258 51 254 40 q 261 90 261 63 q 260 116 261 107 q 256 129 260 125 q 242 134 251 133 q 214 135 232 135 q 123 153 161 133 q 75 206 85 172 q 72 270 65 238 q 94 328 78 303 q 135 366 111 353 q 185 372 160 379 q 214 351 206 367 q 210 326 222 336 q 200 287 194 314 q 225 246 206 260 q 274 227 247 231 q 328 232 301 224 q 377 258 354 240 q 413 301 400 275 q 425 342 424 325 q 415 376 426 360 q 377 410 403 393 q 308 450 351 428 q 281 465 293 458 q 267 472 269 471 q 251 481 265 474 q 217 499 236 488 q 156 535 179 518 q 121 572 133 551 q 106 617 108 592 q 108 676 104 642 q 68 768 113 724 q 56 784 57 779 q 60 796 54 789 q 85 807 65 804 q 157 810 104 810 q 199 810 185 810 q 219 813 213 811 q 228 820 226 815 q 235 835 231 825 q 240 856 239 846 q 242 885 242 865 q 240 919 242 911 q 228 940 238 926 q 234 964 217 957 q 308 971 251 971 q 412 961 390 972 q 407 921 433 950 q 378 840 361 871 q 468 808 394 810 q 522 799 504 808 q 563 763 540 790 q 575 745 571 753 q 581 728 579 738 q 581 706 582 719 q 575 671 579 693 q 552 628 571 635 q 524 653 533 622 q 494 685 518 672 q 438 702 469 697 q 372 703 407 707 q 310 688 338 700 q 290 675 290 678 q 281 663 290 672 q 319 564 244 621 q 338 549 331 556 q 356 535 346 542 q 378 522 365 529 q 408 501 390 514 q 460 469 440 482 q 489 450 481 457 q 503 438 493 446 q 525 421 514 429 m 554 685 q 549 685 549 689 q 553 679 549 679 q 558 678 557 676 q 554 685 558 681 m 546 711 q 543 710 543 713 q 545 702 543 704 q 549 704 547 700 q 546 711 549 706 m 546 649 q 543 647 543 649 q 546 643 543 643 q 549 644 549 644 q 546 649 549 646 m 525 746 q 522 743 521 746 q 528 738 524 740 q 533 735 531 738 q 535 733 533 735 l 535 740 q 532 746 535 746 l 525 746 m 488 744 q 487 739 485 742 q 492 736 489 736 q 494 739 494 736 q 488 744 494 749 m 389 944 q 382 938 382 944 q 388 934 382 932 q 394 942 394 936 q 389 944 394 944 m 325 822 q 319 813 319 818 q 325 808 319 808 q 329 811 329 808 q 331 824 332 822 q 325 822 329 826 m 292 751 q 293 750 289 749 q 304 751 297 751 q 308 754 308 751 q 301 756 308 757 q 292 751 294 756 m 272 942 q 271 933 269 936 q 275 938 275 924 q 272 942 275 947 m 193 665 l 193 669 q 189 674 193 674 q 184 671 182 674 q 193 665 186 668 m 232 636 q 228 640 236 640 q 222 633 215 640 q 232 636 228 628 m 376 442 q 385 436 376 440 q 385 440 385 436 q 379 444 382 444 q 376 442 376 444 m 97 292 q 100 299 100 297 q 97 297 100 303 q 94 290 94 292 q 97 292 94 286 m 171 193 q 178 189 178 185 q 172 194 178 192 q 171 193 167 197 m 192 183 q 193 186 193 183 q 190 189 193 189 q 189 186 186 189 l 192 183 m 197 243 q 196 247 200 243 q 193 250 196 250 q 192 251 193 251 q 192 246 189 249 q 197 243 194 243 m 310 132 q 308 135 310 135 q 304 132 304 135 q 306 129 306 129 q 310 132 307 129 m 314 6 q 319 1 314 3 q 326 1 324 0 q 322 6 326 4 q 314 6 314 13 m 335 0 q 338 1 338 0 l 335 4 q 332 3 332 7 q 335 0 332 0 m 339 49 q 343 56 343 49 q 338 62 343 61 q 333 57 333 63 q 339 49 333 47 m 340 194 q 347 199 347 194 q 332 197 347 204 q 323 190 325 193 q 328 190 321 188 q 334 192 331 192 q 340 194 338 193 m 371 72 q 374 81 374 72 q 371 89 374 92 q 368 86 368 89 l 368 78 q 371 72 368 72 m 410 181 q 413 183 413 181 q 408 186 413 186 q 406 183 403 186 q 410 181 408 181 m 476 428 q 474 433 476 432 q 472 432 471 436 q 476 428 475 428 m 514 321 q 515 328 519 321 q 508 331 511 333 q 508 324 506 328 q 514 321 510 321 m 550 306 q 555 305 553 303 q 557 310 557 307 l 556 311 l 553 311 q 550 306 544 311 m 581 300 q 582 303 582 301 q 578 307 582 307 q 578 303 576 307 q 581 300 578 300 z "},"&":{"ha":881,"x_min":33,"x_max":829,"o":"m 796 157 q 817 115 810 132 q 827 84 825 97 q 826 60 829 71 q 815 35 822 49 q 751 -17 799 -1 q 653 -22 704 -33 q 610 7 619 -14 q 613 68 601 28 q 616 106 615 82 q 614 135 617 129 q 592 122 613 139 q 534 81 567 101 q 465 41 501 60 q 392 7 429 22 q 322 -17 356 -8 q 259 -24 299 -24 q 186 -18 219 -24 q 153 -12 174 -15 q 118 -7 133 -10 q 47 20 60 3 q 56 79 33 38 q 65 100 61 90 q 69 113 69 110 q 71 124 69 117 q 75 139 72 132 q 83 163 78 146 q 92 197 88 179 q 110 263 101 235 q 133 316 119 290 q 165 369 146 342 q 214 432 185 396 q 246 474 235 458 q 260 500 257 489 q 259 523 264 511 q 244 556 254 535 q 232 584 239 568 q 219 617 225 600 q 208 649 213 633 q 200 672 203 664 q 195 699 200 675 q 183 751 190 722 q 169 840 172 804 q 172 901 165 876 q 194 942 178 926 q 236 965 210 957 q 277 969 243 968 q 359 972 311 971 q 463 972 407 972 q 567 972 518 972 q 652 969 617 971 q 697 967 688 968 q 733 892 789 947 q 719 876 724 882 q 710 860 714 869 q 706 835 707 850 q 704 796 706 821 q 696 724 703 757 q 674 660 689 692 q 636 597 660 629 q 578 526 613 565 q 552 481 551 497 q 581 436 553 464 q 603 420 594 421 q 624 432 613 419 q 638 451 635 443 q 640 469 640 458 q 650 507 640 493 q 675 526 660 521 q 708 524 690 531 q 744 500 726 518 q 783 410 781 464 q 754 294 786 357 q 747 277 747 282 q 749 265 746 272 q 765 219 756 242 q 796 157 775 197 m 217 846 q 222 853 222 847 q 218 858 221 858 q 213 850 215 857 q 217 846 211 843 m 157 231 q 160 232 165 226 q 158 239 157 238 l 156 238 q 157 231 151 233 m 646 914 q 647 910 643 914 q 650 907 650 907 q 651 906 650 906 q 651 910 651 906 q 646 914 650 914 m 635 858 q 633 851 632 857 q 636 844 633 844 q 638 853 638 844 q 635 858 638 861 m 596 801 q 594 800 592 803 q 599 793 599 796 q 594 793 599 792 q 593 794 593 794 q 596 790 593 793 q 597 785 599 785 q 599 782 594 785 q 607 779 604 779 q 611 782 611 779 q 615 785 611 785 q 617 794 622 785 q 614 794 614 797 q 613 793 614 792 q 610 799 611 794 q 603 803 606 806 q 596 801 603 799 m 582 839 q 581 842 585 842 q 576 839 579 842 q 578 836 574 836 q 582 839 579 836 m 574 856 q 568 854 568 856 q 574 851 568 851 q 578 853 578 851 l 576 854 q 574 856 575 856 m 571 740 q 566 738 567 739 q 568 736 565 736 q 574 740 572 736 q 571 740 574 742 m 532 932 q 531 922 528 925 q 538 924 533 918 q 539 935 542 929 q 532 932 539 939 m 465 881 q 461 878 464 881 q 460 876 461 878 l 465 876 q 469 882 469 881 q 465 881 469 885 m 451 918 q 454 897 447 901 q 457 899 464 889 q 457 914 453 904 q 456 921 460 922 q 453 919 453 921 q 451 918 451 919 m 456 876 q 457 882 457 876 q 454 879 454 888 q 455 876 454 876 q 456 876 456 875 m 447 881 q 444 878 442 881 q 447 875 444 875 l 450 878 q 447 881 450 881 m 367 911 q 350 909 356 914 q 349 894 344 904 q 358 892 350 890 q 372 899 367 893 q 372 906 378 903 q 372 908 369 908 q 367 911 375 908 m 347 815 q 331 738 326 783 q 368 639 336 692 q 406 590 390 600 q 440 592 421 581 q 481 627 461 604 q 518 676 501 650 q 544 728 535 701 q 554 776 554 756 q 528 824 554 806 q 468 850 503 843 q 399 849 433 857 q 347 815 364 840 m 540 603 q 539 606 540 607 q 536 601 536 603 q 540 603 536 594 m 497 368 q 503 375 503 374 q 497 371 503 376 q 488 368 490 365 q 485 367 485 371 q 490 364 485 364 q 497 368 494 364 m 475 597 q 469 603 475 606 q 468 598 467 600 q 472 596 469 596 q 475 597 475 596 m 421 457 q 423 456 422 454 q 424 461 424 458 q 422 465 422 464 q 421 468 422 467 q 419 465 419 469 q 421 457 419 461 m 303 443 q 301 446 303 447 q 299 440 301 446 q 300 438 299 436 q 303 443 303 438 m 296 926 q 293 924 290 926 q 299 921 296 921 q 301 924 301 921 q 296 926 301 926 m 276 813 q 271 801 268 806 q 285 800 274 796 q 286 803 290 803 q 285 807 283 803 q 287 815 290 813 q 276 813 283 817 m 268 918 q 265 914 257 922 q 271 913 269 910 q 268 918 271 915 m 261 764 q 262 751 258 751 q 276 761 265 750 q 283 771 282 765 q 279 776 283 776 q 275 771 278 776 q 268 767 271 767 q 261 764 261 767 m 261 533 l 261 539 q 260 538 260 542 q 261 533 257 529 m 217 319 q 215 322 221 319 q 211 324 213 324 q 211 322 210 324 q 211 314 214 322 q 211 308 207 307 q 214 314 214 308 q 217 319 214 317 m 225 361 q 232 365 229 365 q 231 365 231 365 q 226 365 229 368 q 221 361 221 365 q 225 361 221 357 m 247 403 q 250 407 250 403 q 254 410 250 413 q 258 411 260 408 q 263 421 256 414 q 268 432 267 426 q 265 435 269 438 q 257 426 261 432 q 249 413 253 419 q 244 402 246 407 q 246 397 243 397 l 246 400 l 246 400 q 247 403 243 403 m 267 43 q 270 48 272 46 q 260 50 268 50 q 251 48 253 50 q 256 43 249 46 l 260 43 q 261 42 260 42 l 263 43 l 267 43 m 282 78 q 286 81 289 78 q 278 83 282 83 q 274 81 274 83 q 282 78 274 78 m 289 83 q 292 85 292 85 q 289 89 292 86 q 286 88 286 89 q 289 83 286 83 m 317 54 q 325 58 325 57 q 317 57 325 60 q 301 51 308 54 q 301 49 294 47 q 317 54 307 50 m 492 244 q 500 258 497 253 q 501 268 503 263 q 493 282 499 274 q 476 303 488 290 q 452 331 465 315 q 432 354 439 346 q 419 369 424 364 q 409 373 414 374 q 397 365 404 372 q 378 344 390 358 q 299 251 326 292 q 269 185 272 210 q 285 152 265 160 q 351 157 306 144 q 432 193 393 169 q 492 244 471 217 m 503 356 q 501 361 504 360 q 490 356 492 365 q 493 350 488 350 q 503 356 499 350 m 515 639 q 519 646 519 642 q 514 650 519 650 q 508 641 511 650 q 507 631 504 632 q 510 631 513 628 q 515 639 510 635 m 538 215 q 542 221 542 219 q 540 225 542 225 q 536 219 539 225 q 538 215 533 214 m 551 235 q 551 239 554 235 q 547 242 551 246 q 547 237 544 239 q 551 235 549 235 m 557 321 q 552 323 553 324 q 554 315 551 322 q 561 311 561 299 q 557 321 561 317 m 560 297 q 563 299 563 299 q 560 301 563 301 q 557 300 557 304 q 560 297 557 297 m 639 225 q 642 229 644 225 q 638 235 642 235 q 635 229 635 235 q 639 225 635 225 m 692 146 q 696 147 693 144 q 699 154 699 150 q 693 156 699 156 q 690 152 690 156 q 692 146 689 149 m 704 115 q 701 121 704 118 q 699 121 699 124 q 704 115 699 113 m 740 163 q 740 168 736 168 q 740 171 746 168 q 736 176 736 174 q 733 180 736 181 q 729 174 729 179 q 733 169 729 169 q 733 167 738 171 q 733 161 728 163 q 739 156 739 160 q 740 154 738 153 q 740 163 743 157 m 746 104 q 751 104 751 101 q 752 106 753 104 q 749 108 751 107 q 743 108 746 111 l 744 107 q 746 104 746 106 m 757 75 q 761 83 761 78 q 757 83 761 86 q 753 75 753 82 q 757 75 753 72 m 758 99 q 761 101 761 99 q 760 104 761 104 l 758 104 q 757 101 758 103 q 758 99 754 99 z "},"'":{"ha":299,"x_min":44,"x_max":253,"o":"m 199 979 q 228 957 215 976 q 247 912 240 938 q 252 858 253 886 q 242 808 251 829 q 218 778 233 792 q 185 755 203 764 q 147 743 167 746 q 110 746 126 740 q 91 758 97 750 q 85 774 85 765 q 93 788 86 782 q 114 793 100 793 q 138 800 125 793 q 151 813 151 807 q 121 819 151 818 q 85 826 96 822 q 65 840 75 831 q 46 893 44 864 q 65 946 47 922 q 111 982 82 969 q 172 985 140 994 q 187 982 179 983 q 199 979 194 981 m 169 897 l 169 893 q 172 894 176 886 q 169 897 172 900 m 132 928 q 131 924 125 925 q 132 919 136 922 q 132 918 129 917 q 138 925 138 918 q 132 928 138 931 m 128 881 q 125 879 125 881 q 128 876 124 876 q 132 879 132 876 q 128 881 132 881 m 75 889 q 74 883 74 888 q 78 886 78 878 q 75 889 78 889 m 78 863 q 81 861 78 858 q 78 868 83 864 q 72 868 72 872 q 75 864 72 864 q 78 863 78 865 m 88 857 q 90 858 90 857 l 88 861 q 85 860 85 864 q 88 857 85 857 m 110 925 q 107 931 113 928 q 104 929 103 931 q 103 926 107 926 q 100 921 100 926 q 94 915 100 915 q 90 906 90 913 q 94 899 90 900 q 103 904 103 894 q 106 908 103 908 q 108 911 108 908 q 106 913 108 915 q 104 915 103 910 q 110 925 106 921 m 118 879 q 115 876 115 881 q 117 867 115 869 q 121 871 119 865 q 118 879 121 874 m 125 842 q 135 846 133 836 q 132 849 135 851 q 121 847 129 847 q 118 842 113 850 q 123 835 121 836 q 122 840 125 835 q 125 842 121 844 m 140 883 q 142 892 142 883 q 139 896 142 904 q 136 894 136 890 q 133 893 136 899 q 140 883 129 888 m 153 858 q 158 864 161 861 q 149 860 153 864 q 144 853 142 854 q 153 858 146 853 m 163 931 q 168 926 167 926 l 168 931 q 164 935 168 935 q 163 931 160 935 m 168 851 q 174 850 169 849 q 178 854 178 851 q 172 856 178 856 q 168 851 167 856 m 185 931 q 178 929 178 931 q 194 905 185 914 q 200 907 204 896 q 194 911 196 911 q 199 914 190 911 q 203 916 203 915 q 201 917 204 917 q 196 924 196 917 q 193 929 196 929 q 185 931 189 929 m 194 869 q 191 878 192 874 q 193 883 190 883 q 194 888 197 883 q 188 882 192 890 q 183 874 183 875 q 188 869 183 872 q 195 867 194 867 q 194 869 196 867 m 204 858 q 206 864 208 863 q 200 861 203 865 q 192 857 199 857 q 183 854 183 857 q 192 851 181 851 q 199 852 196 851 q 200 853 201 853 q 204 858 200 857 m 222 893 q 226 894 225 893 q 224 894 226 894 q 221 899 221 896 q 218 901 224 901 q 217 897 213 901 q 222 893 217 893 z "},"(":{"ha":483,"x_min":28,"x_max":417,"o":"m 406 968 q 413 953 417 961 q 383 922 408 944 q 363 903 371 911 q 354 893 354 894 q 349 890 354 890 q 340 883 343 890 q 331 876 338 876 q 324 871 324 874 q 318 861 324 869 q 313 846 313 856 q 310 829 311 828 q 303 826 307 832 q 300 815 299 819 q 299 811 301 810 q 296 799 296 811 q 294 787 296 790 q 289 779 293 783 q 282 767 281 772 q 281 763 285 760 q 279 758 276 767 q 269 742 279 754 q 264 713 249 722 q 261 708 268 711 q 256 697 254 707 q 253 689 257 689 q 247 672 249 689 q 238 649 247 657 q 233 636 229 640 q 233 628 239 633 q 227 618 228 622 q 231 614 226 614 q 228 603 233 614 q 225 586 221 593 q 225 576 226 581 q 222 575 222 574 q 224 579 221 576 q 224 583 225 583 q 219 579 224 583 q 215 568 206 568 q 225 565 231 571 q 221 565 224 561 q 218 567 218 571 q 213 564 218 564 q 214 561 208 565 q 217 550 219 557 q 218 540 214 544 q 214 529 222 538 q 211 513 203 515 q 215 514 215 513 q 218 515 215 518 q 219 510 222 515 q 215 485 215 504 q 213 472 214 478 q 210 463 213 465 q 208 454 207 454 q 210 449 213 454 q 206 442 210 442 q 203 436 203 442 q 206 429 203 431 q 210 431 210 425 q 213 429 213 436 q 210 424 213 424 q 206 418 206 424 q 210 410 207 413 q 214 404 214 408 q 211 400 214 400 q 210 393 210 400 q 207 388 210 386 q 204 382 204 388 q 203 375 204 379 q 203 367 203 371 q 204 358 201 357 q 206 349 208 360 q 203 337 203 342 q 200 321 203 332 q 196 319 200 318 q 188 325 192 319 q 183 328 185 329 q 183 325 182 328 q 185 315 185 321 q 188 314 185 311 q 197 311 192 317 q 201 307 204 307 q 203 303 201 307 q 204 289 207 299 q 206 279 204 279 q 208 268 208 279 q 212 256 208 261 q 218 254 215 251 q 219 247 219 254 q 222 236 217 240 q 231 235 226 232 q 233 235 233 240 q 229 231 233 233 q 226 224 228 229 q 226 211 225 218 q 228 199 226 204 q 231 194 229 194 q 235 185 236 194 q 234 178 233 179 q 236 181 235 178 q 238 183 238 183 q 239 183 239 183 q 242 169 242 172 q 244 165 243 167 q 256 136 249 161 q 308 39 268 92 q 335 -8 332 7 q 319 -31 338 -24 q 303 -33 310 -33 q 276 -24 297 -32 q 209 16 242 -10 q 149 74 176 42 q 103 141 122 106 q 78 210 85 176 q 75 224 78 213 q 69 251 72 236 q 143 758 28 439 q 176 828 156 793 q 217 893 196 864 q 257 941 238 922 q 289 960 276 960 q 298 962 292 960 q 311 967 304 964 q 333 972 319 969 q 362 974 347 974 q 389 972 376 974 q 406 968 401 971 m 211 154 q 210 151 210 156 q 211 149 210 147 q 211 154 214 149 m 213 138 q 210 135 210 138 q 213 132 210 132 q 215 135 215 132 q 213 138 215 138 m 203 189 q 200 181 200 189 q 203 176 200 174 q 206 186 206 179 q 203 189 206 189 m 175 507 q 178 503 174 503 q 182 507 182 503 q 179 511 182 511 q 175 507 178 511 m 179 524 q 178 521 175 524 q 179 518 179 518 l 181 517 q 182 521 182 517 q 179 524 182 524 m 172 524 q 171 522 171 526 q 172 518 171 517 q 172 524 172 524 m 135 500 q 137 494 132 496 q 144 496 142 492 q 142 501 147 499 q 135 500 138 507 m 119 268 q 115 271 121 272 q 114 267 110 269 q 119 268 118 264 m 110 563 q 104 557 104 560 q 110 561 104 553 q 110 563 114 567 m 104 546 q 101 531 111 540 q 97 513 99 528 q 97 499 94 499 l 103 501 q 104 507 107 504 q 103 511 100 511 q 106 521 106 511 q 107 529 104 529 q 110 538 110 529 q 106 549 110 546 q 101 550 101 553 q 104 546 101 549 m 96 490 q 92 487 93 490 q 94 481 92 483 q 99 478 94 478 q 99 481 104 478 q 97 486 94 481 q 96 490 97 490 m 82 396 q 81 394 78 393 q 89 397 85 394 q 93 411 93 400 q 89 431 92 433 q 88 426 83 431 q 88 425 88 425 q 85 421 88 424 q 81 414 81 419 q 85 417 81 411 q 88 417 90 425 q 85 404 85 408 q 82 396 85 399 m 88 381 q 86 388 88 385 q 82 385 83 392 q 83 379 81 381 q 88 381 85 378 m 89 286 q 92 286 90 283 q 94 293 94 289 q 92 301 94 299 q 88 297 89 303 q 89 286 86 292 m 93 454 q 94 457 94 454 q 92 460 94 460 q 90 457 88 460 l 93 454 m 113 254 q 111 264 117 260 q 101 271 106 267 q 99 263 99 274 q 101 254 100 258 q 104 249 101 250 q 110 249 111 244 q 113 254 107 251 m 122 181 q 128 183 128 181 q 124 186 128 186 q 121 190 121 183 q 119 192 122 196 q 122 181 111 181 m 131 485 q 128 481 128 482 q 132 483 129 481 q 135 485 135 485 q 136 486 136 485 q 131 485 135 489 m 131 176 q 134 174 132 171 q 136 185 136 178 q 133 185 139 188 q 131 176 131 182 m 143 344 q 143 357 150 340 q 133 365 140 365 q 129 356 126 364 q 135 342 132 346 q 139 340 139 338 q 143 344 142 344 m 146 506 q 149 508 149 506 q 147 511 149 511 l 144 508 q 146 506 142 506 m 149 633 q 150 640 153 640 q 145 639 147 643 q 144 632 143 635 q 149 633 146 626 m 149 643 q 151 649 151 643 q 149 653 151 653 q 146 649 146 653 q 149 643 146 643 m 150 656 q 154 656 153 656 q 154 657 156 657 q 149 657 151 660 q 147 656 146 657 q 150 656 147 656 m 157 394 q 160 390 156 390 q 164 394 164 390 q 161 397 164 397 q 157 394 157 397 m 163 121 q 166 117 165 117 q 165 122 167 118 q 163 125 163 125 q 163 121 161 124 m 168 275 q 168 279 171 278 q 169 283 168 282 q 171 290 175 283 q 165 294 169 299 q 164 288 161 290 q 165 279 165 286 q 168 275 165 274 m 181 207 q 183 224 183 222 q 181 222 183 225 q 178 225 172 214 q 175 229 179 231 q 169 221 171 228 q 172 211 168 214 q 175 204 178 208 q 176 199 172 199 q 181 207 179 199 m 185 307 q 182 304 182 307 q 186 301 182 301 q 189 304 192 301 q 185 307 189 307 m 181 382 q 188 379 183 378 q 193 386 193 381 q 185 394 193 392 q 179 397 179 397 q 183 393 179 396 q 186 385 194 385 q 181 382 178 386 m 192 350 q 192 353 193 349 q 185 360 186 360 q 186 357 183 361 q 185 350 188 353 q 185 342 182 350 q 188 343 186 336 q 192 350 190 351 m 192 574 q 192 578 196 578 q 185 563 185 578 q 181 554 185 557 q 181 550 172 550 q 184 549 183 550 q 183 549 185 549 q 181 544 181 547 q 185 543 183 540 q 188 551 188 546 q 192 574 188 568 m 200 796 q 201 804 204 799 q 193 799 200 811 q 185 790 186 789 q 183 783 182 792 q 188 772 185 775 q 194 775 189 769 q 200 783 200 781 q 196 783 200 786 q 193 786 192 781 q 200 796 194 792 m 207 829 q 206 833 211 833 q 203 829 203 833 q 204 825 203 826 q 204 824 204 825 q 207 829 207 824 m 217 692 q 218 694 218 692 q 215 697 218 697 q 214 694 211 697 l 217 692 m 219 707 q 224 703 224 697 q 219 713 225 707 q 217 715 217 715 q 219 707 217 714 m 231 722 q 231 729 233 726 q 226 724 229 731 q 229 713 224 713 q 229 715 232 713 q 231 722 228 715 m 240 760 q 242 765 243 765 q 238 763 240 767 q 240 760 236 757 m 242 769 q 246 774 246 769 q 242 776 246 776 q 239 774 239 776 q 242 769 239 769 m 254 794 q 256 802 257 801 q 251 800 256 803 q 247 792 246 794 q 246 786 250 790 q 246 782 242 785 q 251 783 250 781 q 254 794 251 786 z "},")":{"ha":485,"x_min":67,"x_max":425,"o":"m 414 689 q 422 644 419 664 q 425 602 425 625 q 423 549 425 579 q 415 474 421 519 q 402 397 411 440 q 380 307 393 353 q 351 215 367 261 q 319 132 336 169 q 293 85 311 111 q 256 37 275 60 q 220 -2 238 14 q 194 -18 203 -18 q 185 -20 192 -18 q 172 -25 179 -22 q 132 -32 158 -31 q 90 -31 106 -33 q 69 -16 67 -26 q 100 19 72 -6 q 121 39 113 31 q 129 49 129 47 q 136 51 129 51 q 142 57 142 51 q 150 65 142 64 q 160 71 160 65 q 165 79 160 74 q 171 96 171 88 q 174 113 172 114 q 181 116 176 110 q 183 126 185 122 q 185 131 181 133 q 186 142 186 129 q 188 154 186 150 q 194 163 190 158 q 201 174 201 168 q 203 179 200 179 q 204 183 204 178 q 208 191 204 186 q 215 200 211 196 q 224 217 222 208 q 219 228 226 225 q 222 233 217 232 q 228 243 229 235 q 229 253 226 253 q 236 268 235 253 q 238 283 236 279 q 246 293 240 288 q 250 304 254 301 q 250 314 246 308 q 256 324 256 319 q 253 328 257 328 q 256 339 251 328 q 258 356 263 349 q 258 365 257 361 q 262 367 261 368 q 260 363 263 365 q 267 363 258 356 q 271 370 271 367 q 267 372 271 374 q 258 376 254 372 q 263 375 261 379 q 265 375 265 369 q 271 376 265 378 q 269 381 278 374 q 267 392 265 385 q 267 397 267 394 q 265 401 267 400 q 269 413 263 406 q 272 428 283 424 q 268 426 268 431 q 265 425 268 425 q 264 431 261 428 q 267 443 267 436 q 268 453 267 451 q 269 461 272 457 q 272 478 268 468 q 275 486 281 486 q 274 493 272 488 q 278 499 275 499 q 281 504 281 499 q 278 513 281 510 q 274 511 274 517 q 271 513 271 506 q 274 517 271 517 q 277 523 278 517 q 274 531 276 529 q 269 538 269 533 q 272 542 269 542 q 274 549 274 542 q 275 554 274 554 q 279 558 279 554 q 280 565 279 561 q 281 574 281 569 q 279 582 282 583 q 278 592 274 581 q 281 604 281 599 q 283 621 281 610 q 288 622 283 624 q 296 615 292 621 q 300 617 300 610 q 299 626 299 621 q 294 626 299 629 q 285 631 292 626 q 281 633 282 632 q 282 635 281 635 q 281 639 283 635 q 279 651 276 643 l 279 658 q 278 661 278 660 q 275 672 275 661 q 272 685 275 681 q 265 688 268 690 q 264 693 264 686 q 263 705 267 700 q 254 707 258 710 q 250 706 250 703 q 254 711 250 710 q 258 717 257 711 q 258 730 258 724 q 256 742 257 736 q 253 747 256 747 q 249 756 247 747 q 249 763 250 761 q 247 761 249 764 q 244 758 244 756 q 238 776 240 775 q 234 784 236 776 q 229 803 232 792 q 224 824 226 814 q 218 838 221 833 q 209 853 215 843 q 195 874 203 863 q 180 896 188 886 q 168 911 172 906 q 151 940 156 926 q 151 963 147 954 q 165 974 154 972 q 192 969 175 976 q 204 965 197 967 q 217 960 211 963 q 277 924 246 949 q 335 866 308 899 q 381 799 361 833 q 406 732 400 764 q 408 717 406 729 q 414 689 411 704 m 272 786 q 274 792 274 788 q 271 790 271 797 q 272 786 271 788 q 272 786 272 785 m 271 803 q 274 806 274 803 q 271 810 274 810 q 268 806 268 810 q 271 803 268 803 m 281 753 q 283 763 283 756 q 281 764 283 772 q 278 756 278 760 q 281 753 278 751 m 238 160 q 239 164 233 160 q 243 171 246 168 q 237 167 240 174 q 231 150 233 161 q 228 140 228 142 q 232 142 228 139 q 236 147 238 147 q 238 154 233 150 q 238 160 242 160 m 244 179 q 244 182 247 185 q 240 176 240 181 q 242 174 240 174 q 244 179 243 175 m 267 226 q 265 231 271 222 q 263 235 264 233 q 261 240 263 238 q 260 236 260 243 q 257 228 260 228 q 254 225 254 228 q 251 214 254 222 q 253 208 251 208 q 256 217 256 211 q 260 225 256 221 q 267 226 264 229 m 268 243 q 271 244 271 244 q 268 247 271 247 q 265 247 265 250 q 268 243 265 243 m 401 563 q 397 561 399 565 q 397 554 394 557 q 400 556 399 550 q 401 563 403 561 m 392 656 q 389 649 389 657 q 392 640 389 642 q 394 639 394 639 l 396 638 l 396 646 q 392 656 396 654 m 371 686 q 372 678 367 682 q 377 674 375 675 q 381 671 379 672 q 384 669 383 668 q 385 678 385 669 q 383 689 383 683 q 378 693 381 692 q 374 693 374 696 q 371 686 376 692 m 349 765 q 349 757 344 753 q 351 765 354 757 q 349 765 351 771 m 338 436 q 335 433 335 436 q 336 431 335 431 l 339 433 q 338 436 342 436 m 319 822 q 318 821 317 825 q 322 817 321 815 q 319 822 322 819 m 299 635 q 301 638 301 635 q 297 640 301 640 q 294 638 292 640 q 299 635 294 635 m 292 592 q 293 586 289 592 q 298 580 296 581 q 297 585 300 579 q 299 592 296 589 q 299 595 300 593 q 299 600 299 597 q 296 597 296 606 q 292 592 296 590 m 293 561 q 290 554 289 558 q 297 547 292 550 q 300 549 311 540 q 295 554 296 551 q 297 556 294 557 q 300 558 300 556 q 294 568 300 568 q 293 565 293 568 q 293 561 296 564 m 278 108 q 281 113 281 108 l 281 115 q 279 117 279 117 q 276 113 276 117 q 278 108 275 108 m 299 151 q 300 158 301 150 q 296 169 299 165 q 289 165 296 172 q 283 157 283 158 q 286 158 283 156 q 289 155 290 161 q 285 146 288 149 q 281 138 281 143 q 285 133 283 132 q 290 143 286 133 q 299 151 296 154 m 303 388 q 303 390 308 390 q 301 393 293 390 q 301 399 306 397 q 297 396 299 401 q 294 375 296 390 q 292 368 294 371 q 289 363 289 365 q 290 362 289 361 q 293 365 292 363 q 299 378 299 371 q 303 388 299 386 m 308 435 q 306 439 311 439 q 301 435 301 439 q 304 431 301 431 q 308 435 307 431 m 308 711 q 314 721 314 714 q 311 731 317 728 q 308 738 306 731 q 307 743 308 743 q 303 735 306 743 q 300 718 300 719 q 303 719 300 717 q 306 717 310 724 q 308 711 304 710 m 313 415 l 313 421 q 310 419 311 424 q 313 415 310 415 m 313 650 q 318 647 314 643 q 319 654 322 649 q 318 663 315 658 q 315 665 318 667 q 315 661 311 665 q 314 658 315 658 q 313 650 310 657 m 322 544 q 326 547 324 544 q 324 550 329 550 q 319 547 319 550 q 322 544 319 544 m 332 283 q 336 285 338 283 q 334 285 335 285 q 331 285 333 286 q 332 283 328 283 m 335 289 q 338 293 338 289 q 335 297 338 297 q 331 293 331 297 q 335 289 331 289 m 339 304 q 338 310 342 307 q 333 307 336 314 q 334 301 332 301 q 339 304 336 300 m 340 597 q 340 583 335 601 q 349 576 343 575 q 353 588 356 578 q 347 600 350 594 q 343 600 343 606 q 340 597 343 594 m 350 443 q 349 446 353 449 q 343 446 343 440 q 342 448 343 447 q 342 447 342 449 q 340 441 339 446 q 344 436 342 436 q 350 443 346 436 m 349 454 q 354 457 351 454 q 351 458 354 460 q 349 454 343 454 m 363 750 q 364 749 361 746 q 367 757 367 754 q 361 761 367 761 q 356 758 356 761 q 358 756 356 756 q 363 750 363 756 m 364 672 q 368 669 363 669 l 374 672 q 369 675 374 675 q 364 672 364 675 m 376 381 q 375 382 381 386 q 371 376 369 376 q 376 381 375 376 m 381 394 q 382 411 374 403 q 385 419 385 414 q 387 429 386 424 q 387 438 388 435 q 383 440 386 442 l 379 440 q 378 439 379 439 q 379 435 378 439 q 379 431 383 431 q 378 421 378 431 q 376 413 381 413 q 374 404 374 413 q 378 393 374 396 q 381 390 379 390 q 382 390 382 389 q 381 394 385 390 m 388 450 q 392 454 392 454 q 389 456 392 457 q 385 453 386 456 q 388 450 382 447 m 392 481 q 394 482 394 482 q 392 486 394 483 q 389 485 389 486 q 392 481 389 481 m 394 510 q 397 519 397 513 q 401 544 397 543 q 401 547 407 547 q 390 538 394 547 q 390 519 386 528 q 392 510 394 513 q 394 510 392 508 m 400 522 q 403 526 403 522 q 400 528 403 529 q 397 522 397 525 q 400 522 397 519 z "},"*":{"ha":858,"x_min":36,"x_max":810,"o":"m 690 385 q 660 381 675 385 q 640 374 644 378 q 643 365 638 371 q 668 336 649 358 q 746 213 738 261 q 700 150 754 165 q 661 147 681 144 q 619 163 642 150 q 568 199 596 175 q 504 257 540 222 q 466 294 481 281 q 441 310 451 307 q 424 306 431 313 q 407 283 417 299 q 390 258 401 274 q 367 226 379 242 q 344 197 356 210 q 328 176 333 183 q 272 142 307 154 q 215 136 236 129 q 196 296 135 167 q 211 334 207 319 q 209 358 215 349 q 186 374 203 368 q 138 386 169 379 q 52 441 68 401 q 83 521 36 481 q 182 563 125 554 q 207 568 199 565 q 215 578 215 571 q 203 599 214 585 q 174 639 193 614 q 131 699 146 675 q 112 742 115 724 q 117 773 108 760 q 143 799 125 786 q 231 803 183 825 q 350 703 279 782 q 392 660 376 675 q 420 642 408 644 q 442 650 432 640 q 467 681 453 660 q 517 746 494 721 q 558 783 539 771 q 597 798 578 796 q 639 793 617 800 q 682 765 667 785 q 699 719 697 746 q 688 663 700 693 q 651 600 676 632 q 620 556 622 565 q 633 540 618 547 q 651 535 643 536 q 683 536 660 535 q 777 522 744 539 q 808 469 810 506 q 799 438 808 453 q 772 410 789 422 q 735 392 756 399 q 690 385 714 385 m 769 489 q 767 492 769 492 q 763 490 764 493 q 765 488 760 488 q 768 489 768 488 q 769 489 769 489 m 753 497 q 743 493 739 501 q 751 491 746 490 q 760 494 757 492 q 758 496 761 494 q 753 497 756 497 m 726 464 q 721 463 721 464 q 724 453 721 447 q 738 456 726 456 q 746 457 747 456 q 744 464 742 458 q 742 464 746 467 q 739 467 738 460 q 736 469 740 474 q 726 464 731 464 m 688 444 q 689 442 683 444 q 693 442 694 438 q 688 444 690 444 m 186 760 q 183 758 183 760 q 186 754 183 754 q 189 756 189 756 q 186 760 189 757 m 172 728 q 171 735 175 731 q 168 733 168 738 q 164 733 168 729 q 160 732 160 736 q 161 728 161 731 q 161 725 161 726 q 167 724 163 722 q 172 728 171 725 m 193 743 q 193 749 196 746 q 179 751 190 751 q 169 749 167 751 q 182 747 172 746 q 192 746 192 749 q 193 743 192 744 q 193 743 193 743 m 142 525 q 140 529 156 526 q 131 528 135 529 q 124 525 126 526 q 119 520 119 521 q 126 522 119 519 q 142 525 136 522 m 268 514 q 268 513 267 511 q 272 517 269 514 q 278 526 279 524 q 269 524 276 528 q 265 521 267 521 q 265 522 264 521 q 256 517 272 533 q 250 507 246 508 q 258 507 258 503 q 264 514 258 508 q 268 514 272 518 m 283 321 q 285 331 290 321 q 276 331 281 336 q 273 323 272 325 q 278 326 274 321 q 281 330 281 329 q 281 326 282 331 q 283 321 278 321 m 325 588 q 326 594 329 590 q 315 599 321 599 q 310 593 310 599 q 314 590 310 589 q 318 589 318 593 q 325 588 318 586 m 367 517 q 369 521 369 517 q 363 522 369 524 q 354 517 357 519 q 351 515 354 515 q 347 514 347 519 q 353 513 344 511 q 367 517 363 514 m 392 578 q 385 580 394 581 q 372 576 376 579 q 369 569 369 574 q 372 571 369 568 q 375 574 375 576 q 379 574 375 569 q 388 576 382 576 q 392 578 390 574 m 429 397 q 439 403 432 397 q 443 411 446 408 q 438 410 443 413 q 432 408 432 404 q 429 406 429 408 q 422 394 429 401 q 415 383 415 388 q 414 378 418 378 q 417 376 411 376 q 424 379 424 376 l 421 385 q 418 387 418 386 q 421 385 418 388 l 426 382 q 429 385 429 382 q 425 388 429 388 q 424 392 419 388 q 429 397 426 397 m 478 472 q 481 475 481 472 q 479 478 481 478 l 476 475 q 478 472 474 472 m 617 740 q 617 736 611 740 q 622 736 622 733 q 617 740 622 740 m 521 715 q 524 715 518 710 q 531 717 529 718 q 531 718 532 715 q 533 722 529 722 q 538 726 538 722 q 531 726 538 731 q 521 715 524 722 m 504 694 q 511 696 504 686 q 510 699 514 700 q 504 694 504 696 m 532 372 q 536 372 532 371 q 540 369 540 372 q 543 367 540 367 q 544 371 547 367 q 538 376 543 375 q 532 372 532 376 m 536 461 q 538 460 533 454 q 541 463 540 461 q 540 464 542 464 q 536 461 539 465 m 538 325 q 543 324 538 322 q 553 329 549 325 q 555 334 556 333 q 546 335 554 335 q 538 325 536 335 m 549 238 q 556 235 554 235 q 553 239 557 235 q 547 246 547 240 q 544 251 547 249 q 543 247 540 254 q 549 238 546 240 m 549 697 q 553 701 551 697 q 556 707 556 704 q 551 708 556 708 q 547 704 547 708 q 543 703 547 701 q 541 703 542 704 q 542 701 540 703 q 538 692 544 699 q 532 689 532 686 q 529 688 532 693 q 526 685 526 679 q 519 685 526 689 q 515 678 513 681 q 514 675 515 674 l 508 672 q 508 668 504 668 q 508 664 513 668 q 513 660 504 660 q 518 663 521 660 q 522 665 518 665 q 526 668 526 665 q 529 669 526 669 q 531 672 531 668 q 538 686 528 676 q 547 697 547 696 l 549 697 m 585 211 q 583 213 589 215 q 574 213 581 210 q 568 215 568 215 q 572 213 568 215 q 585 211 582 206 m 601 635 q 600 632 597 635 q 603 628 600 628 l 604 629 l 604 632 q 601 635 604 635 m 600 260 q 604 256 601 257 q 607 258 607 256 q 603 263 607 261 q 600 260 597 265 m 614 650 q 628 661 619 644 q 631 669 629 664 q 636 676 633 674 q 640 682 640 682 q 636 679 640 682 q 617 661 617 667 q 608 651 617 660 q 604 639 600 643 q 610 636 607 635 q 611 644 613 638 q 614 650 611 651 m 633 290 q 632 294 636 290 l 632 294 q 628 296 628 299 q 630 290 628 293 q 633 290 632 288 z "},"+":{"ha":619,"x_min":40,"x_max":606,"o":"m 489 628 q 567 536 606 613 q 532 497 551 507 q 465 485 513 488 q 428 481 442 483 q 407 468 415 478 q 394 439 399 458 q 382 386 389 419 q 343 308 371 329 q 274 304 315 288 q 238 337 250 315 q 217 407 225 358 q 208 449 213 433 q 197 474 204 465 q 179 485 190 482 q 149 489 168 488 q 67 514 93 493 q 42 559 40 535 q 73 605 43 583 q 158 631 103 626 q 183 634 175 632 q 203 643 192 636 q 216 651 211 647 q 224 662 221 654 q 232 684 228 669 q 243 728 236 699 q 281 813 261 792 q 333 824 300 833 q 369 794 358 817 q 386 717 379 772 q 392 672 389 688 q 406 647 396 656 q 435 635 415 639 q 489 628 454 632 m 197 554 q 199 561 199 556 q 194 558 194 569 q 197 554 194 554 m 308 735 q 304 726 306 733 q 306 718 303 718 q 308 728 308 718 q 310 733 310 731 q 308 735 310 736 m 293 638 q 294 635 294 635 q 297 638 297 635 q 296 640 300 640 q 293 638 293 640 m 297 368 q 304 365 304 358 q 300 377 303 372 q 294 379 297 382 q 297 368 293 375 m 308 678 q 313 683 313 678 q 309 690 313 690 q 304 683 306 690 q 308 678 303 676 m 326 425 q 325 428 329 429 q 321 421 321 426 l 321 418 q 323 420 322 418 q 326 425 324 422 m 404 576 q 407 579 407 574 q 401 583 407 583 q 393 575 394 582 q 396 563 392 568 q 401 560 399 560 q 400 563 403 560 q 401 567 399 564 q 403 574 404 569 q 404 576 403 576 m 436 557 q 436 563 439 560 q 435 565 436 565 q 435 561 435 564 q 435 557 435 558 q 436 557 436 556 m 479 565 q 485 578 493 578 q 469 563 475 578 q 469 556 467 556 q 479 565 471 557 m 515 567 q 519 563 517 563 q 522 565 522 563 q 518 569 522 565 q 515 567 513 572 z "},",":{"ha":286,"x_min":42,"x_max":246,"o":"m 89 172 q 158 190 126 190 q 210 174 189 189 q 238 130 231 158 q 236 64 246 101 q 214 22 231 43 q 176 -13 197 1 q 133 -35 156 -28 q 92 -37 111 -42 q 72 -17 69 -32 q 99 6 75 -1 q 124 21 122 11 q 104 39 126 31 q 61 66 76 49 q 44 103 46 83 q 53 141 42 122 q 89 172 64 160 m 86 111 q 90 108 88 108 q 93 108 93 107 q 89 111 93 111 q 86 111 83 114 m 90 126 q 93 129 93 126 q 90 131 93 132 q 86 126 86 129 q 85 124 85 124 q 86 125 86 124 q 90 126 88 129 m 110 103 q 115 99 113 100 q 117 100 117 99 q 113 106 119 103 q 108 109 110 108 q 106 108 106 110 q 110 103 104 108 m 174 114 q 175 118 179 113 q 167 118 169 124 q 160 117 164 115 q 157 125 157 118 q 152 128 157 129 q 144 124 147 128 q 149 113 142 121 q 156 101 156 106 q 161 96 154 96 q 167 101 168 96 q 168 107 167 107 q 169 113 172 107 q 174 114 167 119 z "},"-":{"ha":549,"x_min":40,"x_max":514,"o":"m 504 546 q 481 471 514 490 q 356 461 447 451 q 303 465 340 464 q 229 468 267 467 q 128 473 167 469 q 69 485 89 476 q 44 508 49 493 q 44 546 40 522 q 58 581 49 568 q 93 601 68 594 q 163 610 118 608 q 281 613 207 613 q 394 611 351 613 q 460 602 438 610 q 492 581 483 594 q 504 546 500 568 m 158 557 q 161 563 165 563 q 148 559 156 563 q 143 554 140 556 q 146 550 146 553 q 139 551 143 547 q 129 553 135 556 q 128 544 122 546 q 146 546 133 542 q 149 544 150 547 q 150 542 146 540 q 151 549 151 543 q 158 557 149 551 m 274 553 q 276 558 276 554 q 272 554 275 558 q 274 553 271 550 z "},".":{"ha":288,"x_min":40,"x_max":243,"o":"m 182 174 q 219 151 206 161 q 238 132 232 142 q 243 110 243 122 q 239 79 243 97 q 192 3 226 26 q 110 -6 157 -21 q 65 22 82 3 q 44 65 49 42 q 49 112 40 88 q 79 157 57 136 q 131 180 99 175 q 182 174 163 185 m 93 113 q 96 114 94 114 l 97 115 q 94 118 97 118 q 90 115 92 118 q 93 113 88 110 m 118 100 q 119 104 122 104 q 114 100 117 104 q 114 96 113 96 l 115 97 q 118 100 118 97 m 118 133 q 124 138 124 136 q 119 140 125 140 q 104 132 115 140 q 101 122 96 122 q 104 126 107 122 q 110 128 100 131 q 114 126 113 125 q 114 128 115 126 q 118 133 113 132 m 140 103 q 138 110 146 110 q 130 107 131 107 q 126 100 129 107 q 130 94 124 93 q 140 103 136 94 m 203 99 q 204 99 203 96 q 206 106 206 101 l 206 106 q 203 113 206 113 q 203 99 199 110 z "},"/":{"ha":742,"x_min":61,"x_max":674,"o":"m 649 969 q 673 956 672 967 q 654 919 674 944 q 636 894 636 899 q 631 884 636 893 q 619 864 626 875 q 603 835 613 853 q 588 806 594 818 q 570 774 581 793 q 551 740 560 754 q 517 681 536 715 q 479 603 499 646 q 440 513 460 561 q 403 417 421 465 q 360 306 379 353 q 322 221 340 260 q 301 176 311 200 q 286 140 292 153 q 276 116 281 128 q 268 99 271 104 q 257 63 261 86 q 253 19 253 40 q 235 -20 253 -11 q 169 -25 218 -29 q 79 -9 97 -18 q 81 19 61 0 q 93 38 90 29 q 97 49 93 42 q 104 64 100 57 q 112 79 108 71 q 117 90 115 88 q 123 105 118 93 q 135 132 128 117 q 149 165 142 147 q 160 194 156 183 q 172 225 164 207 q 190 263 181 243 q 208 300 199 282 q 225 331 218 318 q 236 351 231 340 q 249 380 242 363 q 268 422 257 397 q 296 485 279 447 q 319 538 307 511 q 338 576 331 564 q 353 608 344 589 q 368 642 361 626 q 382 672 375 657 q 393 694 389 688 q 429 769 415 733 q 438 790 432 778 q 450 810 444 801 q 494 914 481 857 q 504 947 500 935 q 513 965 508 958 q 526 973 518 971 q 547 976 535 975 q 564 978 554 978 q 581 981 574 979 q 598 983 592 983 q 617 978 604 982 q 635 973 625 975 q 649 969 644 971 m 143 36 q 144 40 144 39 q 142 40 143 42 q 139 32 139 38 q 140 28 139 26 q 143 36 142 29 m 183 146 q 186 163 186 157 q 182 161 186 168 q 177 145 179 156 q 176 135 175 135 q 183 146 178 135 m 182 190 q 188 200 188 199 q 182 192 188 204 q 179 186 179 186 q 182 190 179 186 m 210 75 q 215 82 215 76 q 213 86 215 85 q 210 85 210 88 q 207 78 210 83 q 210 75 206 75 m 226 0 q 229 4 229 0 q 226 7 229 10 q 224 3 224 4 q 226 0 224 0 m 228 274 q 232 276 232 274 q 228 282 232 279 q 221 282 224 285 q 222 276 218 279 q 228 274 225 274 m 250 325 q 253 329 253 325 q 250 332 253 335 q 247 328 247 329 q 250 325 247 325 m 294 390 q 292 390 296 394 q 283 386 286 383 q 281 375 279 386 q 286 368 281 365 q 292 381 292 371 q 293 385 293 383 q 294 390 293 388 m 324 354 q 329 351 326 351 q 332 353 332 350 q 326 356 332 356 q 324 354 324 357 m 332 468 q 340 468 336 463 q 339 475 344 474 q 330 475 332 478 q 332 468 328 472 m 336 372 q 343 377 339 369 q 346 389 347 385 q 339 385 343 392 q 336 372 335 376 m 399 596 q 396 599 400 601 q 393 592 393 596 q 399 596 397 586 m 407 633 q 410 638 410 636 q 407 639 410 642 q 404 635 404 636 q 407 633 404 631 m 418 647 q 422 653 422 647 q 415 656 422 660 q 414 642 404 649 q 417 642 422 631 q 418 647 414 647 m 424 663 q 426 664 428 663 q 425 664 425 664 q 421 664 424 667 q 424 663 419 663 m 442 608 q 447 606 444 604 q 449 615 449 608 q 444 618 447 622 q 442 608 442 615 m 472 646 q 472 649 478 649 q 464 644 467 647 q 463 638 461 640 q 468 636 465 635 q 468 640 471 639 l 469 642 q 472 646 469 643 m 513 879 q 510 875 510 879 q 513 872 510 872 q 515 876 515 872 q 513 879 515 882 m 510 869 q 506 867 506 869 q 507 864 507 864 q 511 867 508 864 q 510 869 511 869 m 496 718 q 501 715 497 715 q 506 717 506 715 q 500 719 506 719 q 496 720 497 721 q 496 718 494 719 m 503 722 q 506 724 506 722 l 503 726 q 500 725 500 729 q 503 722 500 722 m 515 738 q 519 744 518 739 q 517 751 519 750 q 510 746 514 753 q 506 732 506 739 q 508 728 506 728 q 513 732 513 728 q 515 738 513 738 m 521 758 q 524 763 524 758 l 524 767 q 519 763 522 767 q 521 758 519 758 m 531 775 q 528 776 532 778 q 526 772 522 776 q 531 775 529 768 m 529 897 q 533 899 533 897 q 531 901 533 900 q 526 900 528 901 q 529 897 524 897 m 647 944 q 650 947 650 944 q 647 950 650 950 q 644 947 644 950 q 647 944 644 944 z "},":":{"ha":300,"x_min":49,"x_max":253,"o":"m 189 458 q 242 399 231 439 q 240 320 253 360 q 194 253 226 281 q 115 231 161 225 q 94 247 96 233 q 110 269 93 261 q 133 287 124 276 q 133 297 142 297 q 83 313 108 297 q 54 347 57 328 q 60 402 49 376 q 90 444 71 428 q 136 466 110 461 q 189 458 163 471 m 110 413 q 113 397 108 397 q 118 404 118 397 q 115 413 118 410 q 110 413 111 415 m 125 361 q 124 376 133 367 q 121 385 118 382 q 118 383 122 388 q 115 375 113 378 q 114 372 118 372 q 110 369 110 372 q 117 364 111 367 l 119 364 q 121 363 121 363 q 122 361 122 361 q 121 357 119 360 q 125 354 122 354 q 124 357 125 356 q 125 361 124 361 m 131 403 q 132 407 131 404 l 132 415 q 126 426 132 426 q 122 414 119 425 q 131 403 124 403 m 168 335 q 167 341 171 338 q 160 343 163 344 q 156 346 156 342 q 155 348 156 347 q 154 347 154 349 q 156 339 153 347 q 168 335 163 329 m 172 389 q 179 388 174 383 q 179 396 182 390 q 172 400 175 400 q 174 396 169 400 q 175 393 179 393 q 172 389 171 393 m 181 372 q 183 375 183 372 q 181 378 186 378 q 178 375 178 378 l 181 372 m 186 382 q 189 385 189 382 q 188 388 188 388 q 185 385 185 388 q 186 382 182 382 m 119 536 q 68 573 83 546 q 56 629 53 600 q 81 683 60 658 q 140 711 103 707 q 180 708 161 714 q 213 692 199 703 q 235 667 226 682 q 242 636 243 653 q 229 592 240 613 q 201 556 218 571 q 162 536 183 542 q 119 536 140 531 m 194 646 q 196 644 189 642 q 199 649 200 647 q 197 649 199 650 q 194 646 196 649 m 176 629 q 176 625 172 625 q 178 622 181 625 q 185 613 175 615 l 185 614 q 183 619 185 618 q 185 632 182 626 q 192 633 189 638 q 194 635 194 631 q 189 638 190 639 q 186 640 186 638 q 181 644 186 642 q 179 642 176 646 q 179 638 182 638 q 178 635 175 638 q 176 629 179 635 m 150 604 q 147 601 147 604 q 153 599 147 596 q 161 606 160 601 q 167 611 161 614 q 168 613 171 610 q 158 614 164 615 q 153 608 153 613 q 150 604 153 604 m 125 644 q 125 639 122 643 q 131 635 128 635 q 128 639 132 635 q 129 643 124 643 q 131 644 131 643 q 131 644 132 644 q 125 644 129 646 m 115 621 q 113 609 108 613 q 125 613 118 606 q 129 621 136 621 q 126 625 126 624 q 124 627 129 629 q 115 621 118 625 z "},";":{"ha":290,"x_min":43,"x_max":244,"o":"m 113 540 q 58 582 74 547 q 60 664 43 617 q 79 692 65 679 q 110 712 93 704 q 146 720 128 719 q 178 713 164 721 q 228 661 218 690 q 215 589 238 632 q 176 546 200 557 q 113 540 151 535 m 188 658 q 176 658 175 671 q 182 647 176 647 q 186 640 186 646 q 189 635 185 635 q 193 644 193 635 q 188 658 193 653 m 101 588 q 104 592 106 590 q 100 593 103 594 q 97 589 97 592 q 101 588 97 588 m 140 607 q 140 611 143 607 q 138 618 140 617 q 136 615 136 619 q 140 607 136 607 m 122 625 q 124 610 114 611 l 129 607 l 129 608 q 128 611 129 610 q 133 619 128 615 q 139 625 139 622 l 139 628 q 138 628 138 628 q 131 628 135 625 q 122 625 129 632 m 96 651 q 96 649 93 653 q 99 635 99 643 q 100 626 99 626 q 106 621 103 629 q 112 613 108 613 q 113 622 115 614 q 113 633 108 629 q 114 631 117 635 q 113 628 113 629 q 114 629 113 628 q 117 638 118 632 q 108 651 115 644 q 100 654 101 660 q 96 651 100 650 m 74 413 q 124 456 93 444 q 182 459 154 467 q 227 428 210 451 q 238 369 244 406 q 193 291 226 313 q 108 286 160 269 q 56 335 65 301 q 74 413 47 368 m 111 378 q 111 385 117 382 q 103 383 108 388 q 101 375 99 379 q 111 378 104 369 m 132 347 q 139 343 139 340 q 133 349 139 343 q 132 347 129 353 m 143 343 q 150 342 146 340 q 154 349 154 344 q 151 351 154 351 q 149 347 149 351 q 144 344 149 343 q 143 343 139 347 m 163 396 q 164 401 167 396 q 163 410 160 407 q 161 411 163 411 q 153 406 157 411 q 151 399 149 400 q 156 400 157 396 q 157 403 153 403 q 160 400 160 403 q 163 396 160 396 m 200 381 q 201 386 204 385 q 197 382 200 388 q 200 381 196 376 z "},"<":{"ha":379,"x_min":46,"x_max":321,"o":"m 269 596 l 269 478 l 269 426 q 269 376 269 408 q 267 314 268 343 q 264 251 264 276 q 267 203 264 226 q 269 153 268 185 q 269 93 269 121 q 272 5 271 46 q 278 -72 274 -36 q 255 -108 281 -97 q 185 -107 229 -118 l 185 -107 q 170 -104 178 -106 q 157 -103 163 -103 q 106 -87 124 -101 q 101 -56 89 -72 q 106 -49 104 -53 q 108 -36 107 -46 q 109 -9 108 -26 q 111 40 110 8 q 112 82 111 58 q 113 131 113 106 q 115 181 114 156 q 117 225 115 206 q 117 269 117 246 q 118 315 118 292 q 118 358 118 338 q 118 392 118 378 q 117 432 118 407 q 116 488 117 457 q 115 552 115 518 q 115 618 115 586 q 106 811 113 776 q 97 843 101 826 q 90 869 93 860 q 83 893 88 883 q 72 914 79 903 q 66 968 46 951 q 164 986 86 985 q 254 983 219 988 q 305 966 289 978 q 320 934 321 954 q 306 882 319 914 q 289 836 296 861 q 278 778 282 811 q 272 700 274 744 q 269 596 269 656 m 253 925 q 256 922 251 919 q 257 928 258 928 q 253 925 256 929 m 190 917 q 176 915 179 925 q 183 910 176 913 q 193 911 190 908 q 190 917 196 911 m 175 190 q 182 185 179 185 q 185 190 185 186 q 179 197 185 194 q 175 199 171 203 q 174 196 178 196 q 175 190 169 196 m 188 53 q 181 56 185 56 q 178 54 176 57 q 185 51 179 51 q 188 53 189 51 m 161 746 q 158 745 158 746 q 160 744 158 744 q 163 738 165 742 q 163 734 161 735 q 168 736 165 733 q 168 742 171 739 q 161 746 165 746 m 124 932 q 124 926 121 929 q 132 924 126 924 q 133 926 139 924 l 133 926 q 126 932 126 929 q 122 942 125 942 q 122 938 118 942 q 124 932 125 932 m 136 -54 l 138 -53 l 138 -50 q 135 -46 138 -46 q 133 -50 132 -46 q 136 -54 136 -54 m 140 267 q 143 271 143 267 q 140 274 143 274 q 138 269 138 274 q 140 267 138 264 m 143 282 q 140 289 140 282 q 146 293 140 294 q 146 296 150 292 q 138 288 138 307 q 146 281 139 272 q 149 288 149 283 q 146 286 146 290 q 143 282 146 282 m 142 304 q 148 302 146 301 q 147 307 150 303 q 143 308 147 308 q 140 311 140 306 q 138 313 140 318 q 142 304 138 308 m 157 529 q 158 532 158 529 q 156 535 158 535 q 154 532 151 535 q 157 529 154 529 m 157 542 q 158 539 153 542 q 163 539 167 533 q 157 542 160 542 m 160 378 q 161 374 158 372 q 167 379 164 374 q 164 385 167 385 q 161 383 161 385 l 161 382 q 160 378 161 379 m 164 211 q 165 207 161 210 q 179 208 179 203 q 175 218 179 214 q 172 219 171 222 q 169 217 175 215 q 165 217 165 219 q 164 211 168 215 m 194 -25 q 196 -21 199 -25 q 188 -18 193 -18 q 172 -14 181 -18 q 166 -10 168 -11 q 167 -12 164 -10 q 169 -17 168 -15 q 171 -22 171 -19 q 178 -28 171 -28 q 185 -31 185 -28 q 189 -33 185 -33 q 192 -29 192 -33 q 194 -25 192 -25 m 203 114 q 197 118 207 119 q 187 114 189 117 q 190 108 185 111 q 199 103 196 108 q 203 99 201 99 q 201 103 204 99 q 203 114 201 110 m 200 653 q 199 650 196 653 q 203 647 201 647 l 203 650 q 200 653 203 653 m 204 656 q 207 656 207 656 q 204 657 207 657 q 200 663 200 661 q 204 668 200 668 q 204 671 210 671 q 199 668 201 671 q 199 660 196 664 q 204 656 201 656 m 208 799 q 214 803 210 796 q 218 813 218 810 q 214 815 218 815 q 211 818 208 815 q 215 819 214 821 q 218 824 218 818 q 215 831 217 831 q 210 825 213 832 q 208 810 208 818 q 208 799 207 801 m 225 318 q 228 329 228 318 q 226 340 228 340 q 222 329 224 340 q 225 318 222 318 m 247 144 q 247 179 250 163 l 247 163 l 247 144 m 244 875 q 247 879 246 878 q 249 882 249 881 q 254 890 249 885 q 249 901 260 899 q 242 897 242 901 q 240 891 240 894 q 238 885 239 888 q 240 881 236 878 q 242 876 243 882 q 244 875 240 872 m 258 424 q 258 428 261 424 q 257 435 256 431 q 256 439 258 438 q 251 438 254 440 q 252 429 249 435 q 258 424 256 424 m 261 911 q 263 914 264 914 q 254 911 260 914 q 253 908 251 908 q 261 911 256 908 z "},"=":{"ha":722,"x_min":49,"x_max":676,"o":"m 600 506 q 659 475 642 494 q 672 433 676 456 q 643 392 668 411 q 572 361 618 372 q 501 349 544 354 q 413 340 458 343 q 326 335 367 336 q 261 338 285 335 q 243 339 257 338 q 213 343 229 340 q 128 360 156 350 q 82 388 100 369 q 67 421 68 403 q 76 456 67 439 q 106 487 86 474 q 150 504 125 500 q 260 516 196 513 q 391 519 325 519 q 514 516 457 519 q 600 506 571 513 m 206 454 q 213 453 213 453 q 210 457 214 454 q 194 460 206 460 q 183 457 182 460 q 188 456 186 454 q 189 453 192 456 q 183 451 186 450 q 173 447 179 453 q 168 438 167 442 q 165 436 169 433 q 164 437 164 438 q 167 433 164 436 q 172 426 172 431 q 175 422 172 422 q 176 426 179 422 q 181 428 175 429 q 186 431 188 426 q 183 442 183 438 q 185 444 182 447 q 188 438 188 444 q 192 432 188 432 q 194 436 194 432 q 193 440 194 440 q 190 446 190 440 q 194 449 190 451 q 197 451 200 446 q 206 454 194 456 m 214 463 q 223 460 217 460 q 228 463 229 460 q 218 465 225 465 q 214 463 208 465 m 297 414 q 296 417 300 417 q 292 414 292 417 q 293 411 293 411 q 297 414 294 411 m 326 415 q 328 424 328 417 q 325 425 328 429 q 322 429 319 419 q 314 425 322 436 q 301 422 306 419 q 300 418 293 428 q 313 411 304 413 q 326 415 322 410 m 375 422 q 378 425 375 422 q 375 429 381 429 q 372 425 371 429 l 375 422 m 432 424 q 431 429 435 429 q 428 424 428 429 q 429 419 428 419 l 431 421 q 432 424 432 424 m 438 457 q 448 453 442 451 q 454 461 454 454 q 446 467 454 464 q 435 467 438 469 q 438 457 432 464 m 515 450 q 518 454 518 450 q 515 458 518 458 q 513 454 513 458 q 515 450 513 450 m 582 450 q 585 453 589 450 q 569 458 581 456 q 553 456 547 463 q 550 447 556 453 q 547 442 546 443 q 560 442 549 442 q 575 447 574 444 q 582 450 575 450 m 317 608 q 288 608 313 608 q 235 610 264 608 q 90 629 132 613 q 49 683 49 646 q 111 744 49 724 q 296 765 174 765 q 458 763 394 765 q 558 751 521 760 q 609 729 594 743 q 624 694 624 715 q 372 611 624 619 q 337 609 353 610 q 317 608 321 608 m 549 699 q 550 696 546 696 q 553 692 553 696 q 553 688 550 688 q 561 692 556 688 q 565 695 565 694 q 558 697 565 696 q 549 699 554 699 m 464 706 q 458 703 461 707 q 463 700 458 700 q 467 696 467 700 q 471 696 467 692 q 476 696 475 699 q 479 697 478 694 q 474 707 482 703 q 467 708 467 714 q 464 706 467 706 m 396 708 q 397 701 393 706 q 403 696 400 697 q 411 701 410 696 q 408 708 415 707 q 400 706 403 708 q 397 706 397 697 q 396 708 397 708 m 324 700 q 322 690 321 696 q 325 686 322 683 q 331 685 329 686 q 335 685 333 681 q 338 686 338 690 q 348 683 338 682 q 360 686 358 683 q 357 693 363 690 q 353 701 353 697 q 340 706 353 706 q 324 700 326 706 m 118 678 q 118 685 122 679 q 110 685 114 689 q 108 678 106 682 q 118 678 111 675 m 167 678 q 169 686 174 679 q 157 693 165 693 q 146 688 146 692 q 144 685 149 685 q 144 682 142 683 q 147 679 147 682 q 152 677 146 678 q 167 678 158 676 m 189 688 q 195 695 196 694 q 188 696 194 696 q 179 689 179 696 q 189 688 179 678 m 229 685 q 235 682 235 682 l 235 683 q 233 688 233 685 q 224 694 231 693 q 218 689 218 694 q 222 686 218 685 q 229 685 226 686 z "},">":{"ha":488,"x_min":44,"x_max":447,"o":"m 406 169 q 442 121 438 138 q 428 97 447 104 q 399 95 422 96 q 350 94 376 94 q 301 97 324 94 q 275 100 279 99 q 263 112 271 103 q 242 133 254 121 q 219 159 231 146 q 197 185 207 172 q 172 216 188 196 q 140 253 156 236 q 68 342 92 308 q 48 409 44 375 q 82 490 51 443 q 174 617 113 536 q 203 656 189 636 q 222 686 217 676 q 270 744 246 728 q 331 760 294 760 q 417 740 406 758 q 389 668 429 721 q 373 644 382 657 q 358 624 364 632 q 341 601 351 617 q 319 575 331 586 q 257 498 281 529 q 224 444 233 467 q 219 405 215 422 q 236 369 222 388 q 319 265 275 317 q 406 169 363 214 m 288 617 q 287 614 286 614 q 294 617 288 614 q 299 624 301 621 q 288 617 288 626 m 276 681 q 274 671 274 675 q 278 667 275 667 q 285 671 283 667 q 283 681 288 676 q 276 681 279 685 m 233 631 q 225 621 225 622 q 230 618 225 617 q 238 624 235 619 q 240 634 242 632 q 233 631 239 636 m 68 408 q 68 414 71 411 q 67 413 67 417 q 68 408 67 407 m 119 461 q 128 463 128 453 q 125 467 132 469 q 118 468 121 465 q 115 469 114 472 q 119 461 115 467 m 139 397 q 144 389 139 394 q 150 386 149 383 q 147 396 150 388 q 139 397 139 407 m 171 518 q 174 522 174 518 q 169 524 174 526 q 157 514 164 521 q 150 497 144 497 q 156 504 153 497 q 160 508 158 508 q 161 503 161 507 q 160 502 160 501 q 164 506 161 503 q 168 515 168 510 q 171 518 168 518 m 183 308 q 186 313 186 308 q 183 317 186 317 q 181 313 181 317 q 183 308 181 308 m 217 561 q 217 568 219 567 q 210 565 215 569 q 204 558 204 561 q 208 558 204 554 q 214 558 214 561 q 217 561 214 556 m 268 210 q 269 204 264 208 q 279 201 275 201 q 282 199 282 204 q 285 194 282 194 l 285 201 q 280 210 285 207 q 268 210 275 213 m 275 168 q 281 165 276 165 q 286 168 286 165 l 281 171 q 275 168 275 172 m 281 158 q 286 154 283 156 q 289 156 289 153 q 283 158 289 158 q 281 158 281 161 m 404 122 q 408 124 410 122 q 403 124 406 126 q 404 122 400 122 z "},"?":{"ha":606,"x_min":56,"x_max":563,"o":"m 194 132 q 259 151 225 160 q 313 101 293 142 q 319 54 324 78 q 297 13 314 31 q 257 -12 281 -4 q 207 -12 233 -21 q 170 11 183 -6 q 155 49 157 28 q 163 92 153 69 q 194 132 172 114 m 474 904 q 517 865 500 883 q 544 830 535 847 q 558 792 554 813 q 563 747 563 772 q 529 630 563 682 q 414 518 496 578 q 384 495 396 506 q 361 473 372 485 q 338 444 350 461 q 310 401 326 428 q 283 328 285 365 q 304 264 282 292 q 315 217 324 240 q 279 190 307 193 q 263 190 265 188 q 244 193 263 193 q 228 196 238 194 q 213 199 219 197 q 199 201 206 200 q 190 203 193 203 q 182 206 185 203 q 179 206 179 208 q 172 206 179 201 q 154 221 164 211 q 135 242 144 231 q 121 264 125 254 q 113 383 92 324 q 213 513 135 442 q 285 582 263 558 q 308 610 308 606 q 309 613 308 613 q 310 613 310 614 q 317 615 313 611 q 318 617 319 619 q 327 622 314 608 q 356 656 340 635 q 376 708 376 682 q 354 779 376 735 q 324 818 344 800 q 281 847 303 836 q 241 858 260 857 q 214 846 222 858 q 207 838 211 843 q 200 831 203 833 q 190 818 196 828 q 180 797 185 808 q 171 776 175 786 q 167 761 167 765 q 165 749 167 758 q 159 730 163 740 q 153 710 156 719 q 149 699 150 701 q 115 681 138 679 q 78 703 92 682 q 74 722 75 710 q 69 775 72 735 q 67 826 68 801 q 63 863 65 851 q 56 919 56 899 q 70 949 56 939 q 118 961 85 958 q 211 964 151 964 q 313 962 274 964 q 380 953 353 960 q 428 935 407 947 q 474 904 449 924 m 144 918 q 143 921 147 921 q 138 918 140 921 q 139 914 138 914 q 144 918 143 914 m 193 885 q 197 892 201 888 q 196 897 194 896 q 194 905 199 900 q 185 910 189 910 q 181 905 181 911 q 186 894 182 899 q 186 886 192 892 q 193 885 179 879 m 304 907 q 312 904 308 903 q 313 910 315 906 q 306 914 311 914 q 304 907 297 914 m 364 885 q 363 889 365 886 q 358 886 360 889 q 359 881 357 882 q 364 885 361 881 m 368 900 q 367 901 371 901 q 360 896 363 901 q 361 896 360 893 q 368 900 365 900 m 361 908 q 367 905 363 906 q 371 907 371 904 l 365 910 q 361 908 360 910 m 150 331 q 151 342 154 338 q 143 338 144 349 q 145 326 143 329 q 150 331 147 324 m 172 378 q 169 385 172 383 q 167 382 167 388 q 169 376 167 376 q 172 378 172 376 m 171 363 q 174 371 176 368 q 167 365 169 378 q 167 358 167 358 q 171 363 168 358 m 239 460 q 242 463 242 460 q 239 467 242 467 q 236 463 236 467 q 239 460 236 460 m 393 633 q 392 638 396 638 q 389 633 389 638 q 390 631 389 631 q 390 629 390 629 q 393 633 393 629 m 428 865 q 429 871 432 865 q 425 875 429 875 q 425 881 422 875 q 426 884 426 885 q 419 876 425 883 q 417 873 417 874 q 418 874 417 872 q 424 869 421 875 q 428 865 426 864 z "},"@":{"ha":879,"x_min":44,"x_max":836,"o":"m 675 699 q 765 699 728 713 q 819 656 803 686 q 830 581 836 625 q 790 488 824 536 q 738 435 768 456 q 672 405 707 414 q 599 400 636 396 q 524 422 561 404 q 501 438 517 426 q 467 463 485 449 q 435 489 450 476 q 414 508 421 501 q 403 517 411 511 q 384 528 394 522 q 363 540 374 535 q 346 547 353 546 q 301 551 319 556 q 260 524 283 546 q 240 501 247 511 q 221 472 232 492 q 208 439 210 457 q 215 413 207 421 q 214 381 233 392 q 176 373 203 375 q 129 374 149 371 q 80 409 101 379 q 50 483 58 439 q 54 542 44 511 q 83 602 64 574 q 128 653 101 631 q 183 683 154 675 q 329 694 264 707 q 471 629 394 682 q 499 610 485 619 q 521 594 514 600 q 539 583 529 589 q 556 571 549 576 q 600 553 575 557 q 638 558 625 550 q 651 577 646 565 q 658 603 657 589 q 656 631 658 617 q 644 654 653 644 q 637 681 629 671 q 676 699 644 690 l 675 699 m 72 518 q 71 525 72 526 q 68 515 68 525 q 72 518 68 501 m 117 458 q 119 456 117 456 q 122 457 122 456 l 119 460 q 117 458 117 460 m 121 440 l 124 443 q 121 444 124 444 q 118 443 117 444 q 121 440 121 440 m 125 563 q 135 568 125 554 l 135 568 q 133 576 142 578 q 129 568 129 572 q 126 564 129 561 q 125 563 125 564 m 129 471 q 140 467 142 449 q 135 481 140 481 q 133 475 131 481 q 131 474 135 469 q 129 471 126 476 m 150 542 q 156 547 156 542 q 157 558 158 556 q 151 554 156 560 q 150 542 138 542 m 160 419 q 165 428 165 425 q 158 425 165 435 q 155 417 154 419 q 160 419 156 414 m 175 601 q 179 599 175 599 q 185 603 183 599 q 181 606 185 606 q 175 601 175 606 m 242 621 q 229 618 228 622 q 238 617 231 617 q 249 618 246 617 q 242 621 250 618 m 242 558 q 242 565 247 564 q 234 563 238 567 q 235 557 231 560 q 242 558 236 556 m 251 565 l 251 568 q 247 572 251 572 q 243 569 242 572 q 251 565 244 567 m 275 615 q 276 621 276 615 q 275 625 276 625 q 272 621 272 625 q 275 615 272 615 m 308 644 q 313 640 310 642 q 315 642 315 639 q 311 646 315 644 q 308 644 307 651 m 338 632 q 340 635 342 632 q 333 635 333 642 q 338 632 333 632 m 358 660 q 363 665 363 664 q 357 668 363 665 q 350 661 344 672 q 358 660 353 654 m 396 588 q 397 593 397 588 q 396 597 397 597 q 393 593 393 597 q 396 588 393 588 m 501 474 q 500 478 501 478 q 492 481 490 478 l 490 482 l 486 482 q 486 476 479 482 q 500 468 493 469 l 500 469 q 501 472 500 471 q 501 474 501 472 m 533 482 q 533 488 532 483 q 534 494 536 492 q 526 494 532 497 q 526 489 518 492 q 531 486 532 486 q 529 483 528 486 q 533 481 531 481 l 533 482 m 564 479 q 565 489 565 481 q 563 499 565 496 q 563 496 560 499 l 563 490 q 560 488 560 490 q 563 483 560 483 q 563 481 565 483 q 564 479 558 476 m 600 497 q 602 498 603 497 q 599 499 601 499 q 596 503 594 499 q 593 503 597 507 q 592 493 590 499 q 597 490 594 488 q 599 493 599 490 q 600 497 597 494 m 628 496 q 631 499 631 496 q 629 501 629 501 q 626 499 629 501 q 628 496 624 496 m 653 422 q 657 425 654 422 q 654 426 656 426 l 651 426 l 650 425 q 653 422 650 422 m 715 565 q 714 558 711 565 q 718 560 717 547 q 715 565 718 565 m 718 481 l 718 485 q 714 489 714 489 q 714 485 710 489 q 717 482 717 482 q 718 481 717 481 m 726 610 q 729 613 729 610 q 728 615 729 615 l 725 613 q 726 610 725 610 m 767 504 q 765 506 767 506 q 763 504 763 506 q 764 501 763 501 l 767 504 m 779 532 q 775 533 779 536 q 769 525 769 531 q 768 517 769 518 q 769 508 763 508 q 768 511 769 510 q 769 514 768 514 q 779 532 774 514 m 786 558 q 787 562 788 561 q 785 561 786 563 q 781 557 782 560 q 782 554 779 554 q 786 558 782 554 m 786 581 q 790 585 789 581 q 788 590 790 590 q 785 590 786 590 q 786 589 785 589 q 785 583 789 588 q 786 581 783 581 z "},"A":{"ha":883,"x_min":7,"x_max":861,"o":"m 847 346 q 803 60 861 142 q 597 -1 744 -21 q 538 30 544 6 q 572 78 531 54 q 640 167 618 104 q 660 325 663 229 q 635 388 658 367 q 578 411 613 408 q 500 399 543 414 q 416 357 457 385 q 340 289 375 329 q 286 200 306 249 q 328 56 260 132 q 335 20 344 38 q 300 -9 325 3 q 238 -25 275 -21 q 164 -21 201 -29 q 44 80 81 -3 q 28 285 7 163 q 46 365 36 328 q 69 437 56 401 q 103 508 83 472 q 150 586 124 544 q 246 743 211 682 q 292 842 281 804 q 295 898 304 879 q 260 929 286 917 q 238 941 243 936 q 233 957 233 946 q 243 975 233 968 q 276 985 253 982 q 338 990 299 989 q 438 989 378 990 q 522 988 472 989 q 610 988 572 988 q 673 986 650 988 q 707 981 696 985 q 719 972 718 978 q 719 953 721 965 q 711 934 718 940 q 686 921 704 928 q 651 876 647 907 q 703 771 656 844 q 757 672 732 725 q 801 563 782 618 q 831 453 819 508 q 847 346 843 397 m 140 393 q 136 389 136 393 q 138 386 138 386 q 142 389 139 386 q 140 393 142 393 m 78 60 q 81 56 81 54 q 78 69 81 58 q 67 89 72 83 q 65 83 60 96 q 78 60 69 69 m 82 186 q 86 193 86 189 q 82 197 86 197 q 79 190 79 197 q 82 186 79 186 m 90 249 q 93 260 93 257 q 90 262 90 263 q 88 253 90 261 q 87 246 86 246 q 90 249 88 246 m 113 36 q 118 35 118 29 l 118 35 q 114 39 118 38 q 113 36 110 40 m 128 154 q 131 158 131 154 q 128 163 131 160 q 125 160 125 165 q 128 154 125 154 m 129 167 q 132 168 132 167 q 133 168 133 168 l 132 169 q 129 174 132 171 q 125 172 125 176 q 129 167 125 167 m 131 353 q 133 357 133 353 q 131 360 133 360 q 128 357 128 360 q 131 353 128 353 m 135 378 q 134 372 133 372 q 138 376 135 371 l 138 376 q 138 382 140 379 q 135 378 135 382 m 150 50 q 154 53 154 50 q 151 56 154 56 q 150 61 150 56 q 144 72 151 67 q 138 71 136 76 q 140 60 140 63 q 144 58 140 57 q 147 57 150 64 q 150 50 147 50 m 317 31 q 314 25 314 28 q 317 24 314 24 q 319 29 319 25 q 317 31 319 31 m 258 638 q 261 628 251 628 q 268 631 268 628 q 258 638 265 647 m 197 474 q 191 471 194 474 q 189 465 188 468 q 199 467 193 457 q 197 474 200 474 m 192 338 q 188 341 190 340 q 185 339 185 342 q 192 332 185 332 q 192 338 194 332 m 182 38 q 194 38 182 32 q 196 47 201 42 q 188 50 192 54 q 183 46 186 46 q 175 42 176 47 q 178 39 174 38 q 182 38 182 39 m 196 10 q 203 10 203 3 q 199 14 203 14 q 194 15 194 17 q 196 10 193 13 m 232 160 q 232 167 235 164 l 232 167 q 228 166 229 169 q 229 160 226 163 q 232 160 232 154 m 233 531 q 231 546 235 542 q 221 549 225 549 q 222 546 218 549 q 228 542 228 546 q 229 528 226 533 q 233 531 232 524 m 238 47 q 242 49 242 47 q 235 49 239 51 q 238 47 233 47 m 238 567 q 245 567 239 564 q 251 572 251 569 q 246 575 251 575 q 239 572 240 575 q 238 567 238 571 m 247 610 q 251 614 251 610 q 247 618 251 618 q 244 614 244 618 q 247 610 244 610 m 269 90 q 273 87 274 85 q 265 103 272 89 q 260 115 263 110 q 257 124 257 121 q 254 128 257 128 q 259 112 253 128 q 269 90 265 96 m 607 729 q 607 721 603 729 q 608 719 608 719 q 610 717 608 718 l 611 714 l 611 721 q 607 729 611 729 m 606 882 q 602 890 604 889 q 600 883 600 890 q 606 874 600 874 l 606 882 m 561 811 q 560 807 556 811 q 564 797 564 806 q 565 793 564 793 q 567 799 565 793 q 568 808 568 803 q 561 811 565 811 m 460 979 q 456 976 456 979 q 460 975 456 974 l 465 978 q 460 979 465 979 m 450 978 q 447 976 447 979 q 450 974 447 974 q 453 975 453 974 l 450 978 m 325 789 q 322 776 319 785 q 332 767 325 767 q 336 763 336 767 q 335 760 335 761 q 338 761 336 760 q 342 767 342 764 q 347 772 342 772 q 350 776 353 772 q 350 781 346 781 q 351 783 354 781 q 353 788 351 788 q 356 794 356 790 q 356 801 356 797 q 357 808 357 806 q 356 814 361 819 q 353 807 351 810 q 349 807 353 806 q 344 806 344 807 q 342 803 344 800 q 333 797 332 803 q 333 793 336 793 q 330 792 332 793 q 325 789 328 790 m 301 964 q 300 961 300 964 q 306 958 303 958 q 307 961 307 958 q 301 964 304 964 m 292 701 q 293 690 283 690 q 296 694 296 690 q 299 693 296 699 q 301 696 301 690 q 297 700 304 703 q 294 703 292 699 q 292 701 296 706 m 301 368 q 303 380 304 374 q 300 385 303 386 q 296 381 296 383 l 296 378 q 294 378 294 378 q 286 374 292 381 q 285 368 281 368 q 301 368 297 364 m 324 486 q 328 486 332 481 q 322 489 325 489 q 324 486 318 489 m 333 404 q 335 399 328 400 q 344 401 340 396 q 353 406 349 406 q 356 406 358 403 q 357 413 353 408 q 358 417 360 417 q 346 417 349 419 q 339 415 344 415 q 336 414 335 418 q 333 404 336 410 m 344 371 q 342 365 342 365 q 346 369 342 365 q 353 379 354 378 l 344 371 m 364 353 q 374 364 372 361 q 378 368 376 367 q 361 353 376 368 q 356 348 358 350 q 351 343 354 346 q 347 339 349 340 q 353 343 349 339 q 364 353 357 347 m 382 428 l 382 432 q 379 431 381 432 q 375 428 378 429 q 375 422 369 422 q 382 428 379 422 m 444 414 q 444 417 447 417 q 439 414 442 417 q 440 411 436 411 q 444 414 444 411 m 465 458 q 469 461 472 458 l 464 461 q 465 458 463 460 m 539 493 q 544 500 549 496 l 542 500 q 538 499 539 500 q 531 495 535 496 q 525 493 528 494 q 493 482 500 489 q 485 478 489 478 q 485 475 482 481 q 492 472 486 472 q 501 476 499 472 q 511 479 507 479 q 514 483 517 479 q 515 486 511 486 q 526 489 518 486 q 539 493 535 493 m 492 583 q 523 590 507 586 q 549 597 539 594 q 572 602 560 600 q 590 606 583 604 q 603 606 599 606 q 608 611 607 607 q 606 626 608 615 q 597 656 603 636 q 545 765 575 728 q 482 794 515 801 q 435 758 464 790 q 376 680 406 725 q 324 585 347 635 q 294 500 301 536 q 303 497 292 486 q 314 506 307 501 q 328 514 321 511 q 347 524 333 518 q 375 538 361 531 q 406 551 389 543 q 433 564 422 558 q 492 583 461 578 m 593 574 q 618 581 618 571 q 608 585 618 585 q 587 583 599 585 q 565 577 575 581 q 553 571 554 574 q 563 568 551 567 q 572 569 568 569 q 579 569 576 569 q 583 572 586 569 q 593 574 583 576 m 622 818 q 626 824 626 808 q 624 828 626 832 q 622 818 622 825 m 635 789 q 638 793 636 792 q 639 796 639 794 q 633 797 639 797 q 631 794 625 797 q 631 788 633 792 q 635 789 628 781 m 622 46 q 621 47 625 51 q 614 50 615 47 q 610 50 608 54 q 615 43 610 46 q 618 42 618 42 l 619 40 q 622 46 619 40 m 719 135 q 711 135 714 138 q 714 129 708 133 q 719 128 722 122 q 721 131 717 131 q 719 135 724 131 m 656 675 l 658 672 q 661 675 661 672 q 658 678 664 678 q 656 675 653 678 m 658 660 q 665 651 656 654 l 665 657 q 663 663 665 663 q 658 660 661 664 m 671 574 l 671 589 q 668 608 671 606 q 668 610 668 610 l 668 614 q 665 618 671 618 q 661 611 660 618 q 664 600 664 606 q 667 594 664 594 q 665 585 668 593 q 665 578 660 576 q 669 576 669 582 q 671 574 669 574 m 683 510 q 685 501 688 506 q 685 501 683 500 q 689 506 686 503 q 694 514 697 511 q 686 517 692 518 q 683 510 681 515 m 690 50 q 693 51 693 50 l 690 54 q 688 53 688 57 q 690 50 688 50 m 696 457 q 710 456 693 454 q 710 460 713 456 q 711 465 708 463 q 713 468 717 468 q 710 472 710 468 q 703 476 713 476 q 693 471 693 476 q 696 467 693 464 q 699 465 699 468 q 696 457 699 461 m 721 78 q 725 81 724 81 q 726 82 725 82 q 724 85 729 82 q 717 89 719 89 q 715 92 715 89 q 719 108 718 96 q 717 117 719 119 q 715 113 715 117 q 714 110 718 110 q 711 101 711 110 q 708 88 711 93 q 710 74 706 78 q 721 78 714 71 m 756 333 q 756 342 757 342 q 749 340 754 343 q 743 331 742 338 q 739 324 743 324 q 736 320 736 324 q 740 314 736 317 q 749 313 744 311 q 751 318 753 314 q 753 324 749 324 q 756 333 756 324 m 765 69 q 771 69 767 64 q 775 81 775 74 q 769 82 775 88 q 765 69 764 76 m 776 447 q 783 444 782 444 q 779 449 785 444 q 774 454 775 451 q 778 454 774 457 q 781 456 781 451 q 778 458 781 458 q 772 456 775 458 q 776 447 772 451 z "},"B":{"ha":890,"x_min":11,"x_max":878,"o":"m 121 -24 q 63 -20 85 -22 q 30 -14 42 -18 q 15 -3 18 -10 q 11 14 11 3 q 16 35 11 28 q 35 50 21 43 q 80 81 63 64 q 107 125 97 97 q 122 197 117 153 q 129 310 126 242 q 130 349 129 328 q 132 392 131 371 q 134 431 133 413 q 135 464 135 450 q 140 663 140 585 q 135 788 140 742 q 117 857 129 835 q 83 889 104 879 q 51 920 54 901 q 74 956 49 939 q 88 963 81 960 q 113 967 96 965 q 160 972 129 969 q 243 978 192 974 q 663 879 547 1001 q 753 692 754 783 q 657 504 751 600 l 632 479 q 622 468 626 474 q 631 465 624 468 q 650 460 639 463 q 828 347 776 424 q 874 204 878 271 q 821 89 871 138 q 678 11 771 40 q 456 -19 585 -18 q 381 -22 419 -21 q 321 -24 342 -22 q 230 -26 276 -26 q 121 -24 183 -26 m 843 193 q 843 199 846 196 q 842 201 843 201 q 842 197 842 200 q 842 193 842 194 q 843 193 843 192 m 836 264 q 836 254 833 261 q 838 247 839 249 q 839 242 836 246 q 843 239 842 238 q 842 254 844 239 q 836 264 838 268 m 706 138 q 707 144 703 142 q 707 147 710 147 q 697 140 700 147 q 699 129 693 132 q 703 126 701 126 q 701 129 704 126 q 706 132 699 132 q 706 138 711 132 m 768 188 q 758 181 760 186 q 764 174 757 175 q 767 172 769 174 q 765 168 761 172 q 771 169 768 165 q 774 181 774 174 q 768 188 774 189 m 704 210 q 697 214 708 221 q 697 211 694 211 q 699 204 701 211 q 701 198 696 199 q 710 203 706 197 q 708 206 713 207 q 704 210 703 204 m 690 324 q 689 323 688 324 q 693 322 690 322 q 696 324 697 322 q 690 324 696 326 m 672 317 q 670 313 669 314 q 674 315 671 313 q 675 321 678 319 l 674 319 q 672 317 674 318 m 663 157 q 658 154 658 157 q 663 153 658 151 q 667 156 667 153 l 665 157 l 663 157 m 663 144 q 647 138 654 153 q 649 125 643 131 q 658 123 654 121 q 660 133 661 125 q 661 142 658 142 q 663 144 664 142 m 643 346 q 642 340 640 340 l 647 346 q 650 351 653 351 q 643 346 649 351 m 644 76 q 640 72 640 75 q 646 72 640 69 q 658 75 654 75 q 665 78 665 74 q 656 83 665 83 q 647 81 647 83 q 644 76 649 79 m 340 354 q 337 349 338 351 q 335 344 336 347 q 332 339 333 342 q 336 342 333 338 q 339 346 336 346 q 349 352 344 346 q 351 363 353 358 q 348 365 350 365 q 340 354 346 364 m 338 303 q 347 306 346 296 q 344 307 347 310 q 336 306 343 306 q 334 306 333 307 q 338 303 335 306 m 353 135 q 361 135 365 131 q 353 138 361 140 q 353 135 347 138 m 432 64 q 429 69 435 67 q 428 68 426 72 q 432 64 431 64 m 465 14 q 467 13 467 13 q 467 17 468 14 q 461 18 464 21 q 444 13 454 14 q 438 10 438 11 q 447 10 439 10 q 463 13 463 10 q 465 14 463 14 m 464 71 q 461 75 457 71 q 459 78 463 78 q 451 75 456 78 q 442 74 450 74 q 435 71 435 74 q 449 65 435 67 q 467 67 464 63 q 464 71 468 68 m 488 99 q 490 101 493 101 q 483 100 486 103 q 488 99 481 97 m 549 90 q 553 92 553 90 l 551 93 q 549 94 550 94 q 543 93 543 97 q 549 90 543 90 m 588 61 q 592 65 592 65 q 586 63 592 65 q 579 57 574 57 q 583 58 581 57 q 588 61 585 60 m 528 143 q 593 172 571 151 q 615 217 615 193 q 594 266 615 242 q 529 304 572 290 q 492 310 513 310 q 472 306 471 311 q 461 303 472 303 q 449 300 450 303 q 442 301 446 297 q 440 301 438 304 q 436 296 442 297 q 429 292 429 293 q 424 289 429 289 q 419 286 419 292 q 413 283 422 281 q 403 282 407 286 q 406 281 403 279 q 403 278 411 283 q 376 253 390 268 q 363 235 363 239 q 360 228 363 231 q 358 192 354 226 q 376 165 361 176 q 415 146 392 153 q 468 138 439 139 q 528 143 497 138 m 450 454 q 454 460 456 460 q 449 456 454 461 q 450 454 443 451 m 461 433 q 456 431 458 435 q 454 422 454 426 q 458 425 454 421 q 461 433 461 429 m 485 481 q 490 483 489 476 q 488 485 492 488 q 485 481 485 485 m 617 419 q 621 422 621 419 q 615 424 619 424 q 613 422 613 424 q 617 419 613 419 m 697 756 q 696 750 693 756 q 697 747 697 750 l 699 746 q 700 750 700 746 q 697 756 700 756 m 699 740 q 696 738 693 740 l 699 735 l 701 738 q 699 740 704 740 m 693 672 q 690 673 690 674 q 690 671 689 672 q 694 667 692 668 q 697 669 697 667 l 696 671 q 694 672 694 671 q 693 672 694 672 m 664 758 q 660 756 661 758 q 663 751 660 754 q 667 754 667 747 q 664 758 667 758 m 656 593 q 654 586 651 593 q 660 581 657 581 q 663 589 663 582 q 667 594 663 597 q 669 594 672 592 q 671 600 667 597 q 671 606 674 606 q 661 603 668 608 q 657 596 654 599 q 656 593 657 593 m 636 769 q 639 767 633 764 q 643 771 643 767 q 640 773 643 774 q 636 769 638 772 m 628 735 q 622 731 622 735 q 628 729 622 729 q 633 733 633 729 q 628 735 633 736 m 614 832 q 608 825 610 832 q 610 815 606 818 q 618 818 621 810 q 619 822 615 821 q 620 828 622 824 q 614 832 618 832 m 596 336 q 593 339 599 339 q 587 335 589 338 q 590 333 585 333 q 596 336 596 333 m 588 785 q 589 783 583 781 q 592 782 592 786 q 594 781 592 778 q 593 786 594 783 q 588 785 589 788 m 583 778 q 579 776 579 781 q 583 774 579 774 q 586 775 586 774 l 583 778 m 583 617 q 579 613 579 617 q 581 610 579 610 q 581 608 581 608 q 583 613 583 608 q 583 617 586 617 m 575 654 q 574 661 575 658 q 574 663 574 664 q 571 667 571 663 q 568 668 571 672 q 569 656 565 664 q 572 646 572 651 q 572 644 571 644 q 575 654 575 644 m 571 868 q 567 868 578 875 q 560 861 560 864 q 563 854 560 860 q 569 848 565 847 q 574 856 574 849 q 571 864 574 864 q 571 868 567 864 m 564 906 q 556 910 556 917 q 559 903 556 907 q 565 900 563 900 q 564 906 569 900 m 497 856 q 492 847 492 849 q 499 850 493 844 q 506 857 503 857 l 504 858 q 497 856 501 863 m 486 828 q 481 831 486 831 q 475 828 475 831 q 481 825 475 825 q 486 828 486 825 m 458 939 q 465 930 454 932 q 481 935 475 928 q 481 939 485 939 q 478 936 478 939 q 472 935 478 933 q 463 939 465 936 q 458 939 461 942 m 419 869 q 415 858 411 863 q 422 859 418 854 q 426 871 426 864 q 426 875 426 875 q 419 869 425 875 m 388 788 q 385 792 390 793 q 381 785 374 789 q 388 788 383 782 m 364 840 q 365 835 361 835 q 369 829 369 833 q 374 828 369 825 q 376 832 376 831 q 376 833 376 832 q 379 838 376 836 q 378 844 383 838 q 374 846 372 849 q 371 843 376 842 q 364 840 367 846 m 449 731 q 386 735 411 739 q 347 708 361 731 q 328 643 333 686 q 325 531 324 600 q 326 469 325 492 q 331 437 328 446 q 338 431 333 428 q 350 444 342 433 q 357 450 354 450 q 361 451 361 446 q 367 453 363 453 q 368 456 369 451 q 372 460 367 460 q 378 464 378 460 q 382 467 378 467 q 392 474 385 467 q 399 485 399 482 q 404 487 399 488 q 413 483 410 486 q 414 488 414 482 q 417 493 414 493 q 419 493 417 492 q 424 497 421 494 q 433 501 429 503 q 443 506 438 501 q 453 510 447 510 q 456 513 457 508 q 461 521 454 517 q 468 528 468 524 q 471 526 468 532 q 475 526 475 522 q 479 529 475 529 q 482 532 485 529 q 483 536 481 536 q 486 532 486 536 q 488 531 486 529 q 490 535 489 532 q 496 540 494 542 q 506 542 499 538 q 513 550 514 547 q 517 554 511 554 q 521 557 522 554 q 524 561 521 560 q 549 601 546 576 q 541 653 553 626 q 505 701 529 679 q 449 731 481 724 m 213 42 q 215 44 215 42 q 213 49 215 49 q 210 44 210 49 q 213 42 210 42 m 210 81 q 211 78 207 79 q 215 81 215 78 l 210 81 m 218 88 q 222 101 222 92 l 222 101 q 218 113 222 111 q 217 118 217 114 q 215 121 219 121 q 213 119 213 121 q 215 114 213 117 q 218 103 218 111 q 217 96 218 96 q 214 90 214 96 q 218 88 213 83 m 244 204 q 246 207 242 207 q 249 211 249 207 q 246 213 249 213 q 243 215 243 210 q 238 218 243 219 q 235 205 231 215 q 247 193 239 194 q 247 196 250 193 q 244 204 247 199 m 238 183 q 239 181 239 182 q 240 178 239 179 q 242 175 240 176 l 243 178 q 246 183 243 181 q 244 189 250 190 q 240 192 240 188 q 238 194 240 194 q 238 183 235 192 m 246 146 q 250 153 250 146 q 249 157 250 158 q 246 160 246 157 q 245 162 246 161 q 244 161 244 163 q 246 154 243 161 q 246 146 249 149 q 246 146 246 146 m 243 664 q 256 672 254 663 q 251 680 257 679 q 240 675 244 681 q 243 664 233 665 m 254 721 q 254 724 265 726 q 249 723 251 724 q 243 722 246 722 q 242 719 239 722 q 254 721 244 715 m 264 779 q 263 776 260 779 l 265 774 q 267 776 267 774 q 264 779 267 779 m 268 442 q 268 446 272 446 q 265 443 265 449 q 268 442 265 438 m 264 476 q 269 479 269 471 q 267 488 269 486 q 263 485 265 490 q 264 476 263 478 m 299 601 q 299 608 303 606 q 298 609 299 611 q 297 604 297 607 q 298 600 297 601 q 299 601 299 599 m 306 413 q 303 414 306 417 q 300 408 300 411 q 303 408 300 406 q 306 413 306 408 m 300 442 q 301 438 300 439 q 301 438 301 436 q 301 443 304 438 q 301 445 301 446 q 300 442 300 444 m 303 918 q 299 920 303 921 q 292 917 294 919 q 296 915 290 915 q 303 918 303 915 m 276 896 q 265 893 268 899 q 268 890 263 890 q 281 893 274 890 q 276 896 286 896 m 253 804 q 250 799 246 797 q 261 803 258 801 q 267 808 267 803 q 253 804 267 817 m 251 747 q 251 756 253 753 q 246 754 249 758 q 246 743 238 743 q 251 747 250 743 m 233 929 q 231 921 231 929 q 231 913 231 914 q 235 917 232 913 q 243 926 242 924 q 244 932 246 931 q 239 931 243 933 q 233 929 233 925 m 231 333 q 224 346 231 346 q 222 339 219 346 q 228 331 225 332 q 231 333 231 329 m 224 364 q 222 368 224 367 q 219 365 219 371 q 224 364 219 358 m 215 467 q 211 455 213 468 q 213 425 210 442 q 215 422 213 421 q 218 425 218 422 q 215 431 218 431 q 217 439 211 433 q 223 459 222 446 q 219 476 224 472 q 217 472 215 479 q 215 467 218 467 m 207 258 q 202 251 203 258 q 206 239 201 244 q 207 232 210 232 q 205 222 204 232 q 210 206 206 211 q 214 207 218 197 q 213 218 210 211 q 214 224 214 221 q 214 231 214 228 q 215 238 211 238 q 217 247 218 238 q 211 263 215 257 q 208 264 207 268 q 207 258 208 258 m 204 58 q 200 57 200 61 q 204 54 200 54 q 207 56 207 54 l 204 58 m 179 907 q 183 903 178 903 q 188 903 186 903 q 186 904 189 904 q 185 908 183 907 q 183 911 185 911 q 179 907 179 911 m 167 814 q 165 806 161 807 q 174 807 168 804 q 179 813 179 810 q 176 817 179 814 q 175 833 175 818 q 176 845 176 842 q 174 846 175 849 q 171 831 171 840 q 169 822 171 826 q 167 814 168 817 m 58 33 q 53 26 53 28 q 54 24 54 24 q 60 32 54 24 q 58 33 64 38 z "},"C":{"ha":738,"x_min":31,"x_max":710,"o":"m 103 778 q 56 860 86 831 q 31 907 31 886 q 56 940 32 928 q 124 956 79 953 q 233 953 169 960 q 281 949 249 950 q 354 949 314 949 q 407 949 386 949 q 446 951 428 950 q 481 954 464 953 q 522 960 499 956 q 648 939 611 971 q 679 819 685 907 q 674 759 676 781 q 669 726 672 738 q 661 713 667 715 q 646 710 656 710 q 615 733 619 707 q 590 765 611 753 q 537 783 568 778 q 469 789 506 789 q 398 782 432 789 q 336 762 364 775 q 296 729 308 749 q 286 712 290 719 q 279 696 282 704 q 274 676 276 688 q 268 644 271 664 q 260 376 239 481 q 350 236 281 272 q 431 208 392 214 q 500 213 469 203 q 552 247 531 222 q 582 308 574 271 q 607 363 590 349 q 642 367 624 376 q 675 328 660 358 q 699 250 690 299 q 690 131 710 183 q 622 41 669 78 q 504 -13 575 4 q 343 -25 433 -31 q 230 -3 275 -21 q 150 51 185 15 q 97 124 117 86 q 69 208 76 161 q 66 317 61 256 q 88 461 71 378 q 103 560 97 511 q 110 653 108 610 q 111 728 113 696 q 103 778 110 761 m 99 357 q 101 358 101 357 q 101 358 101 358 q 99 361 101 361 q 96 360 96 364 q 99 357 96 357 m 640 282 q 632 282 632 289 q 635 281 632 278 q 639 279 636 282 q 643 278 640 275 q 644 279 644 278 q 640 282 643 281 m 571 124 q 576 139 576 128 q 568 151 575 150 q 563 149 563 154 q 557 142 563 144 q 551 135 551 140 q 556 125 551 131 q 562 119 560 119 q 571 124 564 119 m 563 213 q 553 208 560 214 q 547 200 547 203 q 551 198 547 196 q 556 204 554 200 q 563 210 558 210 q 563 213 568 210 m 544 85 q 547 90 547 88 q 544 93 547 93 q 542 88 542 93 q 544 85 542 82 m 540 197 q 542 194 536 197 q 546 194 550 190 q 540 197 543 197 m 529 174 q 528 171 525 174 l 531 168 q 532 171 532 168 q 529 174 532 174 m 483 138 q 486 131 481 135 q 498 126 493 125 q 503 132 503 126 q 495 140 503 138 q 483 138 488 142 m 468 93 q 478 90 465 82 q 490 99 490 97 q 481 109 490 111 q 468 93 471 107 m 460 88 l 458 89 q 456 93 458 90 q 453 92 451 96 q 457 87 454 89 q 460 88 460 85 m 439 186 q 436 183 431 183 q 442 179 442 183 q 450 176 442 176 q 457 183 457 176 q 439 186 457 192 m 424 101 q 415 95 419 101 q 414 86 411 89 q 426 83 417 82 q 435 88 436 85 q 438 90 433 92 q 438 93 443 89 q 436 99 432 99 q 447 106 440 99 q 454 118 454 114 q 451 123 454 124 q 446 115 449 122 q 439 110 440 108 q 432 106 435 110 q 427 103 429 104 q 424 101 425 101 m 396 81 q 388 83 393 83 q 381 81 383 83 q 385 76 379 79 q 389 71 390 75 q 393 72 388 69 q 396 81 397 76 m 369 78 q 365 74 365 78 q 372 73 367 71 q 376 78 376 75 q 369 78 376 81 m 329 79 q 318 81 318 86 q 324 76 318 79 q 329 79 339 72 m 288 49 q 276 53 285 57 q 265 40 267 50 q 267 38 265 35 q 283 39 267 42 q 301 42 299 38 q 299 48 304 46 q 292 47 294 50 q 288 49 290 44 m 272 183 q 264 180 269 186 q 260 171 258 174 q 269 175 265 161 q 272 181 272 181 q 272 183 272 182 m 651 771 q 642 773 650 774 q 635 769 635 772 l 638 767 q 640 763 639 764 q 643 760 642 763 q 653 757 650 753 q 651 771 656 761 m 628 821 q 632 824 633 821 q 625 829 631 826 q 613 831 618 833 q 617 826 608 829 q 625 821 621 825 q 626 811 625 811 q 626 817 629 811 q 628 821 626 821 m 610 876 q 610 871 607 879 q 619 856 613 860 q 625 860 625 851 q 622 864 625 863 q 622 872 621 867 q 621 881 625 876 q 617 879 615 886 q 616 873 619 874 q 610 876 613 872 m 607 789 q 604 794 610 792 q 599 798 601 799 q 596 793 596 797 q 601 790 596 792 q 607 789 606 788 m 585 904 q 581 899 581 907 q 585 893 581 894 q 592 896 589 892 q 599 899 592 899 q 600 907 608 899 q 589 907 589 918 q 585 904 589 903 m 586 803 q 575 807 575 811 q 581 801 575 804 q 589 797 586 797 q 586 803 592 797 m 558 851 q 554 847 550 853 q 564 846 560 838 q 558 851 564 850 m 519 911 q 497 901 503 908 q 507 897 490 894 q 518 896 518 897 q 531 895 521 893 q 542 901 542 897 q 519 911 542 915 m 311 865 q 306 863 308 865 q 306 858 303 861 q 314 861 311 853 q 311 865 317 865 m 294 860 q 292 857 292 860 q 293 854 292 854 l 296 857 q 294 860 299 860 m 240 240 q 243 242 243 240 l 240 244 q 238 243 238 247 q 240 240 238 240 m 240 768 q 242 765 240 765 q 242 764 242 764 q 243 769 243 765 q 240 768 240 775 m 246 794 q 251 801 253 796 q 243 810 250 807 q 236 794 232 811 q 240 788 239 783 q 246 794 240 792 m 246 847 q 235 846 235 849 q 246 839 235 843 l 257 844 q 264 851 267 850 q 256 850 261 853 q 253 853 253 847 q 250 853 253 864 q 246 847 247 847 m 143 183 q 147 188 147 183 q 143 189 147 193 q 139 186 140 186 q 138 185 139 185 q 143 183 138 183 m 144 344 q 138 336 142 342 q 136 331 135 331 q 143 338 139 331 q 144 344 147 344 m 144 590 q 141 584 142 588 q 143 581 140 581 q 146 586 146 581 q 147 590 147 589 q 144 590 146 592 m 164 150 q 173 142 167 143 q 182 149 179 142 q 180 156 185 151 q 171 161 175 161 q 164 150 161 161 m 221 233 q 222 231 218 231 q 225 233 225 231 q 224 238 225 238 l 222 236 q 221 233 222 235 m 225 222 q 228 225 228 222 l 228 228 q 224 225 226 228 q 225 222 221 222 m 225 358 q 222 354 222 361 q 225 350 222 347 l 225 358 m 218 293 q 217 286 214 290 q 225 285 221 282 q 232 290 232 288 l 228 290 q 221 292 224 289 q 218 293 221 296 m 190 89 q 189 86 193 86 q 192 83 183 86 q 199 76 199 81 q 201 72 199 71 q 204 78 203 72 q 199 89 204 83 q 190 89 188 97 m 179 497 q 175 485 176 497 q 176 468 174 472 q 182 466 178 465 q 188 469 186 467 q 186 475 190 472 q 183 479 183 475 q 183 492 185 486 q 179 497 182 499 m 176 301 q 167 295 174 304 q 160 281 160 286 q 163 276 160 274 q 172 289 167 279 q 176 301 179 299 m 171 346 q 164 354 171 354 q 160 353 161 354 q 161 353 160 353 q 163 346 167 351 q 164 340 158 342 q 167 335 168 338 q 168 335 165 333 q 171 346 171 338 m 160 743 q 160 753 164 749 q 157 747 157 754 q 157 740 157 740 q 160 743 157 740 m 158 842 q 157 844 158 844 q 153 842 153 844 q 154 839 154 839 q 158 842 156 839 m 143 901 q 136 894 140 901 q 133 883 132 886 q 139 882 135 882 q 142 881 142 885 q 148 877 142 878 q 157 879 154 876 q 152 892 158 882 q 143 901 146 901 m 133 182 q 133 176 132 181 q 136 171 135 171 q 139 175 139 171 q 138 178 142 179 q 135 181 135 178 q 133 182 135 183 m 113 908 q 108 903 108 911 q 114 901 108 892 q 113 908 118 908 m 76 911 q 72 906 72 907 q 76 899 72 904 q 84 901 81 893 q 85 915 88 908 q 76 911 83 918 z "},"D":{"ha":853,"x_min":10,"x_max":822,"o":"m 136 411 q 138 478 136 444 q 140 540 139 511 q 142 592 140 569 q 144 625 143 614 q 147 693 147 660 q 142 755 146 726 q 131 805 138 783 q 114 836 124 826 q 101 849 111 840 q 81 868 92 858 q 56 898 64 882 q 50 927 49 914 q 62 951 51 940 q 90 964 72 961 q 128 966 101 965 q 189 967 154 967 q 261 967 224 968 q 331 965 299 967 q 388 963 364 964 q 417 958 411 961 q 490 928 453 947 q 560 883 526 908 q 625 830 594 858 q 678 771 656 801 q 758 629 726 706 q 806 475 790 553 q 822 322 822 397 q 803 185 821 247 q 753 76 786 122 q 669 10 719 31 q 644 0 654 4 q 623 -6 633 -4 q 600 -10 613 -8 q 569 -11 588 -11 q 519 -14 550 -12 q 463 -17 488 -15 q 333 -23 396 -21 q 219 -26 271 -25 q 128 -26 167 -26 q 72 -24 90 -26 q 28 -6 43 -19 q 11 23 13 7 q 23 54 10 39 q 64 78 36 69 q 101 95 88 83 q 122 140 114 107 q 132 238 129 174 q 136 411 135 301 m 57 49 q 56 51 60 51 q 53 49 53 51 q 54 46 53 46 l 57 49 m 724 199 q 722 200 728 203 q 718 193 715 193 q 724 199 718 193 m 746 257 q 743 251 739 261 q 747 250 744 247 q 746 257 750 256 m 731 278 q 726 272 726 274 l 728 272 q 731 274 729 274 q 735 278 735 274 q 731 278 735 281 m 718 311 q 717 319 721 315 q 714 319 714 328 q 711 319 714 315 q 710 317 708 322 q 713 304 713 308 q 715 297 713 300 q 718 299 722 293 q 721 301 718 301 q 721 304 726 301 q 718 311 715 307 m 710 442 q 705 428 704 435 q 713 422 706 422 q 716 423 715 422 q 715 424 717 424 q 711 428 711 426 q 714 429 711 432 q 714 433 718 428 q 713 443 711 442 q 710 442 714 446 m 74 906 q 76 901 75 903 q 78 901 78 900 q 75 910 81 901 q 70 915 71 917 q 74 906 69 913 m 124 907 q 129 903 125 904 q 133 906 133 903 q 131 913 133 907 q 124 914 128 915 q 124 907 121 913 m 111 74 q 115 76 115 74 q 113 79 115 79 q 108 76 108 79 q 111 74 106 74 m 164 260 q 167 263 167 260 q 164 264 167 267 q 161 275 161 264 q 157 291 160 294 q 156 268 154 288 q 156 247 156 250 q 160 246 157 243 q 163 256 163 249 q 164 260 158 260 m 225 300 l 228 303 q 229 306 229 304 q 225 304 229 308 q 221 297 221 303 q 225 300 221 296 m 271 356 q 272 360 272 358 q 271 364 271 363 q 265 361 268 367 q 265 360 263 358 q 269 362 268 363 q 268 358 269 361 q 268 351 265 354 q 271 356 271 349 m 276 583 q 277 600 278 597 q 274 600 276 603 q 269 592 269 596 q 264 586 269 586 q 263 579 260 585 q 268 565 265 574 q 274 561 274 554 q 274 569 274 563 q 276 583 275 576 m 328 13 q 328 14 329 13 q 325 17 328 15 q 319 20 322 19 q 315 22 317 21 q 318 17 313 22 q 324 14 321 15 q 328 13 326 13 m 318 110 q 321 106 318 106 q 324 108 324 106 q 321 113 324 113 q 318 110 318 115 m 610 133 q 618 137 613 131 q 624 149 624 143 q 618 150 624 154 q 614 147 615 149 q 614 146 613 146 q 608 139 614 144 q 606 135 603 133 q 610 133 610 135 m 643 288 q 642 294 646 296 q 638 287 639 292 q 640 279 638 282 q 649 281 649 274 q 644 282 649 286 q 643 288 642 281 m 642 303 q 644 299 642 299 l 644 306 q 642 303 643 307 m 661 163 q 651 160 657 172 q 657 157 647 151 q 661 163 664 160 m 650 429 q 647 432 650 435 q 647 428 646 431 q 650 429 650 419 m 647 450 q 644 461 647 461 q 642 465 642 461 q 640 459 639 468 q 644 444 642 450 q 647 440 646 438 q 647 450 647 442 m 638 486 q 637 486 638 488 q 636 481 636 485 q 639 474 636 474 q 640 475 642 474 q 643 482 640 479 q 643 485 649 488 q 638 486 640 482 m 636 50 q 633 45 632 46 q 638 47 633 44 l 649 53 q 644 56 649 57 q 636 50 640 56 m 589 596 q 582 603 586 603 q 581 594 575 603 q 588 588 585 588 q 589 596 592 589 m 575 633 q 576 628 574 632 q 581 629 582 619 q 580 631 581 631 q 579 633 579 632 q 579 635 579 633 q 575 633 579 636 m 531 742 q 528 738 528 742 q 531 736 528 733 q 533 742 533 739 q 531 742 533 744 m 515 679 q 513 678 513 682 q 515 675 513 675 q 518 676 518 675 l 515 679 m 510 833 q 507 831 507 833 q 508 828 507 828 l 511 831 q 510 833 513 833 m 499 718 q 492 722 496 721 q 489 722 489 724 q 494 714 489 719 q 503 708 500 708 q 506 704 506 708 q 507 701 503 701 q 510 706 510 701 q 506 713 510 711 q 506 715 503 714 q 510 721 510 718 q 504 719 510 725 q 499 718 499 714 m 481 847 q 476 840 479 849 q 478 835 476 835 q 482 842 481 835 l 482 846 q 481 847 481 846 m 458 725 q 456 724 456 725 q 461 721 456 721 q 465 726 465 724 q 472 721 465 731 q 485 713 481 710 q 485 718 489 714 q 479 725 479 724 q 468 731 478 728 q 460 729 458 731 q 458 725 463 725 m 432 731 q 428 724 429 728 q 431 719 428 719 q 438 725 435 719 q 438 728 443 731 q 435 729 435 725 q 432 731 435 731 m 335 728 q 336 726 332 726 q 340 728 342 726 q 335 728 338 731 m 313 443 q 308 390 310 410 q 307 356 307 369 q 308 333 307 343 q 310 307 308 322 q 314 264 313 289 q 317 221 315 239 q 319 190 318 200 q 322 174 319 179 q 331 167 325 169 q 347 163 336 165 q 433 149 392 151 q 503 154 475 146 q 586 219 556 169 q 624 332 617 268 q 615 465 632 396 q 556 592 599 535 q 518 638 535 619 q 486 669 501 657 q 455 690 471 682 q 419 701 439 697 q 349 690 369 714 q 324 590 328 665 q 319 526 322 568 q 313 443 315 483 m 290 936 q 274 941 288 940 q 260 939 260 942 q 276 935 260 935 q 290 936 292 935 m 244 792 q 238 787 239 789 q 243 788 238 785 q 247 786 247 790 q 253 783 247 782 q 263 789 260 783 q 264 793 264 790 l 265 796 q 258 797 265 799 q 244 792 251 794 m 238 138 q 236 133 236 139 q 241 125 236 125 q 246 135 246 125 q 243 139 249 142 q 238 138 242 138 m 233 322 q 232 326 236 322 q 229 336 226 332 q 226 340 229 340 q 225 332 224 340 q 224 315 226 325 q 225 310 219 307 q 231 314 231 310 l 231 321 q 233 322 232 322 m 231 453 q 218 443 218 460 q 226 442 218 436 q 231 453 236 450 m 217 524 q 216 513 215 521 q 219 506 217 506 q 219 510 219 507 q 219 517 222 513 q 217 524 219 526 m 203 946 q 193 943 193 946 q 201 941 193 940 q 211 944 208 942 q 210 945 213 944 q 203 946 207 946 m 199 760 q 193 757 193 757 l 194 757 q 199 756 196 756 q 203 758 203 756 q 199 760 203 764 m 174 475 q 171 470 172 472 q 169 467 169 468 q 174 467 169 463 q 179 475 179 472 q 174 475 179 481 m 165 917 q 161 915 161 917 q 164 913 161 913 q 168 915 165 913 q 165 917 168 917 m 157 317 q 154 306 154 317 q 158 297 154 296 q 160 306 161 300 l 160 306 q 163 317 160 311 q 163 325 165 324 q 161 321 161 325 q 157 317 161 317 m 156 208 q 151 201 151 213 q 156 199 151 189 q 156 208 158 204 m 154 167 q 149 161 151 167 q 154 149 149 149 q 158 151 156 149 l 158 161 q 154 167 161 167 m 150 32 q 142 35 147 35 q 135 32 138 35 q 136 32 133 31 q 139 31 139 35 q 146 28 139 28 q 150 32 153 28 z "},"E":{"ha":736,"x_min":26,"x_max":726,"o":"m 78 856 q 36 913 26 878 q 47 936 40 928 q 83 949 54 944 q 170 953 111 953 q 336 954 229 954 q 472 954 424 954 q 547 953 521 954 q 585 948 574 951 q 608 939 597 944 q 635 911 624 931 q 650 868 647 892 q 648 790 656 825 q 626 735 640 754 q 596 717 613 715 q 567 753 579 719 q 538 785 560 774 q 485 800 515 797 q 419 796 454 803 q 350 772 383 789 q 292 719 314 754 q 265 644 271 683 q 269 569 258 604 q 311 515 281 533 q 370 515 328 506 q 457 543 413 524 q 551 579 519 574 q 601 569 582 585 q 622 519 625 551 q 592 457 619 486 q 580 446 588 451 q 558 432 572 440 q 522 412 544 424 q 465 383 500 400 q 353 305 392 347 q 313 229 315 263 q 346 179 311 196 q 453 175 381 163 q 546 207 515 186 q 597 275 576 228 q 619 303 606 293 q 648 315 633 313 q 676 310 663 317 q 694 286 689 303 q 691 133 726 206 q 561 13 656 60 q 501 -6 540 3 q 418 -20 463 -15 q 331 -26 374 -25 q 258 -22 288 -26 q 131 24 185 -11 q 54 110 78 60 q 53 192 40 139 q 100 304 65 246 l 115 332 l 101 360 q 76 461 78 408 q 96 585 75 514 q 103 608 100 596 q 107 628 106 621 q 111 650 108 635 q 118 681 114 665 q 78 856 154 826 m 660 183 q 660 179 656 183 q 663 176 663 176 q 664 175 663 175 q 665 179 665 175 q 660 183 665 183 m 596 129 q 590 110 588 113 q 607 114 592 107 q 619 124 614 118 q 627 135 625 129 q 627 143 629 140 q 618 143 625 146 q 614 144 614 143 q 608 146 614 151 q 596 129 603 140 m 565 190 q 563 186 563 190 q 565 183 563 183 q 569 186 569 183 q 565 190 569 190 m 556 185 q 557 183 554 181 q 560 189 560 185 q 556 185 558 189 m 543 110 q 539 126 547 126 q 532 124 533 126 q 528 111 531 122 q 533 102 526 103 q 543 110 540 101 m 524 167 q 524 158 528 163 q 523 154 521 154 q 532 158 525 154 q 539 167 539 163 q 535 172 539 171 q 524 173 528 175 q 524 167 521 171 m 463 154 q 464 150 461 150 q 467 154 467 150 q 465 157 465 157 q 463 154 463 157 m 563 521 q 560 518 560 521 q 563 515 560 515 q 565 518 565 515 q 563 521 565 521 m 525 536 q 521 533 513 536 q 531 531 525 531 q 535 533 536 531 q 525 536 532 536 m 414 481 q 410 479 410 483 q 415 474 410 476 q 419 472 418 474 q 419 469 421 471 l 419 464 q 425 460 422 461 q 428 463 428 460 q 436 469 428 464 q 446 476 446 472 q 435 483 446 481 q 421 482 424 485 q 414 481 417 478 m 378 454 q 374 450 374 458 q 381 432 374 442 q 389 429 388 422 q 386 451 392 446 q 382 453 382 456 q 378 454 382 453 m 351 401 q 350 399 350 403 q 351 394 350 394 q 352 397 351 396 q 351 401 353 399 m 333 365 q 336 357 331 363 q 349 349 342 351 q 349 353 349 350 q 347 363 349 360 q 350 375 347 375 q 353 381 353 372 q 344 388 353 392 q 336 374 336 385 q 333 365 336 368 m 575 871 q 574 860 563 871 q 585 855 581 853 q 589 867 589 857 q 592 882 589 876 q 590 885 594 886 q 582 878 586 883 q 575 871 579 871 m 557 804 q 553 805 554 806 q 553 803 551 804 q 558 799 554 800 q 563 801 563 799 l 563 801 q 557 804 563 804 m 539 894 q 536 899 539 897 q 531 897 533 900 q 535 893 531 893 q 538 894 536 893 l 539 894 m 399 904 q 394 893 393 896 q 410 888 396 890 q 415 896 413 888 q 413 911 421 907 q 399 904 406 915 m 349 917 q 346 915 346 919 q 349 913 346 913 l 353 913 q 349 917 353 915 m 358 831 q 350 832 358 833 q 340 828 342 831 q 344 825 340 824 q 354 828 350 828 q 358 831 358 828 m 322 876 q 325 872 318 869 q 331 881 331 876 q 328 885 331 886 q 322 876 325 883 m 319 822 q 317 824 319 825 q 314 821 315 824 q 313 819 313 819 q 315 819 314 818 q 319 822 319 819 m 294 818 q 292 815 292 818 q 294 813 292 813 q 299 815 299 813 q 294 818 299 818 m 161 106 q 160 110 163 107 q 157 107 157 113 q 161 106 157 100 m 156 175 q 164 187 167 175 q 149 206 161 199 q 136 209 138 211 q 135 188 135 207 q 140 158 133 167 q 150 165 146 149 q 156 175 150 175 m 150 724 q 156 722 150 714 q 154 726 156 726 q 150 724 150 729 m 226 219 q 226 235 229 228 q 219 236 222 243 q 217 225 217 231 q 211 206 219 218 q 207 188 207 197 q 211 178 207 178 q 218 188 214 178 q 222 197 221 192 q 222 204 222 201 q 226 219 222 211 m 222 467 q 211 470 218 471 q 204 464 204 469 q 221 458 204 446 q 222 467 226 463 m 203 658 q 208 644 210 649 q 214 642 208 642 q 221 653 219 642 q 226 669 224 664 q 224 681 229 675 q 205 680 215 690 q 203 658 194 669 m 226 440 q 228 446 228 443 q 228 451 228 449 q 218 450 224 465 q 219 438 215 443 q 226 440 224 433 m 228 289 q 226 292 228 292 q 222 289 222 292 q 224 286 224 286 q 228 289 225 286 m 229 254 q 232 260 232 257 q 229 263 232 263 q 226 257 226 263 q 229 254 226 251 m 272 81 q 277 88 276 82 q 274 93 278 93 q 272 101 271 93 q 261 104 275 115 q 261 96 257 100 q 261 90 265 92 q 260 82 254 86 q 272 81 265 78 m 292 250 q 296 254 296 253 q 292 256 294 257 q 289 253 290 256 q 292 250 289 250 m 299 392 q 301 397 304 397 q 286 385 292 397 q 283 375 283 376 q 288 374 283 374 q 292 381 292 374 q 299 392 292 389 m 318 24 q 325 25 325 17 q 321 31 325 31 q 316 28 317 31 q 318 24 315 26 m 313 139 q 304 135 308 142 q 306 117 301 128 q 315 110 310 107 q 322 111 318 111 q 326 119 325 111 q 325 133 328 128 q 319 138 322 140 q 313 139 319 136 m 297 450 q 296 443 294 447 q 301 439 297 439 q 306 443 304 439 q 304 449 308 446 q 297 450 300 453 m 279 488 q 282 481 278 488 q 291 473 286 474 q 296 476 296 472 q 289 481 296 481 q 283 485 283 483 q 279 488 283 488 m 283 367 q 277 361 278 364 q 282 358 276 358 q 286 360 286 358 l 288 361 l 288 365 q 283 367 292 372 m 267 331 q 257 311 258 324 q 263 299 256 299 q 271 306 271 299 q 274 313 271 313 q 279 325 276 313 q 281 344 282 338 q 274 351 278 354 q 271 338 271 349 q 267 331 271 333 m 249 711 q 250 705 246 708 q 257 703 254 701 q 258 708 258 704 q 255 713 258 713 q 249 711 251 714 m 246 328 q 247 325 243 325 q 250 328 250 325 q 249 331 250 331 q 246 328 246 331 m 250 183 q 242 160 247 165 q 239 153 239 156 q 243 140 239 151 q 249 130 246 131 q 257 133 251 129 q 265 139 263 139 q 268 143 268 139 q 272 144 268 149 q 279 144 279 139 q 274 163 279 150 q 272 171 269 168 q 267 180 275 174 q 254 186 258 186 q 250 183 250 186 m 239 503 q 237 515 238 507 q 233 531 236 524 q 228 549 231 543 q 226 547 226 554 q 221 542 226 542 q 210 531 214 539 q 210 515 207 522 q 218 511 215 508 q 222 513 222 515 q 226 499 222 506 q 235 493 231 493 q 239 503 242 493 m 200 908 q 206 895 197 899 q 225 899 215 892 q 226 908 231 903 q 213 914 224 914 q 200 908 201 914 m 200 115 q 195 97 194 108 q 201 88 196 86 q 207 104 207 89 q 200 115 208 126 m 182 419 q 179 409 178 413 q 188 413 181 406 q 190 426 193 418 q 186 433 190 433 q 185 431 185 433 q 182 419 188 428 m 183 299 q 177 296 178 299 q 182 292 176 293 q 190 296 190 286 q 183 299 190 299 m 151 850 q 142 853 143 857 q 150 843 142 850 q 164 835 158 835 q 165 843 169 836 q 160 847 163 850 q 151 850 160 844 m 146 818 q 143 815 139 825 q 145 808 144 813 q 147 800 146 803 q 150 803 149 793 q 146 818 150 814 m 149 608 q 141 597 146 608 q 133 572 136 586 q 131 550 128 553 q 143 564 135 547 q 147 575 144 568 q 149 590 149 582 q 150 603 150 597 q 149 608 150 608 m 124 936 q 103 929 103 936 q 113 928 103 926 q 129 933 124 931 q 124 936 138 936 m 61 894 q 57 894 57 899 q 59 890 57 892 q 63 889 61 888 q 61 894 65 892 z "},"F":{"ha":731,"x_min":10,"x_max":717,"o":"m 40 893 q 16 907 22 900 q 10 929 10 914 q 19 953 10 944 q 56 967 28 963 q 134 970 83 971 q 269 967 185 969 q 318 965 290 965 q 375 963 346 964 q 433 960 404 961 q 486 960 463 960 q 581 956 544 958 q 641 946 618 953 q 676 928 664 939 q 696 897 688 917 q 709 852 704 881 q 715 794 714 824 q 714 740 717 765 q 703 706 711 715 q 682 694 694 696 q 657 697 669 692 q 635 714 644 703 q 622 742 625 725 q 601 774 618 761 q 574 781 585 788 q 562 780 572 779 q 536 782 551 781 q 426 781 481 788 q 349 761 372 775 q 326 724 335 753 q 315 659 318 694 q 317 588 313 624 q 332 526 321 551 q 353 506 340 508 q 397 513 365 503 q 426 521 408 515 q 460 531 444 526 q 495 542 475 535 q 528 556 515 549 q 598 574 575 578 q 629 543 621 571 q 608 447 644 493 q 490 371 571 401 q 428 340 457 358 q 381 299 400 321 q 352 256 361 278 q 347 213 343 233 q 365 155 353 185 q 388 113 376 125 q 402 102 390 108 q 426 90 414 96 q 450 79 439 83 q 463 76 461 75 q 467 71 465 76 q 472 67 469 65 q 482 63 476 68 q 489 58 488 57 q 493 54 493 61 q 494 47 493 47 q 497 44 497 47 q 499 38 499 42 q 500 28 499 33 q 457 -19 507 -8 q 420 -22 451 -21 q 346 -25 389 -24 q 253 -26 303 -26 q 162 -26 204 -26 q 90 -26 119 -26 q 56 -24 60 -25 q 31 -6 38 -18 q 29 21 25 7 q 47 49 33 35 q 81 71 60 63 q 120 99 108 82 q 136 154 132 117 q 149 269 146 233 q 150 321 151 306 q 149 344 150 325 q 148 394 149 364 q 147 460 147 424 q 147 538 147 497 q 147 643 147 604 q 145 704 146 682 q 144 737 144 726 q 140 756 143 747 q 136 776 138 767 q 133 792 135 786 q 40 893 121 867 m 478 26 q 475 24 475 26 q 476 21 475 21 l 479 24 q 478 26 482 26 m 428 49 q 426 44 422 47 q 432 46 432 40 q 428 49 432 51 m 504 461 q 504 458 501 464 q 506 455 506 454 q 510 458 507 456 q 519 464 514 464 q 522 465 522 461 q 526 472 519 468 q 529 479 533 476 q 521 476 526 482 q 517 474 517 472 q 515 474 517 475 q 513 471 514 474 q 507 463 507 465 q 504 461 507 458 m 488 453 q 490 444 479 444 q 494 447 494 444 q 496 451 493 451 q 496 454 499 451 q 488 453 493 458 m 406 483 q 403 481 403 483 q 404 478 403 478 l 407 481 q 406 483 408 483 m 365 413 q 361 403 349 403 q 369 408 364 403 q 365 413 375 419 m 347 376 q 342 375 342 379 q 344 372 342 372 q 349 368 349 372 q 344 364 349 364 q 344 361 339 364 q 350 360 353 356 q 354 369 350 369 q 357 371 357 367 q 353 381 358 381 q 350 378 347 381 q 351 376 351 376 q 347 376 350 375 m 363 19 q 342 17 351 18 q 332 15 333 15 q 338 13 331 14 q 353 13 344 13 q 372 15 363 14 q 385 18 382 17 q 384 20 389 19 q 363 19 379 21 m 326 151 q 325 147 325 153 q 326 143 325 142 l 326 151 m 317 14 q 321 13 315 13 q 325 14 326 13 l 317 14 m 685 808 q 682 799 682 808 q 684 788 682 788 q 689 799 686 788 l 689 799 q 688 815 690 808 q 686 814 685 819 q 685 808 689 808 m 675 732 q 674 725 668 725 q 682 729 681 725 q 684 736 688 735 q 675 732 681 738 m 658 839 q 656 836 656 839 l 656 833 q 660 836 657 833 q 658 839 663 839 m 650 824 q 647 821 644 824 q 653 818 650 818 q 656 821 656 818 q 650 824 656 824 m 649 749 q 646 744 646 749 q 650 740 646 740 q 657 739 654 742 q 660 739 660 733 q 664 742 661 742 q 667 744 667 739 q 661 749 667 749 q 660 751 654 749 q 660 760 663 753 q 652 763 657 764 q 650 754 647 761 q 649 749 653 749 m 632 901 q 629 894 629 903 q 632 882 629 886 q 640 886 640 874 q 632 901 640 900 m 593 854 q 592 856 593 857 q 592 851 592 854 q 592 847 592 849 q 593 847 593 846 q 593 854 596 851 m 593 821 q 584 822 592 824 q 576 819 576 821 q 586 818 576 818 q 593 821 593 821 m 490 897 q 489 888 485 888 q 496 896 490 888 q 494 908 504 908 q 493 906 493 908 q 490 897 496 903 m 426 840 q 417 832 419 838 q 422 826 415 826 q 426 832 426 826 q 431 835 426 835 q 436 836 436 832 q 442 838 440 840 q 444 839 444 835 q 426 840 444 850 m 394 901 q 393 899 393 900 q 394 900 393 899 q 401 897 397 903 q 408 895 404 894 q 410 900 413 896 l 410 900 q 413 901 407 904 q 417 903 417 899 q 413 911 418 907 q 407 908 408 915 q 400 904 404 903 q 394 901 397 907 m 390 840 q 383 840 381 843 q 386 836 386 839 q 387 833 383 833 q 393 836 390 833 q 397 839 396 839 q 394 836 397 839 q 399 833 392 831 q 406 833 406 836 q 408 831 406 831 q 408 836 410 831 q 407 846 404 843 q 404 844 408 849 q 390 840 400 840 m 350 879 q 351 875 346 875 q 354 879 354 875 q 353 885 354 885 l 350 879 m 331 822 q 333 819 326 818 q 341 821 336 821 q 349 822 346 821 q 357 828 357 822 q 363 832 357 833 q 378 839 375 826 q 361 839 378 850 q 351 836 351 833 q 349 836 351 842 q 344 833 344 832 q 339 833 344 836 q 335 828 333 829 q 331 822 335 825 m 203 199 q 201 207 204 204 q 199 208 200 210 q 200 203 199 207 q 203 199 200 188 m 257 131 l 257 139 q 256 135 256 140 q 257 131 256 129 m 306 164 q 303 176 313 171 q 290 182 296 182 q 285 176 283 182 q 285 172 285 175 q 286 164 286 168 q 289 158 286 156 q 289 156 292 161 q 288 149 286 151 q 293 150 289 147 q 297 151 297 154 q 300 153 300 149 q 306 164 300 156 m 283 542 q 290 551 290 542 q 284 559 290 560 q 276 549 278 558 q 283 542 276 542 m 299 786 l 303 786 q 300 790 303 789 q 296 789 297 790 q 299 786 293 786 m 300 314 q 300 322 303 319 q 297 317 297 325 q 300 314 297 308 m 304 938 q 299 937 303 939 q 294 932 294 935 q 300 933 294 929 q 304 936 303 935 q 304 938 306 938 m 297 842 q 293 838 292 842 q 290 835 296 832 q 288 831 286 836 q 292 824 289 825 q 294 826 294 822 q 297 829 294 829 q 301 835 301 829 q 297 842 303 842 m 283 936 q 281 929 269 936 q 290 933 290 925 q 283 936 290 936 m 275 533 q 274 526 272 529 q 281 525 276 522 q 281 532 285 526 q 275 533 276 539 m 274 319 q 264 313 272 318 q 261 304 258 310 q 269 299 265 297 q 275 311 274 301 q 274 319 275 321 m 256 817 q 254 808 253 810 q 260 811 254 806 q 261 819 263 818 q 256 817 261 822 m 240 133 q 237 133 236 136 q 242 128 238 131 q 248 124 247 124 q 250 126 249 124 q 249 128 251 129 q 246 129 246 125 q 249 132 246 132 q 250 140 253 135 q 243 144 247 144 q 242 138 239 144 q 240 133 244 129 m 228 93 q 228 90 219 88 q 235 88 232 93 q 232 83 239 83 q 232 75 224 83 q 236 76 238 69 q 234 80 233 79 q 238 78 235 81 q 243 78 243 74 q 244 92 246 83 q 240 101 243 100 q 242 111 236 103 q 242 122 246 121 q 232 115 239 124 q 226 103 226 110 q 231 100 226 97 q 233 100 235 103 q 228 93 232 97 m 217 593 q 215 592 213 594 q 217 585 218 586 q 218 585 215 583 q 222 589 222 589 q 217 593 222 593 m 203 743 q 204 742 200 740 q 208 744 210 744 q 203 743 207 747 m 201 532 q 203 528 199 524 q 207 524 207 531 q 210 524 207 519 q 218 528 210 528 q 225 533 225 528 q 218 539 225 539 l 207 539 q 201 532 201 539 m 200 360 q 208 356 199 356 q 218 363 218 356 q 213 368 218 369 q 208 361 206 365 q 209 358 210 358 q 206 360 208 357 q 200 360 201 364 m 203 332 q 198 325 199 329 q 201 321 197 321 q 203 325 203 321 q 206 325 200 328 q 208 329 210 324 q 207 336 207 332 l 206 335 q 203 332 206 335 m 199 176 q 194 176 197 179 q 192 168 192 172 q 194 160 192 161 q 199 167 196 160 q 199 176 201 176 m 182 950 q 179 947 179 950 q 182 944 179 944 q 186 947 186 944 q 182 950 186 950 m 161 79 q 160 87 164 90 q 150 71 156 83 q 147 61 147 64 q 147 61 146 58 q 157 65 151 65 q 163 68 163 65 q 163 72 165 72 q 161 79 158 72 z "},"G":{"ha":757,"x_min":29,"x_max":744,"o":"m 107 604 q 105 754 118 690 q 56 854 92 818 q 30 899 29 879 q 54 932 31 919 q 122 949 78 944 q 229 946 167 953 q 278 943 244 944 q 347 942 311 942 q 417 943 383 942 q 464 946 450 944 q 490 949 475 947 q 517 953 506 950 q 641 932 604 964 q 672 814 678 900 q 667 755 669 776 q 663 723 665 733 q 654 710 660 713 q 640 706 649 707 q 611 726 618 704 q 560 768 601 754 q 469 783 519 782 q 372 773 419 785 q 301 735 324 761 q 278 688 289 719 q 260 614 267 656 q 249 526 253 572 q 247 437 246 481 q 252 357 247 393 q 267 300 257 321 q 322 231 289 256 q 392 201 356 207 q 462 207 428 196 q 519 243 496 218 q 552 306 543 268 q 547 390 561 343 q 524 417 542 410 q 485 419 506 424 q 447 401 464 415 q 422 363 429 386 q 401 327 415 338 q 372 321 386 317 q 344 342 357 325 q 328 388 332 358 q 327 462 322 432 q 351 510 332 492 q 403 538 369 529 q 490 549 438 547 q 530 551 514 550 q 558 556 546 553 q 582 567 571 560 q 610 586 593 574 q 657 594 643 610 q 669 515 671 578 q 668 365 668 429 q 669 256 668 301 q 674 183 671 211 q 682 138 678 154 q 685 124 683 133 q 689 104 686 114 q 694 80 690 94 q 703 52 699 65 q 713 28 708 39 q 722 14 718 17 q 707 -21 744 -7 q 684 -24 703 -22 q 644 -26 665 -25 q 607 -26 624 -26 q 589 -25 590 -26 q 547 -23 588 -24 q 450 -22 507 -22 q 363 -22 394 -22 q 311 -19 332 -21 q 274 -12 290 -17 q 232 0 258 -8 q 141 59 183 14 q 79 164 99 104 q 67 218 71 190 q 63 280 63 246 q 70 359 64 314 q 88 467 76 404 q 95 513 92 490 q 100 543 99 535 q 103 569 101 551 q 107 604 104 588 m 99 357 q 100 361 100 357 q 99 364 99 364 l 97 365 q 96 361 96 365 q 99 357 96 357 m 350 443 q 350 451 353 446 q 349 453 350 454 q 349 449 349 451 q 349 442 349 444 q 350 443 350 440 m 414 421 q 415 429 419 426 q 413 429 411 432 q 410 424 415 426 q 407 419 407 422 q 414 421 408 415 m 413 474 q 417 476 417 474 q 415 481 418 478 q 403 475 413 483 q 393 463 393 467 q 396 461 393 456 q 399 464 399 464 q 404 467 400 463 q 413 474 408 474 m 429 486 q 443 489 446 483 q 438 489 442 493 q 432 488 433 486 q 423 486 429 490 q 419 479 417 482 q 426 477 422 476 q 428 482 429 478 q 429 486 426 486 m 558 435 q 563 438 563 435 q 558 440 563 440 q 556 438 556 440 q 558 435 556 435 m 567 50 q 571 51 571 50 l 571 51 q 568 55 571 54 q 564 53 565 56 q 567 50 561 50 m 614 90 q 613 94 617 94 q 610 90 610 94 q 611 88 610 88 q 611 86 611 86 q 614 90 613 86 m 626 8 q 631 11 631 8 q 629 13 631 13 q 626 14 629 14 q 622 13 622 17 q 626 8 622 8 m 626 107 q 626 101 624 107 q 628 94 628 99 q 629 92 629 92 q 631 99 631 92 q 626 107 631 107 m 640 546 q 638 539 638 540 q 640 540 638 535 q 643 547 643 546 q 640 546 643 551 m 635 50 q 635 42 632 53 q 642 31 638 33 q 646 36 646 29 q 642 49 646 42 q 638 53 638 57 q 635 50 638 50 m 626 351 q 622 350 622 346 q 619 351 622 354 q 618 347 614 351 q 617 340 618 343 q 615 325 614 336 q 618 314 615 314 q 622 317 622 314 q 621 319 622 318 q 618 324 621 321 q 619 326 615 331 q 626 328 625 322 q 624 333 626 332 q 628 340 621 336 q 632 351 633 350 q 626 351 631 357 m 621 265 q 622 276 619 274 q 624 286 625 279 q 619 293 622 293 q 618 303 615 293 q 615 311 618 311 q 613 308 613 311 q 613 303 613 306 q 611 292 613 296 q 614 272 610 276 q 619 264 619 267 q 617 263 618 260 q 613 267 617 267 q 613 261 610 267 q 621 257 618 256 q 621 265 624 258 m 615 531 q 610 530 611 531 q 613 522 610 529 q 615 522 614 518 q 617 526 615 525 q 619 526 618 528 q 622 528 622 524 q 615 531 622 531 m 611 174 q 604 168 604 175 q 611 158 604 161 q 618 160 618 154 q 617 167 619 164 q 614 169 614 167 q 621 171 617 172 q 622 172 625 169 q 619 178 619 174 q 618 181 622 181 q 615 178 613 181 q 611 174 615 174 m 588 522 q 588 514 581 522 q 594 511 590 511 q 593 515 596 513 q 590 519 590 515 q 588 522 593 522 m 551 461 q 571 463 563 461 q 581 464 579 464 q 576 466 582 465 q 561 467 569 467 q 544 466 553 467 q 533 463 536 465 q 529 459 526 460 q 551 461 532 458 m 549 190 q 551 188 547 189 q 556 190 556 188 l 549 190 m 483 131 q 479 127 479 128 q 486 126 479 126 q 496 132 496 129 q 493 132 496 135 q 489 133 490 132 q 483 131 489 136 m 468 100 q 465 99 465 100 q 469 94 465 96 q 475 93 472 92 q 475 101 478 96 l 475 101 q 471 110 475 110 q 469 104 467 110 q 468 100 472 96 m 464 7 q 464 0 461 4 q 469 -4 467 -4 q 472 0 475 -4 q 468 3 472 7 q 465 4 465 0 q 464 7 465 7 m 419 104 q 411 97 417 104 q 408 89 406 90 q 421 87 413 86 q 429 90 429 88 q 432 93 429 96 q 436 94 436 92 q 432 97 436 97 q 433 103 428 97 q 436 111 439 107 q 428 108 432 114 q 419 104 424 104 m 393 81 q 383 85 392 83 q 375 83 375 86 q 390 76 375 79 q 393 81 393 76 m 368 82 q 361 79 364 82 q 367 76 361 76 q 372 79 372 76 q 368 82 372 82 m 325 81 q 315 83 315 89 q 321 79 315 79 q 325 81 333 75 m 285 50 q 276 56 285 57 q 264 50 267 56 q 264 42 258 36 q 269 44 264 44 q 278 43 276 44 q 290 42 283 40 q 299 47 297 43 q 297 51 299 51 q 294 53 294 49 q 293 55 294 56 q 290 51 292 54 q 285 50 285 44 m 261 179 q 257 172 253 176 q 268 176 261 167 q 268 186 274 185 q 265 186 263 189 q 261 179 265 183 m 636 767 q 629 766 629 768 q 636 756 629 764 q 646 761 650 742 q 636 767 644 767 m 622 817 q 621 824 626 821 q 604 824 608 833 q 606 819 604 819 q 615 820 611 821 q 618 817 619 819 q 617 809 615 814 q 621 804 618 804 q 621 808 625 804 q 622 817 621 814 m 604 868 q 603 864 601 871 q 613 849 606 850 q 618 861 619 849 q 607 876 618 876 q 610 872 604 876 q 613 869 618 867 q 607 867 607 869 q 604 868 607 863 m 601 783 q 600 788 607 783 q 592 790 594 793 q 592 786 589 789 q 601 783 596 783 m 578 897 q 574 894 574 900 q 579 890 574 890 q 588 892 585 889 q 593 894 589 894 q 597 894 597 892 q 593 900 597 896 q 583 900 583 910 q 578 897 583 894 m 581 797 q 569 801 572 801 q 572 797 567 801 q 583 793 579 793 q 581 797 588 793 m 553 846 q 551 840 547 846 q 556 838 554 838 q 558 844 558 839 l 557 846 l 553 846 m 503 903 q 492 897 496 900 q 493 890 489 893 q 504 890 496 888 q 514 889 514 893 q 517 886 514 886 q 519 889 519 886 q 526 890 519 893 q 536 894 535 889 q 532 903 538 900 q 519 906 526 907 q 503 903 511 903 m 236 242 q 244 242 240 235 q 239 244 244 244 q 236 242 233 244 m 249 792 q 247 799 251 794 q 239 804 243 804 q 233 788 229 804 q 240 788 233 786 q 249 792 247 790 m 307 858 q 300 856 300 858 q 306 853 300 853 q 314 856 311 853 q 307 858 314 858 m 239 844 q 231 840 231 844 q 235 838 231 838 q 240 835 240 838 q 242 832 240 832 q 253 838 244 832 q 263 846 260 842 q 257 847 265 850 q 249 847 251 843 q 246 847 246 853 q 239 844 246 844 m 146 185 l 146 190 q 140 188 143 193 q 138 185 138 185 q 140 186 138 185 q 144 185 142 188 q 146 185 144 181 m 142 582 q 143 578 142 576 l 143 586 q 142 582 142 588 m 167 296 q 158 283 160 289 q 160 279 156 278 q 165 283 165 279 q 171 292 165 286 q 177 301 179 300 q 167 296 175 303 m 163 151 q 173 146 165 146 q 182 151 181 146 q 176 160 183 156 q 165 161 169 164 q 163 151 163 160 m 224 233 q 222 236 226 236 q 219 233 219 236 q 221 231 219 231 l 224 233 m 214 293 q 222 285 208 285 q 228 289 228 285 q 225 290 228 294 q 219 292 224 286 q 214 293 217 299 m 189 89 q 192 86 183 89 q 199 78 199 79 q 200 79 199 75 q 197 90 200 88 q 191 94 194 93 q 190 92 188 94 q 189 89 193 89 m 176 496 q 174 481 174 494 q 178 464 175 467 q 182 482 189 457 q 179 493 181 489 q 176 496 178 497 m 168 335 q 169 353 169 350 q 161 353 168 357 q 161 350 156 350 q 165 347 165 350 q 161 346 165 344 q 158 344 158 349 q 161 340 158 340 q 163 335 165 338 q 164 332 163 332 q 168 335 168 332 m 160 744 q 157 748 160 749 q 153 743 154 747 q 156 739 153 739 q 160 744 160 742 m 138 892 q 131 883 131 889 q 138 875 132 878 q 150 872 144 872 q 157 874 156 871 l 157 874 q 153 882 160 876 q 147 890 147 888 q 138 892 147 897 m 113 903 q 107 896 107 903 q 114 894 107 883 q 113 903 117 901 m 85 908 q 79 908 83 911 q 74 903 75 906 q 76 892 72 899 q 84 894 81 886 q 85 908 88 901 z "}}}
